<?xml version="1.0" standalone="no"?>
<!DOCTYPE svg PUBLIC "-//W3C//DTD SVG 1.1//EN" "http://www.w3.org/Graphics/SVG/1.1/DTD/svg11.dtd" >
<svg>
<metadata>
Created by FontForge 20090622 at Tue May  2 18:50:20 2017
 By deploy user
Copyright 1991-2003 Adobe Systems Incorporated. All Rights Reserved. U.S. Patent Des. 371,799.
</metadata>
<defs>
<font id="MinionWebPro" horiz-adv-x="800" >
  <font-face 
    font-family="Minion Web Pro"
    font-weight="400"
    font-stretch="normal"
    units-per-em="2000"
    panose-1="2 4 5 3 5 2 1 2 2 3"
    ascent="1500"
    descent="-500"
    x-height="906"
    cap-height="1288"
    bbox="-30 -556 2152 1835"
    underline-thickness="100"
    underline-position="-150"
    unicode-range="U+0020-U+FB02"
  />
<missing-glyph horiz-adv-x="1000" 
d="M0 1400h1000v-1400h-1000v1400zM840 1300h-680l340 -510zM900 190v1020l-340 -510zM840 100l-340 510l-340 -510h680zM100 190l340 510l-340 510v-1020z" />
    <glyph glyph-name="f_i" unicode="fi" horiz-adv-x="1130" 
d="M220 218v592h-132l-14 26l56 70h90v24q0 96 32 188.5t106.5 168t159.5 113.5t144 38q88 0 164 -44.5t76 -98.5q0 -33 -31 -61.5t-58 -28.5q-17 0 -29 13q-90 102 -208 102q-85 0 -136.5 -97t-51.5 -291v-26h178q253 0 374 26v-716q0 -90 20.5 -109.5t121.5 -28.5v-78
h-434v78q87 9 105.5 28.5t18.5 109.5v492q0 66 -14.5 84t-79.5 18h-290v-592q0 -92 18 -111.5t112 -28.5v-78h-432v78q95 11 114.5 30.5t19.5 109.5z" />
    <glyph glyph-name="f_l" unicode="fl" horiz-adv-x="1130" 
d="M220 216v594h-130l-14 28l54 68h90v28q0 139 68.5 263.5t184.5 183.5t169 59q98 0 182 -44q40 11 98 38l18 -12v-1206q0 -90 21 -109.5t123 -28.5v-78h-438v78q90 9 108 28.5t18 109.5v594h-384v-594q0 -90 18.5 -109.5t109.5 -28.5v-78h-430v78q95 11 114.5 30t19.5 108
zM388 906h384v352q-56 78 -170 78q-214 0 -214 -354v-76z" />
    <glyph glyph-name=".notdef" horiz-adv-x="1000" 
d="M0 1400h1000v-1400h-1000v1400zM840 1300h-680l340 -510zM900 190v1020l-340 -510zM840 100l-340 510l-340 -510h680zM100 190l340 510l-340 510v-1020z" />
    <glyph glyph-name="NULL" horiz-adv-x="0" 
 />
    <glyph glyph-name="nonmarkingreturn" horiz-adv-x="480" 
 />
    <glyph glyph-name="uni00A0" unicode="&#xa0;" horiz-adv-x="480" 
 />
    <glyph glyph-name="exclam" unicode="!" horiz-adv-x="516" 
d="M302 390q-10 -11 -50 -11q-9 0 -17 1t-14.5 2.5t-9.5 4t-12 134.5l-20 274q-10 141 -21 254q-18 176 -18 205q0 60 114 60q116 0 116 -60q0 -52 -19.5 -241t-48.5 -623zM396 124q0 -66 -39 -107t-99 -41t-99 41t-39 107q0 63 39.5 104.5t98.5 41.5t98.5 -41.5
t39.5 -104.5z" />
    <glyph glyph-name="quotedbl" unicode="&#x22;" horiz-adv-x="718" 
d="M144 844q-68 498 -68 510q0 54 110 54t110 -54q0 -13 -70 -510q-10 -9 -40 -9q-31 0 -42 9zM492 844q-68 498 -68 510q0 54 110 54t110 -54q0 -13 -70 -510q-10 -9 -40 -9q-31 0 -42 9z" />
    <glyph glyph-name="numbersign" unicode="#" horiz-adv-x="948" 
d="M908 786h-186l-58 -286h174l-20 -136h-182l-74 -364h-112l76 364h-192l-76 -364h-110l74 364h-198l20 136h208l60 286h-196l20 136h202l66 324h110l-66 -324h190l66 324h112l-66 -324h182zM612 788h-190l-58 -288h190z" />
    <glyph glyph-name="dollar" unicode="$" horiz-adv-x="944" 
d="M532 1158v-432q198 -65 268 -154t70 -208q0 -144 -88.5 -239.5t-249.5 -118.5v-172h-94v166q-169 0 -306 82q-29 108 -58 268l84 24q79 -259 280 -284v474q-200 82 -259 163t-59 185q0 124 84 217t234 113v156h94v-152q94 0 182 -28q15 -6 58 -10q27 -135 44 -256
l-84 -18q-49 199 -200 224zM438 762v396q-174 -28 -174 -186q0 -139 174 -210zM532 534v-442q180 36 180 204q0 88 -40.5 141t-121.5 89z" />
    <glyph glyph-name="percent" unicode="%" horiz-adv-x="1632" 
d="M1230 1242l-762 -1322l-86 58l762 1318zM84 882q0 153 81.5 270.5t220.5 117.5t221.5 -118t82.5 -270q0 -154 -82 -272t-222 -118q-139 0 -220.5 118.5t-81.5 271.5zM534 882q0 88 -16.5 157.5t-48.5 106t-79 36.5q-71 0 -108.5 -83.5t-37.5 -216.5q0 -134 37.5 -218
t108.5 -84t107.5 82t36.5 220zM944 364q0 152 82 270t220 118t220 -118.5t82 -271.5q0 -151 -81.5 -268.5t-220.5 -117.5q-138 0 -220 118t-82 270zM1392 364q0 88 -16.5 157.5t-48.5 106t-79 36.5q-70 0 -107 -84t-37 -216q0 -133 37 -216.5t107 -83.5q71 0 107.5 81
t36.5 219z" />
    <glyph glyph-name="ampersand" unicode="&#x26;" horiz-adv-x="1334" 
d="M888 838h452v-78q-74 -6 -113 -21.5t-64 -45t-91 -133.5l-100 -154q207 -250 294 -416l-22 -28q-67 7 -139.5 36t-90.5 55l-39 57q-68 100 -101 136q-100 -139 -200 -205.5t-218 -66.5q-164 0 -265 105t-101 245q0 107 62 194.5t236 199.5q-154 127 -154 262
q0 130 95.5 222t226.5 92q121 0 204.5 -79t83.5 -199q0 -44 -20.5 -84t-43.5 -62t-162 -122q169 -132 288 -268q35 47 68 119.5t33 104.5q0 29 -26 40t-93 16v78zM550 800q134 85 134 226q0 70 -42 122t-110 52q-67 0 -106.5 -43t-39.5 -117q0 -138 164 -240zM452 660
q-188 -115 -188 -278q0 -123 76.5 -195.5t185.5 -72.5q156 0 288 210q-131 170 -362 336z" />
    <glyph glyph-name="quotesingle" unicode="'" horiz-adv-x="372" 
d="M144 844q-68 498 -68 510q0 54 110 54t110 -54q0 -13 -70 -510q-10 -9 -40 -9q-31 0 -42 9z" />
    <glyph glyph-name="parenleft" unicode="(" horiz-adv-x="714" 
d="M548 -332q-207 146 -313.5 371.5t-106.5 506.5q0 271 103.5 499t316.5 377l56 -70q-138 -106 -219 -329t-81 -477q0 -255 81 -479t219 -331z" />
    <glyph glyph-name="parenright" unicode=")" horiz-adv-x="714" 
d="M166 1422q207 -146 313.5 -371.5t106.5 -504.5q0 -273 -103.5 -501t-316.5 -377l-56 68q139 109 219.5 332t80.5 478q0 258 -82 480.5t-218 325.5z" />
    <glyph glyph-name="asterisk" unicode="*" horiz-adv-x="916" 
d="M602 1294l-68 -294l292 -4v-86l-288 -38l92 -298l-82 -30l-140 284l-268 -174l-44 78l230 196l-238 212l52 72l260 -182l114 284z" />
    <glyph glyph-name="plus" unicode="+" horiz-adv-x="1272" 
d="M114 618h448v440h150v-440h446v-130h-446v-488h-150v488h-448v130z" />
    <glyph glyph-name="comma" unicode="," horiz-adv-x="470" 
d="M74 -196q166 71 166 186q0 53 -35 93.5t-93 56.5q-30 6 -30 56q0 43 32 72.5t76 29.5q77 0 143.5 -71.5t66.5 -180.5q0 -113 -77 -198.5t-215 -129.5z" />
    <glyph glyph-name="uni00AD" unicode="&#xad;" horiz-adv-x="692" 
d="M108 522h476v-138h-476v138z" />
    <glyph glyph-name="period" unicode="." horiz-adv-x="470" 
d="M366 116q0 -62 -38 -101t-94 -39q-55 0 -92.5 39.5t-37.5 100.5q0 62 37.5 101t92.5 39q57 0 94.5 -39.5t37.5 -100.5z" />
    <glyph glyph-name="slash" unicode="/" horiz-adv-x="636" 
d="M34 -92l408 1406h156l-408 -1406h-156z" />
    <glyph glyph-name="zero" unicode="0" horiz-adv-x="944" 
d="M72 624q0 282 104.5 464t295.5 182q190 0 294 -182.5t104 -465.5q0 -282 -104.5 -464t-293.5 -182q-191 0 -295.5 182t-104.5 466zM688 624q0 266 -54.5 408t-159.5 142q-106 0 -161 -142t-55 -408q0 -267 55 -409.5t161 -142.5q105 0 159.5 143t54.5 409z" />
    <glyph glyph-name="one" unicode="1" horiz-adv-x="944" 
d="M398 234v762q0 71 -17.5 80.5t-164.5 13.5v76q161 30 352 104v-1036q0 -103 26 -125t154 -31v-78h-528v78q124 9 151 27t27 129z" />
    <glyph glyph-name="two" unicode="2" horiz-adv-x="944" 
d="M790 0h-724v60q200 197 372 422t172 394q0 120 -54 187t-150 67q-140 0 -246 -180l-70 56l105 145q28 38 69.5 65t92 40.5t103.5 13.5q141 0 232.5 -92t91.5 -240q0 -122 -55.5 -232t-171.5 -246l-259 -302h302q79 0 109 21t65 107l84 -20q-35 -144 -68 -266z" />
    <glyph glyph-name="three" unicode="3" horiz-adv-x="944" 
d="M128 1042l75 110q18 25 59.5 55t92.5 46.5t105 16.5q132 0 212 -72t80 -184q0 -69 -47 -122.5t-149 -109.5v-4q129 -25 202.5 -115.5t73.5 -210.5q0 -136 -82 -244.5t-215 -170t-229 -61.5q-72 0 -146 35.5t-74 80.5q0 29 33 69.5t60 40.5q16 0 29 -12q59 -54 108 -71
t100 -17q94 0 164 81t70 221q0 134 -71.5 199t-170.5 65q-69 0 -140 -30l-24 78q332 107 332 268q0 79 -44.5 123.5t-121.5 44.5q-122 0 -212 -164z" />
    <glyph glyph-name="four" unicode="4" horiz-adv-x="944" 
d="M704 1256v-798h184v-106h-184v-130q0 -104 25.5 -120.5t138.5 -23.5v-78h-512v78q129 8 154.5 27.5t25.5 116.5v130h-492v64q364 592 548 840h112zM536 458v556h-4q-209 -330 -326 -556h330z" />
    <glyph glyph-name="five" unicode="5" horiz-adv-x="944" 
d="M242 1246h544l16 -20l-48 -138h-424l-40 -298q104 34 174 34q174 0 277 -104.5t103 -255.5q0 -201 -171.5 -344.5t-352.5 -143.5q-85 0 -154.5 36.5t-69.5 79.5q0 26 32 69t63 43q13 0 23 -10q97 -92 218 -92q103 0 170.5 81t67.5 199q0 148 -80.5 231t-241.5 83
q-90 0 -176 -30z" />
    <glyph glyph-name="six" unicode="6" horiz-adv-x="944" 
d="M820 1286l12 -88q-454 -91 -548 -466q154 72 183.5 79t56.5 7q150 0 248 -111.5t98 -280.5q0 -190 -113.5 -320t-286.5 -130t-286.5 137t-113.5 363q0 309 187 528t563 282zM450 692q-94 0 -182 -52q-12 -48 -12 -156q0 -190 68.5 -301t179.5 -111q188 0 188 284
q0 147 -65 241.5t-177 94.5z" />
    <glyph glyph-name="seven" unicode="7" horiz-adv-x="944" 
d="M130 1246h732l22 -30q-92 -186 -518 -1220l-180 -20l-18 28q244 414 534 1084h-356q-92 0 -115 -19.5t-51 -110.5h-86z" />
    <glyph glyph-name="eight" unicode="8" horiz-adv-x="944" 
d="M338 646q-206 105 -206 292q0 132 101 232t253 100q141 0 232.5 -87t91.5 -213q0 -55 -28 -113t-170 -157q136 -78 193 -162t57 -194q0 -161 -121.5 -264.5t-272.5 -103.5q-166 0 -274 93.5t-108 244.5q0 82 43 155t209 177zM530 740q120 80 120 218q0 98 -53.5 157
t-132.5 59q-78 0 -124 -51.5t-46 -126.5q0 -164 236 -256zM420 606q-166 -103 -166 -270q0 -123 68 -193.5t168 -70.5q93 0 148.5 59.5t55.5 162.5q0 96 -64 170.5t-210 141.5z" />
    <glyph glyph-name="nine" unicode="9" horiz-adv-x="944" 
d="M668 552q-177 -80 -197.5 -85t-38.5 -5q-152 0 -251 106.5t-99 269.5q0 168 111.5 300t282.5 132q176 0 283 -140.5t107 -355.5q0 -268 -124 -459.5t-304.5 -266t-305.5 -74.5l-10 82q210 28 354.5 159t191.5 337zM676 654q8 55 8 124q0 184 -60 291t-176 107
q-90 0 -139 -76.5t-49 -197.5q0 -136 68 -225t176 -89q87 0 172 66z" />
    <glyph glyph-name="colon" unicode=":" horiz-adv-x="470" 
d="M104 752q0 59 37.5 98.5t92.5 39.5q56 0 94 -39.5t38 -98.5q0 -64 -37.5 -103t-94.5 -39q-56 0 -93 39.5t-37 102.5zM368 116q0 -61 -37.5 -100.5t-94.5 -39.5q-55 0 -92.5 39.5t-37.5 100.5t37.5 100.5t92.5 39.5q56 0 94 -40t38 -100z" />
    <glyph glyph-name="semicolon" unicode=";" horiz-adv-x="470" 
d="M108 750q0 60 37.5 100t92.5 40q56 0 94 -40t38 -100q0 -61 -37.5 -100.5t-94.5 -39.5q-55 0 -92.5 39.5t-37.5 100.5zM74 -198q166 68 166 184q0 55 -35 95.5t-93 56.5q-30 10 -30 56q0 43 32 72.5t76 29.5q77 0 143.5 -71.5t66.5 -180.5q0 -113 -77.5 -198.5
t-216.5 -129.5z" />
    <glyph glyph-name="less" unicode="&#x3c;" horiz-adv-x="1272" 
d="M136 494v114l1000 494v-142l-848 -406v-6l848 -406v-142z" />
    <glyph glyph-name="equal" unicode="=" horiz-adv-x="1272" 
d="M114 816h1044v-130h-1044v130zM114 420h1044v-130h-1044v130z" />
    <glyph glyph-name="greater" unicode="&#x3e;" horiz-adv-x="1272" 
d="M1136 608v-114l-1000 -494v142l848 406v6l-848 406v142z" />
    <glyph glyph-name="question" unicode="?" horiz-adv-x="664" 
d="M328 376q-78 42 -137 115.5t-59 142.5q0 62 35.5 114.5t120.5 121.5q99 80 127.5 121.5t28.5 76.5q0 44 -26.5 71t-67.5 27q-78 0 -163 -65q-24 -19 -31 -19q-19 0 -48.5 33.5t-29.5 66.5q0 49 76.5 90.5t121.5 41.5q117 0 211.5 -98t94.5 -222q0 -102 -88 -184
q-194 -181 -194 -228q0 -66 82 -138zM440 116q0 -61 -37.5 -100.5t-94.5 -39.5q-55 0 -92.5 39.5t-37.5 100.5q0 59 37.5 98.5t92.5 39.5q56 0 94 -39.5t38 -98.5z" />
    <glyph glyph-name="at" unicode="@" horiz-adv-x="1454" 
d="M1034 146l32 -84q-158 -88 -372 -88q-269 0 -437.5 159t-168.5 435q0 325 226 535.5t528 210.5q243 0 390.5 -148t147.5 -364q0 -204 -130.5 -348t-325.5 -144q-96 0 -96 80q0 25 34 178l-4 2q-61 -90 -169.5 -175t-162.5 -85q-38 0 -64 42t-26 116q0 118 64 253t178 207
t230 72q18 0 65 -12q57 -14 105 -14q-22 -70 -65.5 -274.5t-43.5 -249.5q0 -40 36 -40q86 0 169.5 109.5t83.5 286.5q0 187 -116.5 296.5t-305.5 109.5q-258 0 -421 -171.5t-163 -440.5q0 -239 130 -376.5t380 -137.5q158 0 272 60zM926 888q-35 20 -106 20
q-89 0 -158.5 -143t-69.5 -241q0 -72 38 -72q11 0 35 13.5t58 43.5t83 88.5t65.5 101.5t31 95t23.5 94z" />
    <glyph glyph-name="A" unicode="A" horiz-adv-x="1318" 
d="M822 430h-384q-84 -252 -84 -295q0 -31 29.5 -41t104.5 -16v-78h-438v78q85 7 119.5 30.5t84.5 159.5l372 1022l84 24l212 -642q112 -334 152.5 -438t73.5 -127t120 -29v-78h-468v78q63 6 93 15t30 35q0 17 -34 121.5t-67 180.5zM472 538h316l-152 488h-4z" />
    <glyph glyph-name="B" unicode="B" horiz-adv-x="1160" 
d="M258 258v772q0 119 -24 145.5t-136 34.5v78h500q394 0 394 -288q0 -103 -66.5 -177.5t-177.5 -106.5v-4q150 -24 237 -113.5t87 -220.5q0 -122 -66.5 -207t-183 -128t-306.5 -43h-432v76q121 8 147.5 35t26.5 147zM428 1134v-394h102q274 0 274 238q0 220 -260 220
q-50 0 -76.5 -5.5t-33 -15.5t-6.5 -43zM428 652v-400q0 -103 33 -132.5t117 -29.5q142 0 218 68t76 200q0 142 -91 218t-255 76h-98z" />
    <glyph glyph-name="C" unicode="C" horiz-adv-x="1208" 
d="M1114 950l-86 -12q-53 280 -296 280q-198 0 -313 -150.5t-115 -399.5q0 -273 118.5 -436.5t305.5 -163.5q119 0 193.5 68t144.5 236l86 -20q-68 -268 -94 -328q-169 -50 -320 -50q-300 0 -470 185.5t-170 466.5q0 304 191.5 496t486.5 192q149 0 304 -44q20 -143 34 -320
z" />
    <glyph glyph-name="D" unicode="D" horiz-adv-x="1368" 
d="M256 256v774q0 119 -25 145.5t-137 34.5v78h486q367 0 528.5 -170t161.5 -426q0 -330 -202.5 -511t-577.5 -181h-410v76q123 9 149.5 35t26.5 145zM432 1124v-854q0 -110 34 -140t128 -30q227 0 350.5 146.5t123.5 407.5q0 544 -502 544q-103 0 -118.5 -13.5t-15.5 -60.5
z" />
    <glyph glyph-name="E" unicode="E" horiz-adv-x="1124" 
d="M258 258v774q0 85 -10 118t-41 44t-113 18v76h864q19 -264 22 -296l-86 -10q-27 128 -67 170t-181 42h-152q-50 0 -55 -12t-5 -50v-412h174q87 0 120 8t44 33t22 97h86v-388h-86q-13 78 -25.5 105.5t-44.5 36t-116 8.5h-174v-348q0 -84 18 -123t62.5 -48t153.5 -9
q80 0 127 7t74.5 26.5t61.5 77.5t57 133l84 -14q-39 -228 -66 -322h-928v78q92 7 125.5 17.5t44 43.5t10.5 119z" />
    <glyph glyph-name="F" unicode="F" horiz-adv-x="1046" 
d="M258 254v780q0 117 -25 143t-139 35v76h856q14 -204 22 -300l-84 -8q-29 140 -74 178t-176 38h-142q-44 0 -53 -9t-9 -53v-436h190q87 0 119.5 8t44 33t22.5 97h86v-392h-86q-11 80 -22.5 108t-44 37t-119.5 9h-190v-344q0 -84 12 -116t49 -42.5t137 -17.5v-78h-538v78
q114 8 139 33.5t25 142.5z" />
    <glyph glyph-name="G" unicode="G" horiz-adv-x="1294" 
d="M1128 400v-168q0 -122 10 -188q-228 -70 -374 -70q-298 0 -481 180t-183 476q0 206 87.5 361t246 239t346.5 84q166 0 322 -44q17 -206 32 -318l-86 -8q-21 131 -90 203.5t-214 72.5q-196 0 -317 -148t-121 -410q0 -266 123.5 -430t346.5 -164q73 0 113.5 11t51.5 34.5
t11 84.5v178q0 70 -10.5 96t-49.5 36.5t-146 19.5v78h494v-78q-80 -12 -96 -29.5t-16 -98.5z" />
    <glyph glyph-name="H" unicode="H" horiz-adv-x="1442" 
d="M428 732h574v298q0 119 -24.5 145.5t-135.5 34.5v78h506v-78q-118 -8 -144 -34.5t-26 -145.5v-772q0 -119 25.5 -145.5t142.5 -34.5v-78h-518v78q88 5 120.5 16.5t43 44.5t10.5 119v368h-574v-368q0 -86 10 -119t41 -44.5t113 -16.5v-78h-508v78q84 5 116 16.5t42 44.5
t10 119v772q0 119 -26.5 145.5t-149.5 34.5v78h508v-78q-108 -8 -132 -34.5t-24 -145.5v-298z" />
    <glyph glyph-name="I" unicode="I" horiz-adv-x="692" 
d="M258 258v772q0 119 -26 145.5t-144 34.5v78h516v-78q-118 -8 -144 -34.5t-26 -145.5v-772q0 -86 10 -119t42.5 -44.5t117.5 -16.5v-78h-516v78q85 5 117.5 16.5t42.5 44.5t10 119z" />
    <glyph glyph-name="J" unicode="J" horiz-adv-x="682" 
d="M268 336v694q0 119 -26.5 145.5t-149.5 34.5v78h514v-78q-112 -8 -137 -34.5t-25 -145.5v-778q0 -142 -18.5 -240.5t-71 -173.5t-131 -118.5t-145.5 -59.5l-30 82q136 55 178 175t42 419z" />
    <glyph glyph-name="K" unicode="K" horiz-adv-x="1316" 
d="M258 254v778q0 84 -10.5 117.5t-43 44.5t-118.5 16v78h510v-78q-114 -8 -139 -34t-25 -144v-324q43 6 89 40.5t141 147t148 185.5t53 92q0 11 -11.5 20t-87.5 17v78h480v-78q-91 -6 -146 -30.5t-94.5 -61t-170 -175.5t-185.5 -205q93 -138 240.5 -327t194 -238.5
t86.5 -70t99 -24.5v-78h-298q-58 67 -253 338q-156 217 -187.5 254.5t-97.5 37.5v-376q0 -117 26 -142.5t148 -33.5v-78h-508v78q111 8 135.5 33.5t24.5 142.5z" />
    <glyph glyph-name="L" unicode="L" horiz-adv-x="1072" 
d="M258 256v774q0 119 -26.5 145.5t-147.5 34.5v78h526v-78q-123 -8 -149.5 -34.5t-26.5 -145.5v-760q0 -127 42 -152.5t180 -25.5q82 0 131 14t86.5 70t68.5 162l86 -12q-35 -219 -66 -326h-878v76q122 9 148 35t26 145z" />
    <glyph glyph-name="M" unicode="M" horiz-adv-x="1682" 
d="M112 1288h360l362 -958l394 958h364v-78q-90 -7 -121 -18t-38 -42t-7 -140l12 -720q2 -108 11.5 -145.5t39.5 -48.5t121 -18v-78h-516v78q93 7 123 18t38.5 48t8.5 146v820h-6l-432 -1088h-70l-372 1072h-4q-25 -725 -25 -801q0 -115 12.5 -149.5t49 -48t117.5 -17.5v-78
h-472v78q104 5 134.5 45.5t57 474.5t26.5 487q0 90 -37.5 105t-130.5 20v78z" />
    <glyph glyph-name="N" unicode="N" horiz-adv-x="1390" 
d="M254 510v422q0 138 -10 180.5t-54.5 67.5t-135.5 30v78h300l684 -964h6v448q0 341 -34 386.5t-164 51.5v78h488v-78q-135 -3 -156.5 -71t-21.5 -367v-786h-98l-686 986h-6v-462q0 -296 22 -362.5t178 -69.5v-78h-484v78q130 2 151 70.5t21 361.5z" />
    <glyph glyph-name="O" unicode="O" horiz-adv-x="1354" 
d="M100 632q0 281 163.5 481.5t430.5 200.5q234 0 397 -184t163 -468q0 -310 -164.5 -499t-419.5 -189q-247 0 -408.5 186.5t-161.5 471.5zM1048 592q0 310 -102.5 469t-291.5 159q-159 0 -251.5 -139.5t-92.5 -394.5q0 -282 105.5 -450t290.5 -168q165 0 253.5 134
t88.5 390z" />
    <glyph glyph-name="P" unicode="P" horiz-adv-x="1108" 
d="M258 258v772q0 88 -8 120t-38 43.5t-114 16.5v78h482q228 0 336 -96t108 -266q0 -191 -125.5 -305.5t-332.5 -114.5l-134 32v-280q0 -119 30 -145.5t168 -34.5v-78h-542v78q85 5 117.5 16.5t42.5 44.5t10 119zM432 1132v-490q67 -32 140 -32q115 0 185.5 77.5t70.5 226.5
q0 284 -284 284q-77 0 -94.5 -11.5t-17.5 -54.5z" />
    <glyph glyph-name="Q" unicode="Q" horiz-adv-x="1354" 
d="M1340 -260l-16 -62q-210 17 -283.5 45t-183 94.5t-237.5 158.5q-103 0 -226.5 75t-208.5 227.5t-85 353.5q0 281 163 481.5t431 200.5q233 0 396.5 -185t163.5 -467q0 -244 -102.5 -415.5t-287.5 -238.5q203 -160 476 -268zM630 72l96 40l52 -38q268 66 268 518
q0 304 -103.5 466t-292.5 162q-156 0 -249 -140t-93 -394q0 -256 85 -419t237 -195z" />
    <glyph glyph-name="R" unicode="R" horiz-adv-x="1256" 
d="M258 256v774q0 85 -10 118t-41 44t-113 18v78h482q432 0 432 -328q0 -233 -232 -346q205 -351 295.5 -449.5t160.5 -112.5l-8 -68q-149 0 -228 35t-150.5 133.5t-201.5 337.5q-34 66 -132 66h-80v-300q0 -84 10.5 -117.5t42.5 -44.5t117 -16v-78h-518v78q122 8 148 33.5
t26 144.5zM432 1128v-482h94q105 0 165 30.5t94.5 99t34.5 152.5q0 130 -76 200t-200 70q-37 0 -64 -4.5t-37.5 -13.5t-10.5 -52z" />
    <glyph glyph-name="S" unicode="S" horiz-adv-x="974" 
d="M90 360l84 14q97 -306 318 -306q103 0 162.5 59.5t59.5 164.5q0 88 -49 154.5t-193 137.5q-192 94 -259 184t-67 190q0 152 110.5 254t289.5 102q115 0 252 -48l38 -282l-86 -12q-35 139 -92 192.5t-148 53.5t-143.5 -53.5t-52.5 -140.5q0 -93 58 -152.5t180 -115.5
q199 -91 266.5 -186t67.5 -210q0 -169 -122 -277.5t-310 -108.5q-141 0 -306 68q-14 46 -58 318z" />
    <glyph glyph-name="T" unicode="T" horiz-adv-x="1192" 
d="M506 276v918h-92q-136 0 -179 -38.5t-75 -179.5h-84l22 362h52q29 -50 100 -50h700q34 0 50.5 8.5t41.5 41.5h52q2 -109 20 -356l-86 -6q-26 144 -69.5 181t-172.5 37h-104v-918q0 -95 11.5 -131.5t49.5 -49t139 -17.5v-78h-568v78q97 5 133.5 17.5t47.5 49t11 131.5z
" />
    <glyph glyph-name="U" unicode="U" horiz-adv-x="1398" 
d="M242 506v528q0 116 -26.5 143t-147.5 33v78h516v-78q-115 -8 -140.5 -34t-25.5 -142v-458q0 -158 31.5 -263t99.5 -159t191 -54q171 0 247.5 136.5t76.5 409.5v118q0 334 -25 388t-175 58v78h490v-78q-137 0 -157.5 -71t-20.5 -375v-152q0 -366 -140 -502t-336 -136
q-226 0 -342 124t-116 408z" />
    <glyph glyph-name="V" unicode="V" horiz-adv-x="1356" 
d="M704 -8h-96l-284 824q-78 221 -97.5 272.5t-38.5 74.5t-48 32.5t-90 14.5v78h478v-78q-66 -6 -99.5 -15t-33.5 -36q0 -9 20 -70l103 -309l176 -500h4q152 399 225 623t73 251q0 31 -34 41t-108 15v78h452v-78q-67 -5 -100 -16.5t-57.5 -43.5t-78.5 -175l-166 -435z" />
    <glyph glyph-name="W" unicode="W" horiz-adv-x="1848" 
d="M612 -8h-94l-169 632q-118 432 -132 479t-41.5 73.5t-125.5 33.5v78h480v-78q-70 -6 -104.5 -15.5t-34.5 -40.5q0 -16 84 -340l129 -508h4q110 376 298 962h90q186 -614 282 -960h4q58 194 134.5 489t76.5 347q0 36 -30 47t-103 19v78h438v-78q-86 -9 -115.5 -25
t-52.5 -72.5t-117 -365.5l-217 -755h-94l-286 954h-4z" />
    <glyph glyph-name="X" unicode="X" horiz-adv-x="1270" 
d="M64 1288h488v-78q-56 -6 -79.5 -14t-23.5 -27q0 -16 55.5 -116t147.5 -239q184 309 184 351q0 22 -22.5 31.5t-73.5 13.5v78h442v-78q-101 -9 -143 -29t-117 -125t-214 -334q298 -502 351 -569.5t197 -74.5v-78h-512v78q56 5 82.5 13.5t26.5 27.5q0 13 -37 82l-210 349
q-59 -94 -138 -235.5t-88.5 -163t-9.5 -31.5q0 -19 25 -28t79 -14v-78h-444v78q133 8 181 62.5t337 513.5q-257 431 -300 490t-184 66v78z" />
    <glyph glyph-name="Y" unicode="Y" horiz-adv-x="1226" 
d="M518 254v252q0 48 -20 88l-147 272q-112 214 -138.5 257t-57 60.5t-105.5 26.5v78h464v-78q-61 -6 -90 -14.5t-29 -29.5q0 -14 10 -37l95 -183q85 -161 140 -256q222 430 222 472q0 25 -32.5 34t-101.5 14v78h448v-78q-70 -7 -106 -22.5t-64.5 -52t-86 -136t-129.5 -237
t-84 -166t-12 -70.5v-272q0 -117 29.5 -142.5t166.5 -33.5v-78h-558v78q130 8 158 33.5t28 142.5z" />
    <glyph glyph-name="Z" unicode="Z" horiz-adv-x="1144" 
d="M336 1288h694l18 -32l-732 -1152q113 -12 286 -12q114 0 193 16t122 62.5t93 181.5l86 -16q-52 -283 -68 -336h-940l-20 38l740 1156h-256q-170 0 -220.5 -39.5t-83.5 -190.5l-86 2q18 273 22 372h54q18 -33 35 -41.5t63 -8.5z" />
    <glyph glyph-name="bracketleft" unicode="[" horiz-adv-x="714" 
d="M218 -320v1730h354v-82q-130 -10 -153 -20t-35 -29.5t-12 -118.5v-1230q0 -99 12 -118.5t35 -29.5t153 -20v-82h-354z" />
    <glyph glyph-name="backslash" unicode="\" horiz-adv-x="628" 
d="M430 -92l-388 1406h156l388 -1406h-156z" />
    <glyph glyph-name="bracketright" unicode="]" horiz-adv-x="714" 
d="M496 1410v-1730h-354v82q126 8 154.5 19t38 33.5t9.5 113.5v1232q0 99 -11 118t-33.5 29.5t-157.5 20.5v82h354z" />
    <glyph glyph-name="asciicircum" unicode="^" horiz-adv-x="1272" 
d="M180 350l396 896h120l396 -896h-156l-304 734l-304 -734h-148z" />
    <glyph glyph-name="underscore" unicode="_" horiz-adv-x="1000" 
d="M0 -150h1000v-100h-1000v100z" />
    <glyph glyph-name="grave" unicode="`" 
d="M496 1002l-211 185q-84 74 -91.5 86.5t-7.5 24.5q0 26 52.5 53.5t67.5 27.5q14 0 26 -8.5t78 -101.5l150 -215z" />
    <glyph glyph-name="a" unicode="a" horiz-adv-x="954" 
d="M760 670v-436q0 -116 60 -116q26 0 76 24l28 -72l-194 -94q-30 0 -69.5 29.5t-60.5 92.5q-180 -122 -248 -122q-106 0 -180 77.5t-74 184.5q0 69 30.5 119t77.5 76.5t173 74.5q195 75 215 98v36q0 88 -43 136t-117 48q-40 0 -82 -29t-78 -143q-16 -50 -62 -50
q-33 0 -65.5 27.5t-32.5 60.5q0 23 11.5 41.5t35.5 39.5t55 41t76 43.5t110.5 48t89.5 24.5q114 0 191 -65t77 -195zM594 198v304q-209 -94 -238 -110t-51.5 -47.5t-22.5 -82.5q0 -68 44 -110t96 -42q79 0 172 88z" />
    <glyph glyph-name="b" unicode="b" horiz-adv-x="1074" 
d="M162 46v1098q0 75 -7.5 101.5t-32.5 34t-98 10.5v76q185 25 306 72v-588q161 61 190.5 70.5t57.5 9.5q167 0 284.5 -126.5t117.5 -305.5q0 -221 -151 -371.5t-365 -150.5q-154 0 -302 70zM330 762v-518q0 -54 17.5 -82.5t62.5 -55t119 -26.5q115 0 189 96.5t74 265.5
q0 171 -82.5 268.5t-215.5 97.5q-82 0 -164 -46z" />
    <glyph glyph-name="c" unicode="c" horiz-adv-x="880" 
d="M838 170q-72 -88 -163.5 -141t-172.5 -53q-179 0 -293.5 127t-114.5 307q0 143 74.5 264t201.5 188.5t240 67.5q57 0 131.5 -26.5t74.5 -89.5q0 -31 -28 -66.5t-50 -35.5q-20 0 -34 16q-84 84 -204 84q-94 0 -161 -82.5t-67 -235.5q0 -120 37.5 -203.5t104.5 -126
t144 -42.5q69 0 119 26.5t105 83.5z" />
    <glyph glyph-name="d" unicode="d" horiz-adv-x="1098" 
d="M910 1438v-1186q0 -65 9 -87t28.5 -26t116.5 -9v-76q-213 -38 -322 -78v120q-171 -96 -200.5 -108t-65.5 -12q-146 0 -268 124t-122 320q0 210 153 360t375 150q74 0 128 -20v242q0 82 -9.5 100t-30.5 25.5t-114 10.5v78q169 24 322 72zM742 194v554q-56 80 -200 80
q-104 0 -185 -89t-81 -265q0 -168 80 -264t194 -96q90 0 192 80z" />
    <glyph glyph-name="e" unicode="e" horiz-adv-x="906" 
d="M820 156q-78 -90 -166.5 -135t-153.5 -45q-181 0 -293.5 126.5t-112.5 317.5q0 215 132 362.5t294 147.5q128 0 222 -98.5t94 -229.5q0 -47 -9 -65t-37.5 -24t-194.5 -17.5t-335 -17.5q7 -170 94 -261t208 -91q113 0 204 96zM482 834q-73 0 -133 -66t-75 -184l330 6
q33 0 42.5 11.5t9.5 42.5q0 80 -50 135t-124 55z" />
    <glyph glyph-name="f" unicode="f" horiz-adv-x="626" 
d="M216 224v586h-132l-12 30l54 66h90v24q0 146 61.5 262.5t169.5 181t155 64.5q65 0 123 -36t58 -74q0 -25 -24 -59t-51 -34q-16 0 -34 15q-70 58 -154 58q-81 0 -108.5 -90.5t-27.5 -265.5v-46h228q6 -9 6 -25q0 -47 -28 -71h-206v-586q0 -96 24.5 -116.5t147.5 -31.5v-76
h-476v78q95 9 115.5 30t20.5 116z" />
    <glyph glyph-name="g" unicode="g" horiz-adv-x="980" 
d="M302 320q-79 32 -129.5 105t-50.5 159q0 162 113 254t249 92q38 0 71 -6t64 -18l61 -26q71 0 266 26l12 -20q-35 -81 -80 -110l-104 8q48 -74 48 -166q0 -147 -106 -237.5t-250 -90.5l-62 4q-11 0 -49.5 -31.5t-38.5 -60.5q0 -68 116 -68l214 4q136 0 215 -62.5
t79 -183.5q0 -172 -150 -287t-360 -115q-164 0 -263 79.5t-99 184.5q0 82 73 144.5l131 109.5q-158 59 -158 184q122 54 188 128zM652 598q0 113 -48.5 177.5t-131.5 64.5q-75 0 -120.5 -54.5t-45.5 -157.5q0 -113 51.5 -179.5t136.5 -66.5q70 0 114 56t44 160zM798 -170
q0 86 -65 128t-227 42q-132 0 -198 -65.5t-66 -132.5q0 -90 74.5 -145t195.5 -55q127 0 206.5 67t79.5 161z" />
    <glyph glyph-name="h" unicode="h" horiz-adv-x="1102" 
d="M188 226v916q0 75 -8 102t-34 34.5t-102 11.5v76q108 12 312 72v-634q137 126 286 126q126 0 199 -83t73 -227v-396q0 -97 20 -117.5t114 -28.5v-78h-428v78q89 9 107.5 30t18.5 118v336q0 124 -46 181t-144 57q-47 0 -103 -24.5t-97 -73.5v-476q0 -96 20 -117.5
t108 -30.5v-78h-434v78q96 9 117 30t21 118z" />
    <glyph glyph-name="i" unicode="i" horiz-adv-x="576" 
d="M220 228v390q0 77 -7 105t-30 37.5t-93 19.5v68q163 29 298 82v-702q0 -99 21 -120t121 -30v-78h-450v78q98 9 119 30.5t21 119.5zM186 1266q0 50 34 85t82 35q50 0 84 -34.5t34 -85.5q0 -50 -34 -85t-84 -35q-48 0 -82 35.5t-34 84.5z" />
    <glyph glyph-name="j" unicode="j" horiz-adv-x="556" 
d="M188 1266q0 51 34 85.5t82 34.5q50 0 84 -34.5t34 -85.5q0 -50 -34 -85t-84 -35q-48 0 -82 35.5t-34 84.5zM222 254v374q0 100 -19.5 120t-120.5 32v68q186 33 308 82v-694q0 -159 -29 -276t-101.5 -245t-122 -176.5t-87.5 -48.5q-25 0 -52.5 28t-27.5 66q0 53 44 66
q101 27 132 64t53.5 157t22.5 383z" />
    <glyph glyph-name="k" unicode="k" horiz-adv-x="1060" 
d="M188 226v916q0 73 -8 100t-33.5 34.5t-98.5 11.5v78q158 20 308 72v-922q71 14 109.5 48t99.5 122t61 104q0 26 -58 28v78l412 20v-76q-103 -15 -170.5 -52.5t-241.5 -251.5q38 -60 176.5 -221t189 -197.5t114.5 -39.5v-78h-264l-226 279q-113 138 -131.5 149.5
t-38.5 11.5q-5 0 -32 -6v-208q0 -97 22 -118t122 -30v-78h-468v78q109 9 132.5 30t23.5 118z" />
    <glyph glyph-name="l" unicode="l" horiz-adv-x="546" 
d="M188 226v918q0 74 -7.5 100t-33 34t-99.5 12v76q97 10 308 72v-1212q0 -98 21 -118.5t123 -29.5v-78h-456v78q100 9 122 30t22 118z" />
    <glyph glyph-name="m" unicode="m" horiz-adv-x="1680" 
d="M220 224v402q0 105 -15.5 124.5t-106.5 31.5v68q175 32 288 82v-148q79 62 159 104t155 42q68 0 130.5 -40.5t89.5 -107.5q94 72 167.5 110t144.5 38q119 0 189.5 -77t70.5 -205v-422q0 -95 20 -117t106 -31v-78h-424v78q90 9 110 29.5t20 112.5v354q0 111 -39.5 167.5
t-134.5 56.5q-90 0 -212 -110l2 -50v-412q0 -109 25.5 -125.5t96.5 -22.5v-78h-426v78q93 9 114.5 30.5t21.5 117.5v354q0 115 -40 166.5t-128 51.5q-92 0 -216 -114v-458q0 -96 17.5 -117.5t96.5 -30.5v-78h-430v78q104 9 126 29.5t22 116.5z" />
    <glyph glyph-name="n" unicode="n" horiz-adv-x="1128" 
d="M220 224v410q0 98 -17 117.5t-105 30.5v68q171 32 290 82v-144q178 142 290 142q122 0 192 -75.5t70 -202.5v-426q0 -96 20 -117.5t106 -30.5v-78h-414v78q83 9 101.5 29t18.5 109v356q0 118 -39.5 172t-124.5 54q-103 0 -220 -116v-456q0 -97 19 -118t105 -30v-78h-436
v78q85 6 114.5 24t29.5 122z" />
    <glyph glyph-name="o" unicode="o" horiz-adv-x="1058" 
d="M92 426q0 152 59 266t162.5 176t216.5 62q188 0 310 -132.5t122 -331.5q0 -221 -128 -355.5t-304 -134.5q-194 0 -316 133.5t-122 316.5zM770 418q0 198 -67.5 307t-194.5 109q-103 0 -161.5 -85t-58.5 -241q0 -202 72 -319t196 -117q115 0 164.5 85t49.5 261z" />
    <glyph glyph-name="p" unicode="p" horiz-adv-x="1098" 
d="M202 -260v898q0 105 -17.5 124.5t-114.5 27.5v70q65 9 300 90v-134q211 100 228.5 107t49.5 7q156 0 257 -117t101 -279q0 -90 -25 -171t-74 -150t-120.5 -121.5t-160.5 -84t-122 -31.5q-22 0 -64 10t-70 28v-286q0 -91 25.5 -110.5t152.5 -27.5v-76h-494v76
q103 8 125.5 29.5t22.5 120.5zM370 722v-542q68 -80 192 -80q107 0 183.5 94t76.5 268q0 161 -67.5 247.5t-188.5 86.5q-41 0 -97 -20.5t-99 -53.5z" />
    <glyph glyph-name="q" unicode="q" horiz-adv-x="1074" 
d="M916 688v-950q0 -97 21.5 -118.5t120.5 -29.5v-76h-484v76q125 8 149.5 27.5t24.5 112.5v320l-206 -74q-206 0 -327 129t-121 303q0 220 162 371t396 151q24 0 124 -30q45 -12 58 -12q19 0 72 24l16 -6q-6 -118 -6 -218zM748 146v606q-71 70 -194 70q-112 0 -191 -92
t-79 -250q0 -179 89.5 -278.5t228.5 -99.5q72 0 146 44z" />
    <glyph glyph-name="r" unicode="r" horiz-adv-x="790" 
d="M220 226v402q0 103 -17 123.5t-109 32.5v68q168 32 294 80v-212h4q51 96 117.5 153t128.5 57q48 0 83 -34t35 -74q0 -50 -31 -83t-64 -33q-19 0 -29 12q-38 38 -80 38q-29 0 -62.5 -26.5t-67.5 -88t-34 -81.5v-336q0 -96 24 -116.5t144 -29.5v-78h-476v78q98 9 119 30
t21 118z" />
    <glyph glyph-name="s" unicode="s" horiz-adv-x="818" 
d="M694 662l-80 -18q-74 192 -198 192q-56 0 -91 -34.5t-35 -87.5q0 -97 172 -166q264 -103 264 -290q0 -127 -104 -204.5t-244 -77.5q-49 0 -97 11t-86.5 28.5t-62.5 35.5q-14 11 -26 105q-8 68 -8 150l76 14q27 -109 94 -179.5t146 -70.5q59 0 99.5 35t40.5 93
q0 120 -158 186q-140 57 -200 123t-60 149q0 117 91 195.5t233 78.5q96 0 180 -38q31 -61 54 -230z" />
    <glyph glyph-name="t" unicode="t" horiz-adv-x="650" 
d="M202 226v584h-136l-14 30l58 66h92v132l130 134l38 -2v-264h216q10 -13 10 -36q0 -40 -24 -60h-202v-524q0 -186 108 -186q50 0 114 28l26 -74q-140 -60 -167.5 -69t-58.5 -9q-91 0 -140.5 64.5t-49.5 185.5z" />
    <glyph glyph-name="u" unicode="u" horiz-adv-x="1110" 
d="M752 214v468q0 58 -10.5 82t-32.5 30t-113 16v72q221 12 324 36v-688q0 -69 15.5 -87.5t66.5 -18.5h64v-76q-92 -10 -298 -72l-16 12v124q-170 -136 -300 -136q-118 0 -184 76.5t-66 221.5v406q0 57 -9 81t-26.5 30t-88.5 17v72q97 4 298 38q-6 -91 -6 -294v-294
q0 -110 40 -165t130 -55q94 0 212 104z" />
    <glyph glyph-name="v" unicode="v" horiz-adv-x="968" 
d="M524 -14h-90l-158 456q-95 265 -109 299.5t-38 56.5t-111 30v78h416v-78q-48 -2 -70 -11.5t-22 -34.5q0 -18 11 -49l71 -213l92 -286q143 383 166.5 454t23.5 88q0 25 -22 35.5t-72 16.5v78h374v-78q-60 -5 -90 -19t-51.5 -52t-128 -287.5t-192.5 -483.5z" />
    <glyph glyph-name="w" unicode="w" horiz-adv-x="1370" 
d="M466 -14h-90l-126 436q-67 232 -89 297.5t-47 83t-94 25.5v78h420v-78q-59 -8 -84 -20t-25 -42q0 -19 37 -157l92 -363h4l226 650h84l208 -650h4q140 471 140 524q0 32 -27.5 41.5t-90.5 16.5v78h382v-78q-66 -9 -90 -28.5t-42.5 -63.5t-104.5 -290t-153 -460h-90
l-214 650z" />
    <glyph glyph-name="x" unicode="x" horiz-adv-x="982" 
d="M58 906h410v-78q-65 -9 -65 -39q0 -16 15 -41l100 -162q99 167 105.5 185t6.5 27q0 23 -56 30v78h374v-78q-63 -3 -112.5 -18t-120.5 -107.5t-141 -204.5q198 -307 218.5 -335t54.5 -50.5t135 -34.5v-78h-442v78q80 12 80 38q0 15 -19 44l-123 194q-131 -200 -131 -235
q0 -29 71 -41v-78h-386v78q88 11 123 30t74 68.5t95 127t98 142.5q-173 280 -191.5 307.5t-55 46.5t-117.5 28v78z" />
    <glyph glyph-name="y" unicode="y" horiz-adv-x="958" 
d="M26 906h420v-78q-49 -7 -71 -18.5t-22 -36.5q0 -12 43 -145l124 -380q195 472 195 526q0 25 -26 36t-79 18v78h390v-78q-75 -12 -103.5 -31.5t-69 -93.5t-150 -328.5l-201 -483.5t-122.5 -347q-13 -54 -76 -54q-48 0 -88 35.5t-40 74.5q0 46 50 78q78 54 147 175t69 173
q0 23 -26 100l-83 245l-92.5 267t-51.5 127t-46.5 43t-90.5 20v78z" />
    <glyph glyph-name="z" unicode="z" horiz-adv-x="884" 
d="M314 906h470l20 -30l-490 -782h186q96 0 151 24.5t121 163.5l82 -30q-41 -134 -88 -252h-670l-18 30l165 258l327 524h-168q-63 0 -99.5 -16.5t-58 -49t-62.5 -126.5l-82 26q37 140 66 304h46q13 -44 102 -44z" />
    <glyph glyph-name="braceleft" unicode="{" horiz-adv-x="716" 
d="M128 502v84q78 6 116 31.5t48 58.5t10 78q0 22 -14 176q-12 144 -12 240q0 125 72.5 188.5t237.5 63.5v-82q-70 -9 -114 -45.5t-44 -124.5q0 -43 14 -174l22 -218q0 -187 -154 -228v-8q154 -41 154 -234q0 -11 -22 -216q-14 -135 -14 -172q0 -90 44 -127t114 -45v-82
q-169 0 -239.5 64t-70.5 188q0 96 12 240q14 154 14 178q0 44 -10 76.5t-48 58t-116 31.5z" />
    <glyph glyph-name="bar" unicode="|" horiz-adv-x="514" 
d="M180 -500v2000h156v-2000h-156z" />
    <glyph glyph-name="braceright" unicode="}" horiz-adv-x="716" 
d="M590 586l-2 -84q-78 -6 -116 -31.5t-48 -58t-10 -76.5q0 -24 14 -178q12 -142 12 -238q0 -125 -71 -189.5t-239 -64.5v82q70 9 114 45.5t44 124.5q0 43 -14 174q-22 205 -22 216q0 191 154 232v8q-154 41 -154 232l22 218q14 135 14 172q0 88 -43.5 125.5t-114.5 46.5v82
q166 0 238 -63.5t72 -188.5q0 -96 -12 -240q-14 -154 -14 -178q0 -45 10 -78t48.5 -58.5t117.5 -31.5z" />
    <glyph glyph-name="asciitilde" unicode="~" horiz-adv-x="1272" 
d="M1068 716l90 -76q-113 -204 -298 -204q-107 0 -268 86q-93 48 -156 48q-113 0 -206 -150l-88 78q138 206 308 206q51 0 98.5 -12t149.5 -64q109 -56 184 -56q109 0 186 144z" />
    <glyph glyph-name="Adieresis" unicode="&#xc4;" horiz-adv-x="1318" 
d="M822 430h-384q-84 -252 -84 -295q0 -31 29.5 -41t104.5 -16v-78h-438v78q85 7 119.5 30.5t84.5 159.5l372 1022l84 24l212 -642q112 -334 152.5 -438t73.5 -127t120 -29v-78h-468v78q63 6 93 15t30 35q0 17 -34 121.5t-67 180.5zM472 538h316l-152 488h-4zM978 1538
q0 -51 -33 -83.5t-83 -32.5q-52 0 -85 32.5t-33 83.5t34 87.5t84 36.5q48 0 82 -37t34 -87zM574 1538q0 -50 -33 -83t-83 -33q-53 0 -86.5 32.5t-33.5 83.5t34 87.5t86 36.5q48 0 82 -37t34 -87z" />
    <glyph glyph-name="Aring" unicode="&#xc5;" horiz-adv-x="1318" 
d="M822 430h-384q-84 -252 -84 -295q0 -31 29.5 -41t104.5 -16v-78h-438v78q85 7 119.5 30.5t84.5 159.5l372 1022l84 24l212 -642q112 -334 152.5 -438t73.5 -127t120 -29v-78h-468v78q63 6 93 15t30 35q0 17 -34 121.5t-67 180.5zM472 538h316l-152 488h-4zM445 1612
q0 88 63 144t151 56t151 -56t63 -144q0 -90 -63.5 -148t-150.5 -58t-150.5 58t-63.5 148zM767 1610q0 53 -29 84.5t-77 31.5t-77 -31.5t-29 -82.5q0 -52 29.5 -86t76.5 -34q46 0 76 33.5t30 84.5z" />
    <glyph glyph-name="Ccedilla" unicode="&#xc7;" horiz-adv-x="1208" 
d="M1068 372l88 -20q-79 -286 -98 -328q-122 -37 -258 -46q-41 -61 -41 -72q0 -15 25 -44q72 -78 72 -142q0 -126 -224 -212l-36 68q120 59 120 126q0 26 -42 68q-43 46 -43 77q0 13 5.5 27t67.5 102q-293 15 -449.5 197.5t-156.5 452.5q0 301 192.5 494.5t487.5 193.5
q120 0 304 -44l34 -320l-86 -10q-54 278 -296 278q-199 0 -314.5 -150.5t-115.5 -399.5q0 -276 120.5 -438t307.5 -162q118 0 193 69t143 235z" />
    <glyph glyph-name="Eacute" unicode="&#xc9;" horiz-adv-x="1124" 
d="M258 258v774q0 85 -10 118t-41 44t-113 18v76h864q19 -264 22 -296l-86 -10q-27 128 -67 170t-181 42h-152q-50 0 -55 -12t-5 -50v-412h174q87 0 120 8t44 33t22 97h86v-388h-86q-13 78 -25.5 105.5t-44.5 36t-116 8.5h-174v-348q0 -84 18 -123t62.5 -48t153.5 -9
q80 0 127 7t74.5 26.5t61.5 77.5t57 133l84 -14q-39 -228 -66 -322h-928v78q92 7 125.5 17.5t44 43.5t10.5 119zM478 1448l226 140q104 65 111.5 68t15.5 3q27 0 62.5 -47.5t35.5 -62.5q0 -14 -11.5 -22t-130.5 -50l-271 -95z" />
    <glyph glyph-name="Ntilde" unicode="&#xd1;" horiz-adv-x="1390" 
d="M254 510v422q0 138 -10 180.5t-54.5 67.5t-135.5 30v78h300l684 -964h6v448q0 341 -34 386.5t-164 51.5v78h488v-78q-135 -3 -156.5 -71t-21.5 -367v-786h-98l-686 986h-6v-462q0 -296 22 -362.5t178 -69.5v-78h-484v78q130 2 151 70.5t21 361.5zM403 1474
q87 150 184 150q41 0 132 -38q72 -30 112 -30q48 0 96 84l76 -44q-72 -158 -190 -158q-37 0 -152 46q-59 22 -86 22q-49 0 -98 -86z" />
    <glyph glyph-name="Odieresis" unicode="&#xd6;" horiz-adv-x="1354" 
d="M100 632q0 281 163.5 481.5t430.5 200.5q234 0 397 -184t163 -468q0 -310 -164.5 -499t-419.5 -189q-247 0 -408.5 186.5t-161.5 471.5zM1048 592q0 310 -102.5 469t-291.5 159q-159 0 -251.5 -139.5t-92.5 -394.5q0 -282 105.5 -450t290.5 -168q165 0 253.5 134
t88.5 390zM998 1538q0 -51 -33 -83.5t-83 -32.5q-52 0 -85 32.5t-33 83.5t34 87.5t84 36.5q48 0 82 -37t34 -87zM594 1538q0 -50 -33 -83t-83 -33q-53 0 -86.5 32.5t-33.5 83.5t34 87.5t86 36.5q48 0 82 -37t34 -87z" />
    <glyph glyph-name="Udieresis" unicode="&#xdc;" horiz-adv-x="1398" 
d="M242 506v528q0 116 -26.5 143t-147.5 33v78h516v-78q-115 -8 -140.5 -34t-25.5 -142v-458q0 -158 31.5 -263t99.5 -159t191 -54q171 0 247.5 136.5t76.5 409.5v118q0 334 -25 388t-175 58v78h490v-78q-137 0 -157.5 -71t-20.5 -375v-152q0 -366 -140 -502t-336 -136
q-226 0 -342 124t-116 408zM1060 1538q0 -51 -33 -83.5t-83 -32.5q-52 0 -85 32.5t-33 83.5t34 87.5t84 36.5q48 0 82 -37t34 -87zM656 1538q0 -50 -33 -83t-83 -33q-53 0 -86.5 32.5t-33.5 83.5t34 87.5t86 36.5q48 0 82 -37t34 -87z" />
    <glyph glyph-name="aacute" unicode="&#xe1;" horiz-adv-x="954" 
d="M760 670v-436q0 -116 60 -116q26 0 76 24l28 -72l-194 -94q-30 0 -69.5 29.5t-60.5 92.5q-180 -122 -248 -122q-106 0 -180 77.5t-74 184.5q0 69 30.5 119t77.5 76.5t173 74.5q195 75 215 98v36q0 88 -43 136t-117 48q-40 0 -82 -29t-78 -143q-16 -50 -62 -50
q-33 0 -65.5 27.5t-32.5 60.5q0 23 11.5 41.5t35.5 39.5t55 41t76 43.5t110.5 48t89.5 24.5q114 0 191 -65t77 -195zM594 198v304q-209 -94 -238 -110t-51.5 -47.5t-22.5 -82.5q0 -68 44 -110t96 -42q79 0 172 88zM410 1074l155 221q62 89 74.5 97.5t26.5 8.5q15 0 65 -29
t50 -53q0 -13 -7.5 -24.5t-96.5 -91.5l-203 -181z" />
    <glyph glyph-name="agrave" unicode="&#xe0;" horiz-adv-x="954" 
d="M760 670v-436q0 -116 60 -116q26 0 76 24l28 -72l-194 -94q-30 0 -69.5 29.5t-60.5 92.5q-180 -122 -248 -122q-106 0 -180 77.5t-74 184.5q0 69 30.5 119t77.5 76.5t173 74.5q195 75 215 98v36q0 88 -43 136t-117 48q-40 0 -82 -29t-78 -143q-16 -50 -62 -50
q-33 0 -65.5 27.5t-32.5 60.5q0 23 11.5 41.5t35.5 39.5t55 41t76 43.5t110.5 48t89.5 24.5q114 0 191 -65t77 -195zM594 198v304q-209 -94 -238 -110t-51.5 -47.5t-22.5 -82.5q0 -68 44 -110t96 -42q79 0 172 88zM489 1022l-211 185q-84 74 -91.5 86.5t-7.5 24.5
q0 26 52.5 53.5t67.5 27.5q14 0 26 -8.5t78 -101.5l150 -215z" />
    <glyph glyph-name="acircumflex" unicode="&#xe2;" horiz-adv-x="954" 
d="M760 670v-436q0 -116 60 -116q26 0 76 24l28 -72l-194 -94q-30 0 -69.5 29.5t-60.5 92.5q-180 -122 -248 -122q-106 0 -180 77.5t-74 184.5q0 69 30.5 119t77.5 76.5t173 74.5q195 75 215 98v36q0 88 -43 136t-117 48q-40 0 -82 -29t-78 -143q-16 -50 -62 -50
q-33 0 -65.5 27.5t-32.5 60.5q0 23 11.5 41.5t35.5 39.5t55 41t76 43.5t110.5 48t89.5 24.5q114 0 191 -65t77 -195zM594 198v304q-209 -94 -238 -110t-51.5 -47.5t-22.5 -82.5q0 -68 44 -110t96 -42q79 0 172 88zM418 1396h76q70 -135 202 -324l-82 -52l-158 208l-162 -208
l-80 52q140 200 204 324z" />
    <glyph glyph-name="adieresis" unicode="&#xe4;" horiz-adv-x="954" 
d="M760 670v-436q0 -116 60 -116q26 0 76 24l28 -72l-194 -94q-30 0 -69.5 29.5t-60.5 92.5q-180 -122 -248 -122q-106 0 -180 77.5t-74 184.5q0 69 30.5 119t77.5 76.5t173 74.5q195 75 215 98v36q0 88 -43 136t-117 48q-40 0 -82 -29t-78 -143q-16 -50 -62 -50
q-33 0 -65.5 27.5t-32.5 60.5q0 23 11.5 41.5t35.5 39.5t55 41t76 43.5t110.5 48t89.5 24.5q114 0 191 -65t77 -195zM594 198v304q-209 -94 -238 -110t-51.5 -47.5t-22.5 -82.5q0 -68 44 -110t96 -42q79 0 172 88zM780 1192q0 -51 -33 -83.5t-83 -32.5q-53 0 -85.5 32
t-32.5 84q0 51 33.5 85.5t84.5 34.5q49 0 82.5 -35t33.5 -85zM398 1192q0 -51 -33 -83.5t-83 -32.5q-53 0 -85.5 32t-32.5 84q0 51 33.5 85.5t84.5 34.5q49 0 82.5 -35t33.5 -85z" />
    <glyph glyph-name="atilde" unicode="&#xe3;" horiz-adv-x="954" 
d="M760 670v-436q0 -116 60 -116q26 0 76 24l28 -72l-194 -94q-30 0 -69.5 29.5t-60.5 92.5q-180 -122 -248 -122q-106 0 -180 77.5t-74 184.5q0 69 30.5 119t77.5 76.5t173 74.5q195 75 215 98v36q0 88 -43 136t-117 48q-40 0 -82 -29t-78 -143q-16 -50 -62 -50
q-33 0 -65.5 27.5t-32.5 60.5q0 23 11.5 41.5t35.5 39.5t55 41t76 43.5t110.5 48t89.5 24.5q114 0 191 -65t77 -195zM594 198v304q-209 -94 -238 -110t-51.5 -47.5t-22.5 -82.5q0 -68 44 -110t96 -42q79 0 172 88zM173 1126q83 160 182 160q47 0 130 -36q77 -32 110 -32
q43 0 94 86l78 -48q-75 -162 -186 -162q-36 0 -152 48q-55 22 -84 22q-49 0 -98 -90z" />
    <glyph glyph-name="aring" unicode="&#xe5;" horiz-adv-x="954" 
d="M760 670v-436q0 -116 60 -116q26 0 76 24l28 -72l-194 -94q-30 0 -69.5 29.5t-60.5 92.5q-180 -122 -248 -122q-106 0 -180 77.5t-74 184.5q0 69 30.5 119t77.5 76.5t173 74.5q195 75 215 98v36q0 88 -43 136t-117 48q-40 0 -82 -29t-78 -143q-16 -50 -62 -50
q-33 0 -65.5 27.5t-32.5 60.5q0 23 11.5 41.5t35.5 39.5t55 41t76 43.5t110.5 48t89.5 24.5q114 0 191 -65t77 -195zM594 198v304q-209 -94 -238 -110t-51.5 -47.5t-22.5 -82.5q0 -68 44 -110t96 -42q79 0 172 88zM268 1242q0 90 64 145t150 55q88 0 151 -56t63 -144
q0 -90 -63.5 -148t-150.5 -58t-150.5 58t-63.5 148zM590 1240q0 52 -29 84t-77 32t-77 -31.5t-29 -82.5q0 -52 29.5 -86t76.5 -34q46 0 76 33.5t30 84.5z" />
    <glyph glyph-name="ccedilla" unicode="&#xe7;" horiz-adv-x="880" 
d="M782 230l54 -64q-133 -148 -258 -182q-47 -70 -47 -80q0 -17 27 -42q72 -84 72 -142q0 -129 -224 -212l-36 66q120 64 120 128q0 20 -44 68q-43 46 -43 77q0 23 20 51l57 80q-188 21 -287 143.5t-99 286.5q0 144 74 265.5t201.5 189t240.5 67.5q50 0 127 -26t77 -88
q0 -31 -28 -67.5t-52 -36.5q-16 0 -32 16q-84 84 -204 84q-93 0 -159.5 -82.5t-66.5 -233.5q0 -139 45.5 -222.5t110 -117.5t128.5 -34q72 0 121.5 26t104.5 82z" />
    <glyph glyph-name="eacute" unicode="&#xe9;" horiz-adv-x="906" 
d="M820 156q-78 -90 -166.5 -135t-153.5 -45q-181 0 -293.5 126.5t-112.5 317.5q0 215 132 362.5t294 147.5q128 0 222 -98.5t94 -229.5q0 -47 -9 -65t-37.5 -24t-194.5 -17.5t-335 -17.5q7 -170 94 -261t208 -91q113 0 204 96zM482 834q-73 0 -133 -66t-75 -184l330 6
q33 0 42.5 11.5t9.5 42.5q0 80 -50 135t-124 55zM433 1074l155 221q62 89 74.5 97.5t26.5 8.5q15 0 65 -29t50 -53q0 -13 -7.5 -24.5t-96.5 -91.5l-203 -181z" />
    <glyph glyph-name="egrave" unicode="&#xe8;" horiz-adv-x="906" 
d="M820 156q-78 -90 -166.5 -135t-153.5 -45q-181 0 -293.5 126.5t-112.5 317.5q0 215 132 362.5t294 147.5q128 0 222 -98.5t94 -229.5q0 -47 -9 -65t-37.5 -24t-194.5 -17.5t-335 -17.5q7 -170 94 -261t208 -91q113 0 204 96zM482 834q-73 0 -133 -66t-75 -184l330 6
q33 0 42.5 11.5t9.5 42.5q0 80 -50 135t-124 55zM519 1022l-211 185q-84 74 -91.5 86.5t-7.5 24.5q0 26 52.5 53.5t67.5 27.5q14 0 26 -8.5t78 -101.5l150 -215z" />
    <glyph glyph-name="ecircumflex" unicode="&#xea;" horiz-adv-x="906" 
d="M820 156q-78 -90 -166.5 -135t-153.5 -45q-181 0 -293.5 126.5t-112.5 317.5q0 215 132 362.5t294 147.5q128 0 222 -98.5t94 -229.5q0 -47 -9 -65t-37.5 -24t-194.5 -17.5t-335 -17.5q7 -170 94 -261t208 -91q113 0 204 96zM482 834q-73 0 -133 -66t-75 -184l330 6
q33 0 42.5 11.5t9.5 42.5q0 80 -50 135t-124 55zM465 1396h76q70 -135 202 -324l-82 -52l-158 208l-162 -208l-80 52q140 200 204 324z" />
    <glyph glyph-name="edieresis" unicode="&#xeb;" horiz-adv-x="906" 
d="M820 156q-78 -90 -166.5 -135t-153.5 -45q-181 0 -293.5 126.5t-112.5 317.5q0 215 132 362.5t294 147.5q128 0 222 -98.5t94 -229.5q0 -47 -9 -65t-37.5 -24t-194.5 -17.5t-335 -17.5q7 -170 94 -261t208 -91q113 0 204 96zM482 834q-73 0 -133 -66t-75 -184l330 6
q33 0 42.5 11.5t9.5 42.5q0 80 -50 135t-124 55zM800 1192q0 -51 -33 -83.5t-83 -32.5q-53 0 -85.5 32t-32.5 84q0 51 33.5 85.5t84.5 34.5q49 0 82.5 -35t33.5 -85zM418 1192q0 -51 -33 -83.5t-83 -32.5q-53 0 -85.5 32t-32.5 84q0 51 33.5 85.5t84.5 34.5q49 0 82.5 -35
t33.5 -85z" />
    <glyph glyph-name="iacute" unicode="&#xed;" horiz-adv-x="576" 
d="M220 228v390q0 77 -7 105t-30 37.5t-93 19.5v68q152 27 298 82v-702q0 -99 21 -120t121 -30v-78h-450v78q98 9 119 30.5t21 119.5zM217 1072l155 221q62 89 74.5 97.5t26.5 8.5q15 0 65 -29t50 -53q0 -13 -7.5 -24.5t-96.5 -91.5l-203 -181z" />
    <glyph glyph-name="igrave" unicode="&#xec;" horiz-adv-x="576" 
d="M220 228v390q0 77 -7 105t-30 37.5t-93 19.5v68q152 27 298 82v-702q0 -99 21 -120t121 -30v-78h-450v78q98 9 119 30.5t21 119.5zM304 1020l-211 185q-84 74 -91.5 86.5t-7.5 24.5q0 26 52.5 53.5t67.5 27.5q14 0 26 -8.5t78 -101.5l150 -215z" />
    <glyph glyph-name="icircumflex" unicode="&#xee;" horiz-adv-x="576" 
d="M220 228v390q0 77 -7 105t-30 37.5t-93 19.5v68q152 27 298 82v-702q0 -99 21 -120t121 -30v-78h-450v78q98 9 119 30.5t21 119.5zM255 1395h76q70 -135 202 -324l-82 -52l-158 208l-162 -208l-80 52q140 200 204 324z" />
    <glyph glyph-name="idieresis" unicode="&#xef;" horiz-adv-x="576" 
d="M220 228v390q0 77 -7 105t-30 37.5t-93 19.5v68q152 27 298 82v-702q0 -99 21 -120t121 -30v-78h-450v78q98 9 119 30.5t21 119.5zM597 1192q0 -51 -33 -83.5t-83 -32.5q-53 0 -85.5 32t-32.5 84q0 51 33.5 85.5t84.5 34.5q49 0 82.5 -35t33.5 -85zM215 1192
q0 -51 -33 -83.5t-83 -32.5q-53 0 -85.5 32t-32.5 84q0 51 33.5 85.5t84.5 34.5q49 0 82.5 -35t33.5 -85z" />
    <glyph glyph-name="ntilde" unicode="&#xf1;" horiz-adv-x="1128" 
d="M220 224v410q0 98 -17 117.5t-105 30.5v68q171 32 290 82v-144q178 142 290 142q122 0 192 -75.5t70 -202.5v-426q0 -96 20 -117.5t106 -30.5v-78h-414v78q83 9 101.5 29t18.5 109v356q0 118 -39.5 172t-124.5 54q-103 0 -220 -116v-456q0 -97 19 -118t105 -30v-78h-436
v78q85 6 114.5 24t29.5 122zM265 1126q83 160 182 160q47 0 130 -36q77 -32 110 -32q43 0 94 86l78 -48q-75 -162 -186 -162q-36 0 -152 48q-55 22 -84 22q-49 0 -98 -90z" />
    <glyph glyph-name="oacute" unicode="&#xf3;" horiz-adv-x="1058" 
d="M92 426q0 152 59 266t162.5 176t216.5 62q188 0 310 -132.5t122 -331.5q0 -221 -128 -355.5t-304 -134.5q-194 0 -316 133.5t-122 316.5zM770 418q0 198 -67.5 307t-194.5 109q-103 0 -161.5 -85t-58.5 -241q0 -202 72 -319t196 -117q115 0 164.5 85t49.5 261zM464 1074
l155 221q62 89 74.5 97.5t26.5 8.5q15 0 65 -29t50 -53q0 -13 -7.5 -24.5t-96.5 -91.5l-203 -181z" />
    <glyph glyph-name="ograve" unicode="&#xf2;" horiz-adv-x="1058" 
d="M92 426q0 152 59 266t162.5 176t216.5 62q188 0 310 -132.5t122 -331.5q0 -221 -128 -355.5t-304 -134.5q-194 0 -316 133.5t-122 316.5zM770 418q0 198 -67.5 307t-194.5 109q-103 0 -161.5 -85t-58.5 -241q0 -202 72 -319t196 -117q115 0 164.5 85t49.5 261zM541 1042
l-211 185q-84 74 -91.5 86.5t-7.5 24.5q0 26 52.5 53.5t67.5 27.5q14 0 26 -8.5t78 -101.5l150 -215z" />
    <glyph glyph-name="ocircumflex" unicode="&#xf4;" horiz-adv-x="1058" 
d="M92 426q0 152 59 266t162.5 176t216.5 62q188 0 310 -132.5t122 -331.5q0 -221 -128 -355.5t-304 -134.5q-194 0 -316 133.5t-122 316.5zM770 418q0 198 -67.5 307t-194.5 109q-103 0 -161.5 -85t-58.5 -241q0 -202 72 -319t196 -117q115 0 164.5 85t49.5 261zM492 1396
h76q70 -135 202 -324l-82 -52l-158 208l-162 -208l-80 52q140 200 204 324z" />
    <glyph glyph-name="odieresis" unicode="&#xf6;" horiz-adv-x="1058" 
d="M92 426q0 152 59 266t162.5 176t216.5 62q188 0 310 -132.5t122 -331.5q0 -221 -128 -355.5t-304 -134.5q-194 0 -316 133.5t-122 316.5zM770 418q0 198 -67.5 307t-194.5 109q-103 0 -161.5 -85t-58.5 -241q0 -202 72 -319t196 -117q115 0 164.5 85t49.5 261zM836 1192
q0 -51 -33 -83.5t-83 -32.5q-53 0 -85.5 32t-32.5 84q0 51 33.5 85.5t84.5 34.5q49 0 82.5 -35t33.5 -85zM454 1192q0 -51 -33 -83.5t-83 -32.5q-53 0 -85.5 32t-32.5 84q0 51 33.5 85.5t84.5 34.5q49 0 82.5 -35t33.5 -85z" />
    <glyph glyph-name="otilde" unicode="&#xf5;" horiz-adv-x="1058" 
d="M92 426q0 152 59 266t162.5 176t216.5 62q188 0 310 -132.5t122 -331.5q0 -221 -128 -355.5t-304 -134.5q-194 0 -316 133.5t-122 316.5zM770 418q0 198 -67.5 307t-194.5 109q-103 0 -161.5 -85t-58.5 -241q0 -202 72 -319t196 -117q115 0 164.5 85t49.5 261zM233 1126
q83 160 182 160q47 0 130 -36q77 -32 110 -32q43 0 94 86l78 -48q-75 -162 -186 -162q-36 0 -152 48q-55 22 -84 22q-49 0 -98 -90z" />
    <glyph glyph-name="uacute" unicode="&#xfa;" horiz-adv-x="1110" 
d="M752 214v468q0 58 -10.5 82t-32.5 30t-113 16v72q221 12 324 36v-688q0 -69 15.5 -87.5t66.5 -18.5h64v-76q-92 -10 -298 -72l-16 12v124q-170 -136 -300 -136q-118 0 -184 76.5t-66 221.5v406q0 57 -9 81t-26.5 30t-88.5 17v72q97 4 298 38q-6 -91 -6 -294v-294
q0 -110 40 -165t130 -55q94 0 212 104zM467 1074l155 221q62 89 74.5 97.5t26.5 8.5q15 0 65 -29t50 -53q0 -13 -7.5 -24.5t-96.5 -91.5l-203 -181z" />
    <glyph glyph-name="ugrave" unicode="&#xf9;" horiz-adv-x="1110" 
d="M752 214v468q0 58 -10.5 82t-32.5 30t-113 16v72q221 12 324 36v-688q0 -69 15.5 -87.5t66.5 -18.5h64v-76q-92 -10 -298 -72l-16 12v124q-170 -136 -300 -136q-118 0 -184 76.5t-66 221.5v406q0 57 -9 81t-26.5 30t-88.5 17v72q97 4 298 38q-6 -91 -6 -294v-294
q0 -110 40 -165t130 -55q94 0 212 104zM543 1023l-211 185q-84 74 -91.5 86.5t-7.5 24.5q0 26 52.5 53.5t67.5 27.5q14 0 26 -8.5t78 -101.5l150 -215z" />
    <glyph glyph-name="ucircumflex" unicode="&#xfb;" horiz-adv-x="1110" 
d="M752 214v468q0 58 -10.5 82t-32.5 30t-113 16v72q221 12 324 36v-688q0 -69 15.5 -87.5t66.5 -18.5h64v-76q-92 -10 -298 -72l-16 12v124q-170 -136 -300 -136q-118 0 -184 76.5t-66 221.5v406q0 57 -9 81t-26.5 30t-88.5 17v72q97 4 298 38q-6 -91 -6 -294v-294
q0 -110 40 -165t130 -55q94 0 212 104zM518 1398h76q70 -135 202 -324l-82 -52l-158 208l-162 -208l-80 52q140 200 204 324z" />
    <glyph glyph-name="udieresis" unicode="&#xfc;" horiz-adv-x="1110" 
d="M752 214v468q0 58 -10.5 82t-32.5 30t-113 16v72q221 12 324 36v-688q0 -69 15.5 -87.5t66.5 -18.5h64v-76q-92 -10 -298 -72l-16 12v124q-170 -136 -300 -136q-118 0 -184 76.5t-66 221.5v406q0 57 -9 81t-26.5 30t-88.5 17v72q97 4 298 38q-6 -91 -6 -294v-294
q0 -110 40 -165t130 -55q94 0 212 104zM866 1192q0 -51 -33 -83.5t-83 -32.5q-53 0 -85.5 32t-32.5 84q0 51 33.5 85.5t84.5 34.5q49 0 82.5 -35t33.5 -85zM484 1192q0 -51 -33 -83.5t-83 -32.5q-53 0 -85.5 32t-32.5 84q0 51 33.5 85.5t84.5 34.5q49 0 82.5 -35t33.5 -85z
" />
    <glyph glyph-name="dagger" unicode="&#x2020;" horiz-adv-x="1036" 
d="M574 -270h-118q4 61 4 236q0 378 -62 566q64 134 66 250q-171 -2 -256 -66q-85 37 -118 114q31 75 118 112q85 -64 256 -66q-4 185 -74 296q47 101 126 142q74 -34 126 -142q-70 -111 -74 -296q171 2 256 66q84 -35 118 -112q-32 -78 -118 -114q-85 64 -256 66
q2 -110 66 -250q-64 -195 -64 -566q0 -175 4 -236z" />
    <glyph glyph-name="degree" unicode="&#xb0;" horiz-adv-x="690" 
d="M52 1024q0 130 86 210t206 80q125 0 210.5 -81t85.5 -209q0 -131 -84.5 -210.5t-211.5 -79.5q-125 0 -208.5 79.5t-83.5 210.5zM512 1022q0 88 -45.5 142t-118.5 54q-74 0 -119 -53t-45 -141t45 -141t119 -53q72 0 118 53.5t46 138.5z" />
    <glyph glyph-name="cent" unicode="&#xa2;" horiz-adv-x="944" 
d="M574 978v-662q114 3 226 120l54 -60q-134 -165 -280 -192v-202h-94v196q-174 10 -282 134.5t-108 279.5q0 112 49.5 210t141 170t199.5 100v172h94v-164q4 2 26 2q72 0 131.5 -17t74 -36t14.5 -45q0 -33 -22.5 -62.5t-54.5 -29.5q-11 0 -31 20q-67 61 -138 66zM480 322
v658q-83 -11 -151.5 -99t-68.5 -217q0 -139 59 -228.5t161 -113.5z" />
    <glyph glyph-name="sterling" unicode="&#xa3;" horiz-adv-x="944" 
d="M747 580h-248q4 -8 4 -46q0 -170 -184 -332q95 -24 150 -44q137 -48 222 -48q88 0 88 62q0 15 -16 68q-6 17 -6 30q0 24 28.5 51t59.5 27q28 0 46 -31t18 -63q0 -90 -97.5 -183t-230.5 -93q-106 0 -284 84q-60 30 -84 30q-17 0 -34.5 -22t-25.5 -58q-6 -26 -38 -26
q-24 0 -46.5 17.5t-22.5 39.5q0 36 149 161q132 106 132 266q0 76 -16 110h-230v92h206q-60 172 -60 224q0 86 52.5 173t147 144t140.5 57q67 0 130 -35t63 -72q0 -31 -28.5 -61t-45.5 -30q-16 0 -29 12q-69 62 -160 62q-52 0 -86 -40t-34 -100q0 -114 104 -334h266v-92z
" />
    <glyph glyph-name="section" unicode="&#xa7;" horiz-adv-x="1014" 
d="M394 1086q0 -65 42 -114t274 -208q216 -154 216 -362q0 -68 -25.5 -142.5t-66.5 -145t-88 -130t-87.5 -101t-81 -70.5t-100 -57t-79.5 -28q-63 0 -129.5 31.5t-66.5 66.5q0 28 35 64.5t61 36.5q6 0 12 -3q59 -44 148 -44q152 0 152 137q0 74 -46.5 134t-198.5 176
q-106 81 -156.5 131.5t-85.5 115.5t-35 144q0 65 20.5 131.5t57 130t81.5 117.5t88 94.5t83.5 67.5t102.5 52t87 25q47 0 94.5 -18.5t62.5 -35.5t15 -42q0 -36 -27 -65t-54 -29q-6 0 -11 4q-68 58 -166 58q-50 0 -89 -34.5t-39 -87.5zM286 1008q-66 -90 -66 -204
q0 -103 55.5 -174t168.5 -156q166 -125 210.5 -181t54 -92t9.5 -95l4 -2q70 99 70 222q0 161 -172 294l-150 115q-96 74 -108.5 87.5t-36 52.5t-32.5 73q-3 13 -3 58z" />
    <glyph glyph-name="bullet" unicode="&#x2022;" horiz-adv-x="644" 
d="M104 650q0 92 65 158t155 66q89 0 152.5 -66t63.5 -158q0 -93 -63 -158.5t-153 -65.5t-155 66t-65 158z" />
    <glyph glyph-name="paragraph" unicode="&#xb6;" horiz-adv-x="1016" 
d="M538 1288h408l16 -36l-64 -58l-170 -22v-956q0 -184 -73 -293t-152.5 -151t-100.5 -42q-46 0 -83.5 15t-60 33.5t-22.5 40.5t29.5 57t51.5 35q6 0 11 -3q50 -36 118 -36q148 0 148 290v336l-130 -66q-2 -2 -32 -2q-98 0 -211 119.5t-113 286.5q0 130 64 233.5t168.5 161
t197.5 57.5z" />
    <glyph glyph-name="germandbls" unicode="&#xdf;" horiz-adv-x="1126" 
d="M220 214v594h-132l-14 28l56 68h90v24q0 111 37 206t101.5 163t148 104.5t143.5 36.5q149 0 240.5 -83t91.5 -234q0 -84 -58 -153q-174 -107 -174 -196q0 -27 28.5 -66.5t121.5 -125.5q148 -131 148 -272q0 -142 -105 -238t-239 -96q-72 0 -122.5 26.5t-50.5 64.5
q0 26 25 51.5t44 25.5q10 0 20 -8q65 -52 136 -52q60 0 96 35.5t36 104.5q0 125 -130 228q-176 142 -176 256q0 47 31 94t99 110q64 57 89 96t25 84q0 108 -61 176t-157 68q-111 0 -165.5 -110.5t-54.5 -367.5v-640q0 -88 16 -110t88 -28v-78h-414v78q101 8 121.5 27
t20.5 109z" />
    <glyph glyph-name="registered" unicode="&#xae;" horiz-adv-x="1190" 
d="M90 822q0 208 144 350t360 142q218 0 362 -142t144 -350q0 -207 -144.5 -349.5t-361.5 -142.5q-216 0 -360 142.5t-144 349.5zM990 822q0 177 -111.5 291.5t-282.5 114.5t-281.5 -114.5t-110.5 -291.5q0 -176 110.5 -290t281.5 -114q170 0 282 114.5t112 289.5zM424 684
v284q0 50 -10 60.5t-60 13.5v56h252q194 0 194 -144q0 -97 -108 -140q108 -196 178 -218l-10 -46h-34q-71 0 -109.5 33.5t-101.5 149.5q-20 37 -32.5 44t-34.5 7h-22v-100q0 -49 11 -59t65 -15v-56h-252v56q53 5 63.5 15t10.5 59zM528 1006v-170h46q71 0 92.5 34t21.5 68
q0 50 -31 76t-77 26q-37 0 -44.5 -5t-7.5 -29z" />
    <glyph glyph-name="copyright" unicode="&#xa9;" horiz-adv-x="1406" 
d="M94 638q0 256 174 430t434 174q262 0 436 -173.5t174 -430.5q0 -256 -173.5 -430t-436.5 -174q-260 0 -434 174.5t-174 429.5zM1190 640q0 219 -138.5 364.5t-347.5 145.5q-207 0 -345.5 -145.5t-138.5 -364.5t138.5 -366.5t345.5 -147.5q209 0 347.5 147t138.5 367z
M990 762l-64 -16q-26 82 -69 118t-115 36q-105 0 -164.5 -66.5t-59.5 -185.5q0 -129 64.5 -200.5t165.5 -71.5q142 0 198 158l66 -14l-50 -190q-115 -38 -218 -38q-176 0 -279 99t-103 241q0 162 115.5 256t286.5 94q119 0 204 -34z" />
    <glyph glyph-name="trademark" unicode="&#x2122;" horiz-adv-x="1704" 
d="M438 1212v-404q0 -80 17.5 -98.5t90.5 -21.5v-58h-336v58q69 3 85.5 21.5t16.5 98.5v404h-50q-60 0 -85.5 -28.5t-46.5 -97.5h-56l16 226h38q8 -24 54 -24h398q35 0 52 24h36l12 -224l-58 -2q-29 91 -48.5 108.5t-87.5 17.5h-48zM1366 1288h246v-66q-57 -5 -68.5 -18.5
t-11.5 -77.5l4 -314q0 -84 13.5 -101.5t74.5 -22.5v-58h-310v58q64 5 78 21t14 91v380h-4l-222 -538h-48l-206 510h-4q-11 -336 -11 -352q0 -79 18 -93.5t83 -18.5v-58h-286v58q66 2 78 28t24 213.5t12 217.5q0 50 -17.5 61.5t-72.5 13.5v66h256l182 -418z" />
    <glyph glyph-name="acute" unicode="&#xb4;" 
d="M270 1054l155 221q62 89 74.5 97.5t26.5 8.5q15 0 65 -29t50 -53q0 -13 -7.5 -24.5t-96.5 -91.5l-203 -181z" />
    <glyph glyph-name="dieresis" unicode="&#xa8;" 
d="M708 1172q0 -51 -33 -83.5t-83 -32.5q-53 0 -85.5 32t-32.5 84q0 51 33.5 85.5t84.5 34.5q49 0 82.5 -35t33.5 -85zM326 1172q0 -51 -33 -83.5t-83 -32.5q-53 0 -85.5 32t-32.5 84q0 51 33.5 85.5t84.5 34.5q49 0 82.5 -35t33.5 -85z" />
    <glyph glyph-name="notequal" unicode="&#x2260;" horiz-adv-x="1272" 
d="M1158 280h-616l-160 -286l-118 66l124 220h-274v130h348l156 280h-504v130h580l166 298l114 -66l-128 -232h312v-130h-388l-154 -280h542v-130z" />
    <glyph glyph-name="AE" unicode="&#xc6;" horiz-adv-x="1704" 
d="M846 300v320h-298q-205 -431 -205 -484q0 -29 31.5 -41.5t97.5 -18.5v-76h-462v76q71 10 104.5 23.5t62 50.5t122.5 224l336 670q52 104 52 124q0 16 -15 25t-124 19v76h990q18 -250 22 -294l-86 -8q-28 128 -73 169t-181 41h-142q-46 0 -53 -8.5t-7 -53.5v-416h170
q87 0 119.5 8.5t44 34t22.5 99.5h86v-390h-86q-12 76 -24.5 104t-45 37t-116.5 9h-170v-320q0 -103 16 -145t59.5 -52.5t154.5 -10.5q80 0 126.5 6.5t74 25.5t62 77.5t55.5 132.5l86 -12q-22 -162 -66 -322h-922v78q93 8 127 21t44.5 53.5t10.5 147.5zM594 718h252v484h-12
q-103 -189 -240 -484z" />
    <glyph glyph-name="Oslash" unicode="&#xd8;" horiz-adv-x="1354" 
d="M958 1242l88 142l86 -52l-90 -148q212 -193 212 -522q0 -307 -165 -497.5t-419 -190.5q-152 0 -292 82l-92 -148l-82 60l96 152q-200 190 -200 510q0 282 162.5 483t427.5 201q147 0 268 -72zM390 272l504 864q-89 84 -242 84q-157 0 -251.5 -141t-94.5 -395
q0 -246 84 -412zM958 1044l-506 -866q90 -110 252 -110q167 0 255.5 133.5t88.5 392.5q0 306 -90 450z" />
    <glyph glyph-name="infinity" unicode="&#x221e;" horiz-adv-x="1624" 
d="M1511 523q0 -71 -26 -128.5t-70 -97.5t-102 -61.5t-123 -21.5q-49 0 -94.5 12.5t-91 39.5t-92.5 69t-100 100l-77.5 -78t-87 -71t-101.5 -52t-122 -20q-66 0 -122.5 23.5t-98 65.5t-65.5 99t-24 124q0 69 24 127t67 100t102.5 65.5t130.5 23.5q59 0 111 -18.5t98 -50
t87.5 -72t80.5 -84.5l84.5 83.5t88.5 72t98.5 50.5t115.5 19q68 0 124.5 -23t97.5 -65t64 -100t23 -129v-2zM447 327q44 0 85 19.5t78.5 48.5t70 63l60.5 62l-65 74.5t-71.5 67.5t-81 49t-94.5 19q-41 0 -74 -17t-56 -45.5t-35 -65.5t-11 -76q1 -43 16 -79.5t40.5 -63
t60.5 -41.5t75 -15h2zM1184 730q-45 0 -88.5 -22t-82.5 -53.5t-71 -65.5l-55 -57l82 -83t71.5 -61.5t69.5 -40.5t74 -20q43 0 77 15.5t58 42.5t37.5 62.5t14.5 74.5q2 51 -11.5 90t-38.5 65.5t-60 39.5t-75 13h-2z" />
    <glyph glyph-name="plusminus" unicode="&#xb1;" horiz-adv-x="1272" 
d="M114 794h448v404h150v-404h446v-130h-446v-430h-150v430h-448v130zM114 130h1044v-130h-1044v130z" />
    <glyph glyph-name="lessequal" unicode="&#x2264;" horiz-adv-x="1272" 
d="M1136 1292v-136l-838 -380l838 -378v-138l-1000 450v134zM136 0v130h1000v-130h-1000z" />
    <glyph glyph-name="greaterequal" unicode="&#x2265;" horiz-adv-x="1272" 
d="M136 1292l1000 -448v-134l-1000 -450v138l836 378l-836 380v136zM136 0v130h1000v-130h-1000z" />
    <glyph glyph-name="yen" unicode="&#xa5;" horiz-adv-x="944" 
d="M396 198v126h-314v92h314v150h-314v92h288l-222 426q-41 80 -146 84v78h420v-78q-89 -11 -102 -19.5t-13 -21.5q0 -10 18.5 -55t89 -181t89.5 -177l116 262q51 115 51 149q0 19 -16 27.5t-95 15.5v78h388v-78q-68 -7 -97 -20.5t-50 -42t-89 -166t-132 -281.5h284v-92
h-308v-150h308v-92h-308v-126q0 -79 24.5 -95.5t147.5 -24.5v-78h-502v78q121 8 145.5 24.5t24.5 95.5z" />
    <glyph glyph-name="mu" unicode="&#xb5;" horiz-adv-x="1066" 
d="M156 232v674h168v-532q0 -260 180 -260q84 0 142 60.5t58 177.5v554h168v-682q0 -112 52 -112q37 0 56 74l76 -22q-39 -188 -190 -188q-63 0 -108 40t-56 114h-4q-24 -70 -84 -112t-126 -42q-130 0 -192 122h-4l24 -540l-158 -58l-20 16l11 372q7 212 7 344z" />
    <glyph glyph-name="partialdiff" unicode="&#x2202;" horiz-adv-x="1017" 
d="M500 817q151 0 254 -120q6 30 9 64.5t3 77.5q0 30 -0.5 61.5t-4 65.5t-12 71t-25.5 77q-15 37 -39 68.5t-56 54t-73 35t-91 12.5q-77 0 -131 -19t-99 -47q-13 -1 -28.5 15.5t-28 39.5t-19 47t-1.5 39q42 24 105.5 40.5t141.5 16.5q75 0 138 -18.5t115.5 -53t95.5 -83
t77 -108.5q30 -52 49 -108t30.5 -111t16 -105.5t4.5 -92.5q0 -49 -5 -108t-16 -121t-30 -124.5t-48 -119.5q-31 -63 -70.5 -115.5t-88 -91t-106.5 -59.5t-127 -21q-83 0 -149.5 30.5t-113 83.5t-71 126t-24.5 158q0 48 9 93.5t24.5 85t36 73.5t44.5 59t55 48.5t69 42
t82.5 30t95.5 11.5h2zM546 702q-63 -1 -110 -27t-88 -84q-44 -63 -63.5 -137t-19.5 -144q0 -42 10.5 -85.5t32 -78t54.5 -56.5t78 -22q38 0 70 16.5t58.5 43.5t47 60.5t35.5 67.5q18 42 32 80.5t24.5 77.5t18 80t12.5 89q-11 17 -28.5 37.5t-41 38.5t-54 30.5t-67.5 12.5h-1
z" />
    <glyph glyph-name="summation" unicode="&#x2211;" horiz-adv-x="1067" 
d="M913 -159h-853v73l443 652l-416 655v70h843q1 -12 3 -43.5t5 -72.5l6.5 -88t7.5 -91l-86 -15q-15 54 -31.5 89.5t-36.5 64.5q-12 17 -27.5 28.5t-39.5 18.5t-59 9.5t-86 2.5h-271l361 -566l-422 -630h419q46 0 78.5 8.5t58 31.5t47 63.5t46.5 105.5l87 -22z" />
    <glyph glyph-name="product" unicode="&#x220f;" horiz-adv-x="1368" 
d="M1292 1206q-59 -4 -93.5 -11.5t-52.5 -27.5t-23 -57t-5 -102v-883q0 -65 5 -102.5t22 -57.5t51 -27.5t91 -11.5v-84h-509v84q58 4 91.5 11.5t50.5 27.5t21.5 57t4.5 101v1005q0 21 -2 33.5t-9 18.5t-20 7.5t-35 1.5h-392q-21 0 -34 -2t-19.5 -8.5t-9 -19.5t-2.5 -35
v-1001q0 -64 5 -101t22 -57t49.5 -27.5t88.5 -11.5v-84h-508v84q59 4 93 11.5t51 27.5t22 57t5 101v885q0 65 -5 102t-23 57t-53.5 27.5t-96.5 11.5v85h1219v-85z" />
    <glyph glyph-name="pi.1" unicode="&#xf006;" horiz-adv-x="1099" 
d="M1056 935q-5 -28 -12.5 -54.5t-15.5 -49t-16 -41t-15 -30.5q-11 -4 -29.5 -6t-38.5 -2.5t-41 -0.5h-35q-9 -112 -10.5 -221.5t-1.5 -217.5q0 -55 5.5 -90.5t15.5 -56t22.5 -28t27.5 -7.5q17 0 43.5 6t45.5 17l31 -68q-15 -19 -36 -38.5t-45.5 -35t-51.5 -25.5t-54 -10
q-26 0 -53.5 8t-50.5 35t-38 79t-15 140q0 146 5.5 272.5t11.5 246.5q-84 2 -144.5 2.5t-116.5 1.5v-57q0 -178 -14.5 -304.5t-33 -209t-36.5 -125t-25 -52.5q-40 -18 -74.5 -26.5t-64.5 -10.5l-22 54q47 65 77.5 156t48 191.5t24.5 201t7 183.5q-39 0 -71.5 -4t-62 -14
t-56.5 -26t-54 -40l-45 78q18 20 45 46.5t69 49.5t103.5 38.5t148.5 13.5q44 -1 102 -2.5l121 -3t125.5 -2.5t115.5 -1q22 0 36 2t24.5 8.5t18.5 19t18 33.5z" />
    <glyph glyph-name="integral" unicode="&#x222b;" horiz-adv-x="816" 
d="M306 847q-7 203 15.5 341t67 223.5t106 122.5t131.5 37q23 0 43.5 -8t36.5 -21.5t25.5 -31t9.5 -37.5q0 -48 -29 -72.5t-66 -24.5q-27 0 -41.5 9.5t-25.5 20.5t-22.5 20.5t-31.5 9.5q-18 0 -29.5 -11t-17.5 -40t-6.5 -80.5t2.5 -131.5l25 -599q11 -251 -7.5 -427.5
t-61 -287.5t-106 -162t-143.5 -51q-57 0 -91 31t-36 75q0 21 8.5 39t22 31.5t30.5 21t33 7.5q23 0 40.5 -9t32 -20.5t27.5 -20.5t26 -9q16 0 28 8t19.5 34.5t10.5 77t0 135.5z" />
    <glyph glyph-name="ordfeminine" unicode="&#xaa;" horiz-adv-x="662" 
d="M534 894v-234q0 -80 40 -80q16 0 48 16l20 -54l-128 -64q-61 0 -100 80q-123 -80 -164 -80q-74 0 -124 49.5t-50 116.5q0 44 20.5 76.5t53 50t113.5 47.5q120 44 147 62v20q0 43 -27.5 70.5t-72.5 27.5q-38 0 -61.5 -23.5t-42.5 -88.5q-9 -34 -44 -34q-25 0 -49.5 19
t-24.5 43q0 51 106.5 105.5t147.5 54.5q101 0 146.5 -51.5t45.5 -128.5zM410 630v176q-145 -51 -170.5 -77t-25.5 -67q0 -38 26 -61t62 -23q49 0 108 52z" />
    <glyph glyph-name="ordmasculine" unicode="&#xba;" horiz-adv-x="708" 
d="M62 768q0 143 91 224.5t201 81.5q124 0 205 -84.5t81 -207.5q0 -141 -87.5 -222.5t-200.5 -81.5q-130 0 -210 84t-80 206zM492 752q0 114 -40.5 180t-111.5 66q-56 0 -92 -52t-36 -144q0 -115 41.5 -181.5t110.5 -66.5q128 0 128 198z" />
    <glyph glyph-name="Omega" unicode="&#x2126;" horiz-adv-x="1440" 
d="M1322 0h-471l-11 51q14 24 38 61.5t52.5 86.5t57.5 107.5t53 124.5t39 138.5t15 147.5q0 117 -26 210.5t-74 159.5t-116.5 101t-152.5 35q-82 0 -149 -34t-115 -99t-75 -158.5t-27 -213.5q0 -71 15.5 -141.5t39.5 -136.5t53.5 -125.5t58 -109.5t53 -89t37.5 -64l-17 -52
h-472l-29 278l84 6q14 -42 27.5 -68t29.5 -40.5t35 -19t44 -4.5h130l-51 57.5t-63 74.5t-65.5 89.5t-59 103.5t-42.5 116t-16 127q0 135 44.5 245.5t122.5 189t183 121.5t226 43q123 0 228 -43t182 -121t120.5 -188t43.5 -244q0 -67 -16.5 -128.5t-43 -116.5t-59.5 -104
t-66 -90l-61.5 -74t-47.5 -58h112q33 0 54 3.5t37 17t29 40t29 71.5l88 -6z" />
    <glyph glyph-name="ae" unicode="&#xe6;" horiz-adv-x="1400" 
d="M600 606v34q0 87 -43 136.5t-119 49.5q-48 0 -89 -32t-79 -146q-14 -46 -58 -46q-27 0 -62.5 28.5t-35.5 59.5q0 22 11 41.5t32.5 38.5t53.5 40t76.5 44.5t111 49.5t89.5 26q174 0 244 -140q138 142 294 142q123 0 214.5 -99t91.5 -233q0 -47 -10.5 -63.5t-40 -24
t-191 -18t-336.5 -16.5q0 -168 83.5 -260t216.5 -92q128 0 216 96l46 -60q-75 -93 -161 -139.5t-155 -46.5q-214 0 -326 176q-153 -116 -216 -146t-102 -30q-106 0 -181 77t-75 181q0 82 37 135t119 89q339 143 344 148zM976 830q-71 0 -132.5 -66.5t-77.5 -181.5l348 6
q23 0 30.5 11.5t7.5 44.5q0 83 -49.5 134.5t-126.5 51.5zM598 506l-184 -78q-69 -29 -101.5 -66.5t-32.5 -93.5q0 -67 41 -110.5t105 -43.5q96 0 206 118q-34 81 -34 274z" />
    <glyph glyph-name="oslash" unicode="&#xf8;" horiz-adv-x="1062" 
d="M736 880l80 120l80 -50l-82 -124q154 -135 154 -360q0 -221 -129 -355.5t-305 -134.5q-110 0 -210 54l-84 -128l-76 62l82 120q-152 137 -152 342q0 151 60 265t165 176.5t217 62.5q108 0 200 -50zM338 232l346 542q-69 56 -170 56q-109 0 -173.5 -90t-64.5 -254
q0 -155 62 -254zM740 684l-348 -546q58 -66 160 -66q124 0 179 87.5t55 266.5q0 161 -46 258z" />
    <glyph glyph-name="questiondown" unicode="&#xbf;" horiz-adv-x="664" 
d="M220 756q0 62 37.5 100t94.5 38t94.5 -38.5t37.5 -99.5q0 -58 -38 -97t-94 -39t-94 39t-38 97zM336 488q76 -39 136 -113.5t60 -142.5q0 -62 -34.5 -115t-121.5 -123q-99 -80 -127.5 -121t-28.5 -75q0 -45 26 -72.5t68 -27.5q78 0 163 65q24 19 31 19q19 0 48.5 -33.5
t29.5 -66.5q0 -43 -71 -87.5t-127 -44.5q-117 0 -211.5 98t-94.5 222q0 107 88 186q194 181 194 228q0 63 -82 138z" />
    <glyph glyph-name="exclamdown" unicode="&#xa1;" horiz-adv-x="516" 
d="M118 752q0 66 39 107t99 41t99 -41t39 -107q0 -63 -39.5 -104.5t-98.5 -41.5t-98.5 41.5t-39.5 104.5zM212 482q9 11 48 10q9 0 17.5 -0.5t15 -2.5t10 -4t12.5 -126l18 -275q10 -142 21 -253q20 -195 20 -213q0 -33 -26 -46.5t-88 -13.5q-63 0 -89.5 13.5t-26.5 46.5
q0 51 19 223t49 641z" />
    <glyph glyph-name="logicalnot" unicode="&#xac;" horiz-adv-x="1272" 
d="M116 802h1042v-588h-150v458h-892v130z" />
    <glyph glyph-name="radical" unicode="&#x221a;" horiz-adv-x="1159" 
d="M760 -76l-464 999l-179 -95l-40 96l312 167l333 -752h4l257 1496l114 -12z" />
    <glyph glyph-name="florin" unicode="&#x192;" horiz-adv-x="944" 
d="M190 754h190q41 296 174 422t248 126q41 0 85.5 -27t44.5 -57q0 -27 -21 -58.5t-45 -31.5q-8 0 -16 4q-85 48 -136 48q-67 0 -97.5 -79.5t-60.5 -346.5h224v-92h-234q-57 -430 -65.5 -488t-36.5 -137.5t-62 -132.5t-80 -95.5t-92 -63.5t-90 -21q-40 0 -74 23t-34 47
q0 26 24.5 61t39.5 35q9 0 41 -13q56 -23 85 -23q40 0 68 42t52 281l48 485h-180v92z" />
    <glyph glyph-name="approxequal" unicode="&#x2248;" horiz-adv-x="1234" 
d="M1132 745q-19 -34 -48 -63.5t-63.5 -51t-74 -33.5t-80.5 -12q-69 0 -133 19t-144 59q-52 25 -104 41t-106 16q-40 0 -72.5 -13t-58 -32t-44.5 -41.5t-33 -41.5l-68 81q24 38 56.5 68t69.5 51t77 32.5t79 12.5q38 1 74 -4.5t68 -14.5t60 -20t50 -22q56 -27 113 -48
t126 -21q35 0 64 11t53 28.5t42.5 39.5t32.5 44zM1132 393q-20 -34 -49 -63.5t-63.5 -50.5t-74 -33t-80.5 -12q-34 0 -64.5 4.5t-60.5 13t-62.5 22t-71.5 31.5q-66 30 -125 48t-122 16q-34 -1 -62.5 -13t-52 -30t-41.5 -39t-32 -39l-68 81q48 70 120 112.5t160 44.5
q38 1 74 -4.5t68.5 -14.5t60.5 -20.5t50 -22.5q57 -27 113.5 -48t125.5 -21q35 0 64 11t53 28.5t42.5 39.5t32.5 44z" />
    <glyph glyph-name="Delta" unicode="&#x2206;" horiz-adv-x="1259" 
d="M99 0v65l491 1232l82 22l489 -1253v-66h-1062zM597 1039l-340 -914h690z" />
    <glyph glyph-name="guillemotleft" unicode="&#xab;" horiz-adv-x="936" 
d="M478 106l-74 -52q-173 248 -318 400q162 177 318 402l74 -50l-188 -352zM836 106l-76 -52q-167 239 -316 400q168 189 316 402l76 -50l-188 -352z" />
    <glyph glyph-name="guillemotright" unicode="&#xbb;" horiz-adv-x="924" 
d="M162 54l-74 52l188 348l-188 352l74 50q152 -215 318 -402q-146 -157 -318 -400zM518 54l-74 52l188 348l-188 352l74 50q156 -225 318 -402q-145 -152 -318 -400z" />
    <glyph glyph-name="ellipsis" unicode="&#x2026;" horiz-adv-x="2030" 
d="M1142 116q0 -61 -37.5 -100.5t-94.5 -39.5q-55 0 -92.5 39.5t-37.5 100.5t37.5 100.5t92.5 39.5q56 0 94 -40t38 -100zM1818 116q0 -61 -37.5 -100.5t-94.5 -39.5q-55 0 -92.5 39.5t-37.5 100.5q0 60 37.5 100t92.5 40q56 0 94 -40t38 -100zM466 116q0 -62 -38 -101
t-94 -39q-55 0 -92.5 39.5t-37.5 100.5q0 60 37.5 100t92.5 40q56 0 94 -40t38 -100z" />
    <glyph glyph-name="space" unicode=" " horiz-adv-x="480" 
 />
    <glyph glyph-name="Agrave" unicode="&#xc0;" horiz-adv-x="1318" 
d="M822 430h-384q-84 -252 -84 -295q0 -31 29.5 -41t104.5 -16v-78h-438v78q85 7 119.5 30.5t84.5 159.5l372 1022l84 24l212 -642q112 -334 152.5 -438t73.5 -127t120 -29v-78h-468v78q63 6 93 15t30 35q0 17 -34 121.5t-67 180.5zM472 538h316l-152 488h-4zM727 1411
l-279 98q-113 40 -123.5 48t-10.5 21q0 14 36.5 62.5t63.5 48.5q9 0 16.5 -2.5t109.5 -67.5l227 -142z" />
    <glyph glyph-name="Atilde" unicode="&#xc3;" horiz-adv-x="1318" 
d="M822 430h-384q-84 -252 -84 -295q0 -31 29.5 -41t104.5 -16v-78h-438v78q85 7 119.5 30.5t84.5 159.5l372 1022l84 24l212 -642q112 -334 152.5 -438t73.5 -127t120 -29v-78h-468v78q63 6 93 15t30 35q0 17 -34 121.5t-67 180.5zM472 538h316l-152 488h-4zM383 1474
q87 150 184 150q41 0 132 -38q72 -30 112 -30q48 0 96 84l76 -44q-72 -158 -190 -158q-37 0 -152 46q-59 22 -86 22q-49 0 -98 -86z" />
    <glyph glyph-name="Otilde" unicode="&#xd5;" horiz-adv-x="1354" 
d="M100 632q0 281 163.5 481.5t430.5 200.5q234 0 397 -184t163 -468q0 -310 -164.5 -499t-419.5 -189q-247 0 -408.5 186.5t-161.5 471.5zM1048 592q0 310 -102.5 469t-291.5 159q-159 0 -251.5 -139.5t-92.5 -394.5q0 -282 105.5 -450t290.5 -168q165 0 253.5 134
t88.5 390zM381 1474q87 150 184 150q41 0 132 -38q72 -30 112 -30q48 0 96 84l76 -44q-72 -158 -190 -158q-37 0 -152 46q-59 22 -86 22q-49 0 -98 -86z" />
    <glyph glyph-name="OE" unicode="&#x152;" horiz-adv-x="1836" 
d="M1148 1134v-416h172q87 0 120 8t44 33t22 97h86v-384h-86q-13 77 -25.5 104t-44.5 35.5t-116 8.5h-172v-314q0 -101 13.5 -145.5t55 -57.5t161.5 -13q72 0 116 5t77.5 21t69.5 78.5t59 137.5l84 -12q-27 -179 -66 -320h-634q-95 0 -156 -8q-124 -12 -168 -12
q-303 0 -481.5 181t-178.5 465q0 202 89.5 357t252 240t360.5 85q63 0 130 -8q96 -12 184 -12h554q17 -238 22 -292l-86 -8q-26 120 -64 164t-188 44h-146q-46 0 -53 -8.5t-7 -53.5zM972 222v878q0 53 -8.5 69.5t-52 29.5t-137.5 13q-221 0 -345.5 -147.5t-124.5 -412.5
q0 -268 126 -423t356 -155q55 0 103.5 13.5t65.5 41t17 93.5z" />
    <glyph glyph-name="oe" unicode="&#x153;" horiz-adv-x="1568" 
d="M1434 222l48 -60q-74 -93 -162 -139.5t-162 -46.5q-210 0 -322 168q-62 -80 -149 -124t-169 -44q-186 0 -305 135.5t-119 316.5q0 229 133 365.5t299 136.5q100 0 184.5 -50.5t135.5 -143.5q139 194 338 194q127 0 220.5 -98.5t93.5 -229.5q0 -50 -9 -66.5t-37.5 -22.5
t-199 -17.5t-340.5 -17.5q0 -179 89 -265.5t213 -86.5q138 0 220 96zM754 418q0 190 -63 303t-187 113q-96 0 -155 -87.5t-59 -242.5q0 -195 71.5 -312.5t186.5 -117.5q206 0 206 344zM924 584l356 6q23 0 29.5 11.5t6.5 42.5q0 87 -48.5 138.5t-129.5 51.5
q-74 0 -135.5 -66t-78.5 -184z" />
    <glyph glyph-name="endash" unicode="&#x2013;" horiz-adv-x="1028" 
d="M100 524h828v-128h-828v128z" />
    <glyph glyph-name="emdash" unicode="&#x2014;" horiz-adv-x="2054" 
d="M100 520h1854v-128h-1854v128z" />
    <glyph glyph-name="quotedblleft" unicode="&#x201c;" horiz-adv-x="874" 
d="M404 1348q-168 -78 -168 -192q0 -57 37 -96.5t97 -51.5q28 -4 28 -48q0 -42 -28.5 -67t-67.5 -25q-83 0 -149.5 68.5t-66.5 173.5q0 108 79.5 193t208.5 121zM796 1348q-168 -78 -168 -192q0 -57 37 -96.5t97 -51.5q28 -4 28 -48q0 -42 -28.5 -67t-67.5 -25
q-83 0 -149.5 68.5t-66.5 173.5q0 108 79.5 193t208.5 121z" />
    <glyph glyph-name="quotedblright" unicode="&#x201d;" horiz-adv-x="876" 
d="M78 930q168 78 168 190q0 61 -38 99.5t-96 48.5q-10 2 -19 15.5t-9 32.5q0 43 29.5 68.5t66.5 25.5q83 0 150.5 -69t67.5 -173q0 -108 -80 -193t-210 -121zM474 930q168 78 168 190q0 59 -37 98.5t-97 49.5q-28 4 -28 48q0 46 30 70t66 24q83 0 150.5 -69t67.5 -173
q0 -108 -80 -193t-210 -121z" />
    <glyph glyph-name="quoteleft" unicode="&#x2018;" horiz-adv-x="478" 
d="M402 1348q-168 -78 -168 -192q0 -57 37 -96.5t97 -51.5q28 -4 28 -48t-29.5 -68t-66.5 -24q-83 0 -149.5 68.5t-66.5 173.5q0 108 79.5 193t208.5 121z" />
    <glyph glyph-name="quoteright" unicode="&#x2019;" horiz-adv-x="480" 
d="M78 930q168 78 168 190q0 61 -38 99.5t-96 48.5q-10 2 -19 15.5t-9 32.5q0 43 29.5 68.5t66.5 25.5q83 0 150.5 -69t67.5 -173q0 -108 -80 -193t-210 -121z" />
    <glyph glyph-name="divide" unicode="&#xf7;" horiz-adv-x="1272" 
d="M762 884q0 -50 -36.5 -86t-87.5 -36q-47 0 -84.5 36.5t-37.5 85.5q0 47 38 84.5t84 37.5q50 0 87 -37t37 -85zM114 618h1042v-130h-1042v130zM512 222q0 51 36.5 86.5t87.5 35.5q48 0 85 -36.5t37 -85.5q0 -47 -37.5 -84.5t-84.5 -37.5q-50 0 -87 37t-37 85z" />
    <glyph glyph-name="lozenge" unicode="&#x25ca;" horiz-adv-x="942" 
d="M412 0l-376 722l376 706h120l376 -706l-376 -722h-120zM180 722l292 -574l292 574l-292 558z" />
    <glyph glyph-name="ydieresis" unicode="&#xff;" horiz-adv-x="958" 
d="M26 906h420v-78q-49 -7 -71 -18.5t-22 -36.5q0 -12 43 -145l124 -380q195 472 195 526q0 25 -26 36t-79 18v78h390v-78q-75 -12 -103.5 -31.5t-69 -93.5t-150 -328.5l-201 -483.5t-122.5 -347q-13 -54 -76 -54q-48 0 -88 35.5t-40 74.5q0 46 50 78q78 54 147 175t69 173
q0 23 -26 100l-83 245l-92.5 267t-51.5 127t-46.5 43t-90.5 20v78zM826 1192q0 -51 -33 -83.5t-83 -32.5q-53 0 -85.5 32t-32.5 84q0 51 33.5 85.5t84.5 34.5q49 0 82.5 -35t33.5 -85zM444 1192q0 -51 -33 -83.5t-83 -32.5q-53 0 -85.5 32t-32.5 84q0 51 33.5 85.5
t84.5 34.5q49 0 82.5 -35t33.5 -85z" />
    <glyph glyph-name="Ydieresis" unicode="&#x178;" horiz-adv-x="1226" 
d="M518 254v252q0 48 -20 88l-147 272q-112 214 -138.5 257t-57 60.5t-105.5 26.5v78h464v-78q-61 -6 -90 -14.5t-29 -29.5q0 -14 10 -37l95 -183q85 -161 140 -256q222 430 222 472q0 25 -32.5 34t-101.5 14v78h448v-78q-70 -7 -106 -22.5t-64.5 -52t-86 -136t-129.5 -237
t-84 -166t-12 -70.5v-272q0 -117 29.5 -142.5t166.5 -33.5v-78h-558v78q130 8 158 33.5t28 142.5zM960 1538q0 -51 -33 -83.5t-83 -32.5q-52 0 -85 32.5t-33 83.5t34 87.5t84 36.5q48 0 82 -37t34 -87zM556 1538q0 -50 -33 -83t-83 -33q-53 0 -86.5 32.5t-33.5 83.5t34 87.5
t86 36.5q48 0 82 -37t34 -87z" />
    <glyph glyph-name="fraction" unicode="&#x2044;" horiz-adv-x="906" 
d="M800 1310l86 -50l-782 -1312l-84 56z" />
    <glyph glyph-name="currency" unicode="&#xa4;" horiz-adv-x="944" 
d="M236 984q91 74 218 74q122 0 216 -74l132 158l100 -96l-146 -146q80 -97 80 -250q0 -149 -80 -252l146 -144l-100 -96l-132 158q-94 -74 -216 -74q-123 0 -218 74l-132 -158l-96 96l146 144q-82 101 -82 252q0 154 82 250l-146 146l96 96zM692 650q0 126 -67 206t-169 80
t-169 -80t-67 -206q0 -128 66.5 -207t169.5 -79t169.5 79.5t66.5 206.5z" />
    <glyph glyph-name="guilsinglleft" unicode="&#x2039;" horiz-adv-x="568" 
d="M480 106l-74 -52q-183 259 -318 400q151 166 318 402l74 -50l-188 -352z" />
    <glyph glyph-name="guilsinglright" unicode="&#x203a;" horiz-adv-x="568" 
d="M162 54l-74 52l188 348l-188 352l74 50q167 -236 318 -402q-135 -141 -318 -400z" />
    <glyph glyph-name="daggerdbl" unicode="&#x2021;" horiz-adv-x="1030" 
d="M566 268v-6q160 1 256 68q83 -38 118 -116q-33 -74 -118 -112q-93 65 -256 66q7 -191 76 -302q-48 -100 -124 -138q-81 36 -130 138q72 116 76 302q-164 -1 -254 -66q-85 36 -120 112q36 80 120 116q95 -68 254 -68q-3 225 -72 282q69 62 72 274q-164 -1 -254 -66
q-83 36 -120 112q34 76 120 112q87 -63 254 -64q-5 144 -74 264q45 100 126 138q78 -37 126 -138q-68 -109 -76 -264q169 1 250 64q88 -30 124 -112q-35 -75 -118 -112q-93 65 -256 66q4 -209 72 -274q-72 -67 -72 -276z" />
    <glyph glyph-name="uni2219" unicode="&#x2219;" horiz-adv-x="470" 
d="M366 492q0 -61 -37.5 -100.5t-94.5 -39.5q-56 0 -93 39t-37 101q0 60 37 100t93 40t94 -40.5t38 -99.5z" />
    <glyph glyph-name="quotesinglbase" unicode="&#x201a;" horiz-adv-x="480" 
d="M76 -202q176 84 176 192q0 60 -39 101t-103 53q-28 4 -28 48q0 47 30.5 71.5t65.5 24.5q86 0 157 -71t71 -177q0 -111 -83 -199t-217 -125z" />
    <glyph glyph-name="quotedblbase" unicode="&#x201e;" horiz-adv-x="874" 
d="M80 -196q172 80 172 186q0 119 -138 150q-28 8 -28 46q0 46 30 70t66 24q83 0 152.5 -69.5t69.5 -172.5q0 -107 -81.5 -193t-212.5 -123zM478 -196q170 81 170 186q0 119 -138 150q-26 4 -26 46q0 45 29.5 69.5t64.5 24.5q83 0 152.5 -69.5t69.5 -172.5
q0 -107 -81.5 -193t-212.5 -123z" />
    <glyph glyph-name="perthousand" unicode="&#x2030;" horiz-adv-x="2236" 
d="M1198 1242l-762 -1322l-86 58l762 1318zM84 900q0 147 79 258.5t213 111.5q135 0 214.5 -112t79.5 -258q0 -144 -80 -256t-214 -112t-213 111.5t-79 256.5zM514 902q0 280 -134 280q-67 0 -101.5 -75.5t-34.5 -206.5q0 -127 34.5 -203.5t101.5 -76.5q66 0 100 74.5
t34 207.5zM888 344q0 148 79.5 259t214.5 111q134 0 213 -111.5t79 -258.5q0 -145 -79 -256.5t-213 -111.5q-135 0 -214.5 111.5t-79.5 256.5zM1318 344q0 282 -134 282q-67 0 -101.5 -74t-34.5 -208q0 -85 15.5 -149.5t46 -97.5t74.5 -33q66 0 100 76t34 204zM1566 344
q0 148 79.5 259t214.5 111q134 0 213 -111.5t79 -258.5q0 -145 -79 -256.5t-213 -111.5q-135 0 -214.5 111.5t-79.5 256.5zM1996 344q0 282 -134 282q-66 0 -100 -74.5t-34 -207.5q0 -130 34 -205t100 -75t100 74t34 206z" />
    <glyph glyph-name="Acircumflex" unicode="&#xc2;" horiz-adv-x="1318" 
d="M822 430h-384q-84 -252 -84 -295q0 -31 29.5 -41t104.5 -16v-78h-438v78q85 7 119.5 30.5t84.5 159.5l372 1022l84 24l212 -642q112 -334 152.5 -438t73.5 -127t120 -29v-78h-468v78q63 6 93 15t30 35q0 17 -34 121.5t-67 180.5zM472 538h316l-152 488h-4zM640 1664h64
q91 -94 250 -204l-42 -68q-146 63 -242 132q-111 -76 -240 -132l-44 68q139 91 254 204z" />
    <glyph glyph-name="Ecircumflex" unicode="&#xca;" horiz-adv-x="1124" 
d="M258 258v774q0 85 -10 118t-41 44t-113 18v76h864q19 -264 22 -296l-86 -10q-27 128 -67 170t-181 42h-152q-50 0 -55 -12t-5 -50v-412h174q87 0 120 8t44 33t22 97h86v-388h-86q-13 78 -25.5 105.5t-44.5 36t-116 8.5h-174v-348q0 -84 18 -123t62.5 -48t153.5 -9
q80 0 127 7t74.5 26.5t61.5 77.5t57 133l84 -14q-39 -228 -66 -322h-928v78q92 7 125.5 17.5t44 43.5t10.5 119zM556 1674h64q91 -94 250 -204l-42 -68q-146 63 -242 132q-111 -76 -240 -132l-44 68q139 91 254 204z" />
    <glyph glyph-name="Aacute" unicode="&#xc1;" horiz-adv-x="1318" 
d="M822 430h-384q-84 -252 -84 -295q0 -31 29.5 -41t104.5 -16v-78h-438v78q85 7 119.5 30.5t84.5 159.5l372 1022l84 24l212 -642q112 -334 152.5 -438t73.5 -127t120 -29v-78h-468v78q63 6 93 15t30 35q0 17 -34 121.5t-67 180.5zM472 538h316l-152 488h-4zM571 1477
l226 140q104 65 111.5 68t15.5 3q27 0 62.5 -47.5t35.5 -62.5q0 -14 -11.5 -22t-130.5 -50l-271 -95z" />
    <glyph glyph-name="Edieresis" unicode="&#xcb;" horiz-adv-x="1124" 
d="M258 258v774q0 85 -10 118t-41 44t-113 18v76h864q19 -264 22 -296l-86 -10q-27 128 -67 170t-181 42h-152q-50 0 -55 -12t-5 -50v-412h174q87 0 120 8t44 33t22 97h86v-388h-86q-13 78 -25.5 105.5t-44.5 36t-116 8.5h-174v-348q0 -84 18 -123t62.5 -48t153.5 -9
q80 0 127 7t74.5 26.5t61.5 77.5t57 133l84 -14q-39 -228 -66 -322h-928v78q92 7 125.5 17.5t44 43.5t10.5 119zM890 1538q0 -51 -33 -83.5t-83 -32.5q-52 0 -85 32.5t-33 83.5t34 87.5t84 36.5q48 0 82 -37t34 -87zM486 1538q0 -50 -33 -83t-83 -33q-53 0 -86.5 32.5
t-33.5 83.5t34 87.5t86 36.5q48 0 82 -37t34 -87z" />
    <glyph glyph-name="Egrave" unicode="&#xc8;" horiz-adv-x="1124" 
d="M258 258v774q0 85 -10 118t-41 44t-113 18v76h864q19 -264 22 -296l-86 -10q-27 128 -67 170t-181 42h-152q-50 0 -55 -12t-5 -50v-412h174q87 0 120 8t44 33t22 97h86v-388h-86q-13 78 -25.5 105.5t-44.5 36t-116 8.5h-174v-348q0 -84 18 -123t62.5 -48t153.5 -9
q80 0 127 7t74.5 26.5t61.5 77.5t57 133l84 -14q-39 -228 -66 -322h-928v78q92 7 125.5 17.5t44 43.5t10.5 119zM642 1442l-279 98q-113 40 -123.5 48t-10.5 21q0 14 36.5 62.5t63.5 48.5q9 0 16.5 -2.5t109.5 -67.5l227 -142z" />
    <glyph glyph-name="Iacute" unicode="&#xcd;" horiz-adv-x="692" 
d="M258 258v772q0 119 -26 145.5t-144 34.5v78h516v-78q-118 -8 -144 -34.5t-26 -145.5v-772q0 -86 10 -119t42.5 -44.5t117.5 -16.5v-78h-516v78q85 5 117.5 16.5t42.5 44.5t10 119zM264 1478l226 140q104 65 111.5 68t15.5 3q27 0 62.5 -47.5t35.5 -62.5q0 -14 -11.5 -22
t-130.5 -50l-271 -95z" />
    <glyph glyph-name="Icircumflex" unicode="&#xce;" horiz-adv-x="692" 
d="M258 258v772q0 119 -26 145.5t-144 34.5v78h516v-78q-118 -8 -144 -34.5t-26 -145.5v-772q0 -86 10 -119t42.5 -44.5t117.5 -16.5v-78h-516v78q85 5 117.5 16.5t42.5 44.5t10 119zM317 1684h64q91 -94 250 -204l-42 -68q-146 63 -242 132q-111 -76 -240 -132l-44 68
q139 91 254 204z" />
    <glyph glyph-name="Idieresis" unicode="&#xcf;" horiz-adv-x="692" 
d="M258 258v772q0 119 -26 145.5t-144 34.5v78h516v-78q-118 -8 -144 -34.5t-26 -145.5v-772q0 -86 10 -119t42.5 -44.5t117.5 -16.5v-78h-516v78q85 5 117.5 16.5t42.5 44.5t10 119zM667 1538q0 -51 -33 -83.5t-83 -32.5q-52 0 -85 32.5t-33 83.5t34 87.5t84 36.5
q48 0 82 -37t34 -87zM263 1538q0 -50 -33 -83t-83 -33q-53 0 -86.5 32.5t-33.5 83.5t34 87.5t86 36.5q48 0 82 -37t34 -87z" />
    <glyph glyph-name="Igrave" unicode="&#xcc;" horiz-adv-x="692" 
d="M258 258v772q0 119 -26 145.5t-144 34.5v78h516v-78q-118 -8 -144 -34.5t-26 -145.5v-772q0 -86 10 -119t42.5 -44.5t117.5 -16.5v-78h-516v78q85 5 117.5 16.5t42.5 44.5t10 119zM403 1413l-279 98q-113 40 -123.5 48t-10.5 21q0 14 36.5 62.5t63.5 48.5q9 0 16.5 -2.5
t109.5 -67.5l227 -142z" />
    <glyph glyph-name="Oacute" unicode="&#xd3;" horiz-adv-x="1354" 
d="M100 632q0 281 163.5 481.5t430.5 200.5q234 0 397 -184t163 -468q0 -310 -164.5 -499t-419.5 -189q-247 0 -408.5 186.5t-161.5 471.5zM1048 592q0 310 -102.5 469t-291.5 159q-159 0 -251.5 -139.5t-92.5 -394.5q0 -282 105.5 -450t290.5 -168q165 0 253.5 134
t88.5 390zM577 1477l226 140q104 65 111.5 68t15.5 3q27 0 62.5 -47.5t35.5 -62.5q0 -14 -11.5 -22t-130.5 -50l-271 -95z" />
    <glyph glyph-name="Ocircumflex" unicode="&#xd4;" horiz-adv-x="1354" 
d="M100 632q0 281 163.5 481.5t430.5 200.5q234 0 397 -184t163 -468q0 -310 -164.5 -499t-419.5 -189q-247 0 -408.5 186.5t-161.5 471.5zM1048 592q0 310 -102.5 469t-291.5 159q-159 0 -251.5 -139.5t-92.5 -394.5q0 -282 105.5 -450t290.5 -168q165 0 253.5 134
t88.5 390zM649 1683h64q91 -94 250 -204l-42 -68q-146 63 -242 132q-111 -76 -240 -132l-44 68q139 91 254 204z" />
    <glyph glyph-name="apple" unicode="&#xf000;" horiz-adv-x="1618" 
 />
    <glyph glyph-name="Ograve" unicode="&#xd2;" horiz-adv-x="1354" 
d="M100 632q0 281 163.5 481.5t430.5 200.5q234 0 397 -184t163 -468q0 -310 -164.5 -499t-419.5 -189q-247 0 -408.5 186.5t-161.5 471.5zM1048 592q0 310 -102.5 469t-291.5 159q-159 0 -251.5 -139.5t-92.5 -394.5q0 -282 105.5 -450t290.5 -168q165 0 253.5 134
t88.5 390zM745 1411l-279 98q-113 40 -123.5 48t-10.5 21q0 14 36.5 62.5t63.5 48.5q9 0 16.5 -2.5t109.5 -67.5l227 -142z" />
    <glyph glyph-name="Uacute" unicode="&#xda;" horiz-adv-x="1398" 
d="M242 506v528q0 116 -26.5 143t-147.5 33v78h516v-78q-115 -8 -140.5 -34t-25.5 -142v-458q0 -158 31.5 -263t99.5 -159t191 -54q171 0 247.5 136.5t76.5 409.5v118q0 334 -25 388t-175 58v78h490v-78q-137 0 -157.5 -71t-20.5 -375v-152q0 -366 -140 -502t-336 -136
q-226 0 -342 124t-116 408zM642 1478l226 140q104 65 111.5 68t15.5 3q27 0 62.5 -47.5t35.5 -62.5q0 -14 -11.5 -22t-130.5 -50l-271 -95z" />
    <glyph glyph-name="Ucircumflex" unicode="&#xdb;" horiz-adv-x="1398" 
d="M242 506v528q0 116 -26.5 143t-147.5 33v78h516v-78q-115 -8 -140.5 -34t-25.5 -142v-458q0 -158 31.5 -263t99.5 -159t191 -54q171 0 247.5 136.5t76.5 409.5v118q0 334 -25 388t-175 58v78h490v-78q-137 0 -157.5 -71t-20.5 -375v-152q0 -366 -140 -502t-336 -136
q-226 0 -342 124t-116 408zM700 1684h64q91 -94 250 -204l-42 -68q-146 63 -242 132q-111 -76 -240 -132l-44 68q139 91 254 204z" />
    <glyph glyph-name="Ugrave" unicode="&#xd9;" horiz-adv-x="1398" 
d="M242 506v528q0 116 -26.5 143t-147.5 33v78h516v-78q-115 -8 -140.5 -34t-25.5 -142v-458q0 -158 31.5 -263t99.5 -159t191 -54q171 0 247.5 136.5t76.5 409.5v118q0 334 -25 388t-175 58v78h490v-78q-137 0 -157.5 -71t-20.5 -375v-152q0 -366 -140 -502t-336 -136
q-226 0 -342 124t-116 408zM772 1413l-279 98q-113 40 -123.5 48t-10.5 21q0 14 36.5 62.5t63.5 48.5q9 0 16.5 -2.5t109.5 -67.5l227 -142z" />
    <glyph glyph-name="dotlessi" unicode="&#x131;" horiz-adv-x="576" 
d="M220 228v390q0 77 -7 105t-30 37.5t-93 19.5v68q152 27 298 82v-702q0 -99 21 -120t121 -30v-78h-450v78q98 9 119 30.5t21 119.5z" />
    <glyph glyph-name="circumflex" unicode="&#x2c6;" 
d="M362 1376h76q70 -135 202 -324l-82 -52l-158 208l-162 -208l-80 52q140 200 204 324z" />
    <glyph glyph-name="tilde" unicode="&#x2dc;" horiz-adv-x="798" 
d="M104 1106q83 160 182 160q47 0 130 -36q77 -32 110 -32q43 0 94 86l78 -48q-75 -162 -186 -162q-36 0 -152 48q-55 22 -84 22q-49 0 -98 -90z" />
    <glyph glyph-name="macron" unicode="&#xaf;" 
d="M150 1242h500v-130h-500v130z" />
    <glyph glyph-name="breve" unicode="&#x2d8;" 
d="M648 1338q0 -280 -248 -280t-248 280h94q19 -156 154 -156q62 0 102.5 40t49.5 116h96z" />
    <glyph glyph-name="dotaccent" unicode="&#x2d9;" horiz-adv-x="612" 
d="M424 1172q0 -51 -33 -83.5t-83 -32.5q-53 0 -85.5 32t-32.5 84q0 50 33 85t85 35q49 0 82.5 -35t33.5 -85z" />
    <glyph glyph-name="ring" unicode="&#x2da;" 
d="M186 1222q0 90 64 145t150 55q88 0 151 -56t63 -144q0 -90 -63.5 -148t-150.5 -58t-150.5 58t-63.5 148zM508 1220q0 52 -29 84t-77 32t-77 -31.5t-29 -82.5q0 -52 29.5 -86t76.5 -34q46 0 76 33.5t30 84.5z" />
    <glyph glyph-name="cedilla" unicode="&#xb8;" 
d="M392 -2h100q-56 -79 -59.5 -84.5t-3.5 -15.5q0 -15 25 -42q76 -82 76 -148q0 -137 -232 -218l-40 76q126 61 126 126q0 22 -42 68q-44 48 -44 78q0 26 24 60z" />
    <glyph glyph-name="hungarumlaut" unicode="&#x2dd;" horiz-adv-x="814" 
d="M62 1092l155 225q60 88 72.5 96t26.5 8q17 0 65 -29.5t48 -52.5q0 -12 -7.5 -23t-96.5 -91l-201 -181zM384 1050l155 225q60 88 72.5 96t26.5 8q16 0 64.5 -29.5t48.5 -51.5q0 -12 -7.5 -23.5t-96.5 -91.5l-203 -181z" />
    <glyph glyph-name="ogonek" unicode="&#x2db;" 
d="M450 60h108q-202 -177 -202 -300q0 -49 29.5 -78.5t72.5 -29.5q37 0 90 20l26 -64q-112 -59 -132.5 -66.5t-45.5 -7.5q-84 0 -130 48t-46 116q0 156 230 362z" />
    <glyph glyph-name="caron" unicode="&#x2c7;" 
d="M436 1018h-76q-73 141 -202 322l80 52q124 -154 160 -206q28 40 162 206l80 -52q-137 -191 -204 -322z" />
    <glyph glyph-name="Lslash" unicode="&#x141;" horiz-adv-x="1094" 
d="M688 844l-230 -172v-386q0 -126 30.5 -160t179.5 -34q134 0 189 36t109 210l86 -14q-42 -245 -68 -324h-876v76q121 8 147.5 34.5t26.5 145.5v282l-184 -138v114l184 140v376q0 119 -26 145.5t-146 34.5v78h524v-78q-123 -8 -149.5 -34.5t-26.5 -145.5v-238l230 172v-120
z" />
    <glyph glyph-name="lslash" unicode="&#x142;" horiz-adv-x="594" 
d="M570 904l-192 -176v-510q0 -91 21 -111t121 -29v-78h-452v78q100 9 121 29t21 111v358l-172 -158v120l172 158v448q0 75 -7.5 101.5t-32.5 34t-98 10.5v76q186 26 306 72v-590l192 176v-120z" />
    <glyph glyph-name="Scaron" unicode="&#x160;" horiz-adv-x="974" 
d="M90 360l84 14q97 -306 318 -306q103 0 162.5 59.5t59.5 164.5q0 88 -49 154.5t-193 137.5q-192 94 -259 184t-67 190q0 152 110.5 254t289.5 102q115 0 252 -48l38 -282l-86 -12q-35 139 -92 192.5t-148 53.5t-143.5 -53.5t-52.5 -140.5q0 -93 58 -152.5t180 -115.5
q199 -91 266.5 -186t67.5 -210q0 -169 -122 -277.5t-310 -108.5q-141 0 -306 68q-14 46 -58 318zM537 1419h-66q-92 95 -250 204l42 68q134 -55 242 -132q126 84 240 132l44 -68q-138 -89 -252 -204z" />
    <glyph glyph-name="scaron" unicode="&#x161;" horiz-adv-x="818" 
d="M694 662l-80 -18q-74 192 -198 192q-56 0 -91 -34.5t-35 -87.5q0 -97 172 -166q264 -103 264 -290q0 -127 -104 -204.5t-244 -77.5q-49 0 -97 11t-86.5 28.5t-62.5 35.5q-14 11 -26 105q-8 68 -8 150l76 14q27 -109 94 -179.5t146 -70.5q59 0 99.5 35t40.5 93
q0 120 -158 186q-140 57 -200 123t-60 149q0 117 91 195.5t233 78.5q96 0 180 -38q31 -61 54 -230zM467 1037h-76q-73 141 -202 322l80 52q124 -154 160 -206q28 40 162 206l80 -52q-137 -191 -204 -322z" />
    <glyph glyph-name="Zcaron" unicode="&#x17d;" horiz-adv-x="1144" 
d="M336 1288h694l18 -32l-732 -1152q113 -12 286 -12q114 0 193 16t122 62.5t93 181.5l86 -16q-52 -283 -68 -336h-940l-20 38l740 1156h-256q-170 0 -220.5 -39.5t-83.5 -190.5l-86 2q18 273 22 372h54q18 -33 35 -41.5t63 -8.5zM632 1420h-66q-92 95 -250 204l42 68
q134 -55 242 -132q126 84 240 132l44 -68q-138 -89 -252 -204z" />
    <glyph glyph-name="zcaron" unicode="&#x17e;" horiz-adv-x="884" 
d="M314 906h470l20 -30l-490 -782h186q96 0 151 24.5t121 163.5l82 -30q-41 -134 -88 -252h-670l-18 30l165 258l327 524h-168q-63 0 -99.5 -16.5t-58 -49t-62.5 -126.5l-82 26q37 140 66 304h46q13 -44 102 -44zM506 1037h-76q-73 141 -202 322l80 52q124 -154 160 -206
q28 40 162 206l80 -52q-137 -191 -204 -322z" />
    <glyph glyph-name="brokenbar" unicode="&#xa6;" horiz-adv-x="514" 
d="M180 650v700h156v-700h-156zM180 -350v700h156v-700h-156z" />
    <glyph glyph-name="Eth" unicode="&#xd0;" horiz-adv-x="1396" 
d="M284 294v326h-194v102h194v270q0 105 -10 145.5t-40.5 54t-111.5 18.5v78h486q367 0 528.5 -170t161.5 -426q0 -335 -205.5 -513.5t-572.5 -178.5h-412v76q89 7 122 20t43.5 53t10.5 145zM460 1124v-402h290v-102h-290v-336q0 -111 31 -147.5t133 -36.5q226 0 349 146
t123 404q0 265 -123.5 406.5t-378.5 141.5q-114 0 -124 -17t-10 -57z" />
    <glyph glyph-name="eth" unicode="&#xf0;" horiz-adv-x="1046" 
d="M698 1202q252 -273 252 -646q0 -275 -120.5 -427.5t-311.5 -152.5q-185 0 -305.5 138.5t-120.5 321.5q0 145 62.5 257t169.5 174.5t216 62.5q118 0 184 -60q-60 179 -142 268l-266 -144l-40 80l244 132q-145 120 -316 152q-6 8 -6 26q0 23 9 38.5t15 15.5q58 0 179.5 -43
t224.5 -125l250 134l42 -80zM769 520q0 133 -19 183.5t-81.5 90.5t-140.5 40q-107 0 -172.5 -86.5t-65.5 -235.5q0 -197 72.5 -318.5t189.5 -121.5q110 0 163.5 102t53.5 346z" />
    <glyph glyph-name="Yacute" unicode="&#xdd;" horiz-adv-x="1226" 
d="M518 254v252q0 48 -20 88l-147 272q-112 214 -138.5 257t-57 60.5t-105.5 26.5v78h464v-78q-61 -6 -90 -14.5t-29 -29.5q0 -14 10 -37l95 -183q85 -161 140 -256q222 430 222 472q0 25 -32.5 34t-101.5 14v78h448v-78q-70 -7 -106 -22.5t-64.5 -52t-86 -136t-129.5 -237
t-84 -166t-12 -70.5v-272q0 -117 29.5 -142.5t166.5 -33.5v-78h-558v78q130 8 158 33.5t28 142.5zM568 1478l226 140q104 65 111.5 68t15.5 3q27 0 62.5 -47.5t35.5 -62.5q0 -14 -11.5 -22t-130.5 -50l-271 -95z" />
    <glyph glyph-name="yacute" unicode="&#xfd;" horiz-adv-x="958" 
d="M26 906h420v-78q-49 -7 -71 -18.5t-22 -36.5q0 -12 43 -145l124 -380q195 472 195 526q0 25 -26 36t-79 18v78h390v-78q-75 -12 -103.5 -31.5t-69 -93.5t-150 -328.5l-201 -483.5t-122.5 -347q-13 -54 -76 -54q-48 0 -88 35.5t-40 74.5q0 46 50 78q78 54 147 175t69 173
q0 23 -26 100l-83 245l-92.5 267t-51.5 127t-46.5 43t-90.5 20v78zM468 1074l155 221q62 89 74.5 97.5t26.5 8.5q15 0 65 -29t50 -53q0 -13 -7.5 -24.5t-96.5 -91.5l-203 -181z" />
    <glyph glyph-name="Thorn" unicode="&#xde;" horiz-adv-x="1108" 
d="M248 296v696q0 104 -10.5 145t-42.5 54.5t-115 18.5v78h512v-78q-85 -5 -117.5 -18.5t-42.5 -52t-10 -139.5h186q193 0 301.5 -85.5t108.5 -246.5q0 -178 -133 -272t-323 -94l-140 24v-44q0 -98 11 -136t46 -50t127 -18v-78h-528v78q85 6 117 18.5t42.5 53.5t10.5 146z
M422 846v-422q63 -30 136 -30q126 0 196 68.5t70 191.5q0 256 -282 256q-91 0 -105.5 -10t-14.5 -54z" />
    <glyph glyph-name="thorn" unicode="&#xfe;" horiz-adv-x="1076" 
d="M174 -256v1358q0 102 -20 122t-128 26v76q154 16 316 64v-576q196 98 222 107t64 9q154 0 254 -120t100 -276q0 -91 -24.5 -172t-73.5 -150t-119.5 -121.5t-159 -83.5t-121.5 -31q-24 0 -69 10t-73 28v-274q0 -98 26.5 -119t153.5 -29v-78h-496v78q102 8 125 30t23 122z
M342 716v-538q67 -78 198 -78q109 0 183.5 86t74.5 246q0 186 -70 272t-190 86q-102 0 -196 -74z" />
    <glyph glyph-name="minus" unicode="&#x2212;" horiz-adv-x="1272" 
d="M114 618h1044v-130h-1044v130z" />
    <glyph glyph-name="multiply" unicode="&#xd7;" horiz-adv-x="1272" 
d="M1138 952l-408 -416l408 -414l-96 -102l-408 418l-404 -418l-96 102l404 414l-404 418l96 98l404 -418l408 418z" />
    <glyph glyph-name="one.superior" unicode="&#xb9;" horiz-adv-x="676" 
d="M278 674v376q0 71 -12 79t-114 13v64q145 17 270 64v-596q0 -82 27 -97t103 -17v-68h-404v68q79 3 104.5 19.5t25.5 94.5z" />
    <glyph glyph-name="two.superior" unicode="&#xb2;" horiz-adv-x="676" 
d="M574 492h-520v56q224 187 292 287t68 177q0 73 -36.5 109.5t-95.5 36.5q-75 0 -158 -120l-60 52q83 106 106 126.5t68 37t94 16.5q107 0 173.5 -63.5t66.5 -172.5q0 -73 -44 -149.5t-266 -272.5v-2h162q55 0 74.5 12t45.5 66l72 -10z" />
    <glyph glyph-name="three.superior" unicode="&#xb3;" horiz-adv-x="676" 
d="M96 1110l60 83q14 19 43.5 37.5t64.5 29t70 10.5q97 0 155.5 -47t58.5 -117q0 -79 -122 -136v-4q82 -20 128 -73.5t46 -126.5q0 -128 -123 -208t-241 -80q-62 0 -115 24.5t-53 62.5q0 27 25.5 54t43.5 27q14 0 23 -8q28 -24 70.5 -43t77.5 -19q62 0 102 41t40 113
q0 69 -42.5 108.5t-111.5 39.5q-49 0 -104 -20l-16 64q218 73 218 160q0 88 -100 88q-72 0 -140 -108z" />
    <glyph glyph-name="onehalf" unicode="&#xbd;" horiz-adv-x="1726" 
d="M288 674v376q0 71 -12 79t-114 13v64q145 17 270 64v-596q0 -82 27 -97t103 -17v-68h-404v68q79 3 104.5 19.5t25.5 94.5zM1202 1310l86 -50l-782 -1312l-84 56zM1570 1h-520v56q224 187 292 287t68 177q0 73 -36.5 109.5t-95.5 36.5q-75 0 -158 -120l-60 52
q83 106 106 126.5t68 37t94 16.5q107 0 173.5 -63.5t66.5 -172.5q0 -73 -44 -149.5t-266 -272.5v-2h162q55 0 74.5 12t45.5 66l72 -10z" />
    <glyph glyph-name="onequarter" unicode="&#xbc;" horiz-adv-x="1726" 
d="M294 674v376q0 71 -12 79t-114 13v64q145 17 270 64v-596q0 -82 27 -97t103 -17v-68h-404v68q79 3 104.5 19.5t25.5 94.5zM1216 1310l86 -50l-782 -1312l-84 56zM1448 781v-482h122v-84h-122v-40q0 -69 19.5 -85.5t92.5 -22.5v-66h-394v66q94 6 118 22.5t24 85.5v40h-342
v58q158 229 374 508h108zM1308 299v306h-4q-92 -116 -206 -306h210z" />
    <glyph glyph-name="threequarters" unicode="&#xbe;" horiz-adv-x="1726" 
d="M158 1110l60 83q14 19 43.5 37.5t64.5 29t70 10.5q97 0 155.5 -47t58.5 -117q0 -79 -122 -136v-4q82 -20 128 -73.5t46 -126.5q0 -128 -123 -208t-241 -80q-62 0 -115 24.5t-53 62.5q0 27 25.5 54t43.5 27q14 0 23 -8q28 -24 70.5 -43t77.5 -19q62 0 102 41t40 113
q0 69 -42.5 108.5t-111.5 39.5q-49 0 -104 -20l-16 64q218 73 218 160q0 88 -100 88q-72 0 -140 -108zM1240 1310l86 -50l-782 -1312l-84 56zM1459 781v-482h122v-84h-122v-40q0 -69 19.5 -85.5t92.5 -22.5v-66h-394v66q94 6 118 22.5t24 85.5v40h-342v58q158 229 374 508
h108zM1319 299v306h-4q-92 -116 -206 -306h210z" />
    <glyph glyph-name="Gbreve" unicode="&#x11e;" horiz-adv-x="1294" 
d="M1128 400v-168q0 -122 10 -188q-228 -70 -374 -70q-298 0 -481 180t-183 476q0 206 87.5 361t246 239t346.5 84q166 0 322 -44q17 -206 32 -318l-86 -8q-21 131 -90 203.5t-214 72.5q-196 0 -317 -148t-121 -410q0 -266 123.5 -430t346.5 -164q73 0 113.5 11t51.5 34.5
t11 84.5v178q0 70 -10.5 96t-49.5 36.5t-146 19.5v78h494v-78q-80 -12 -96 -29.5t-16 -98.5zM1002 1674q-2 -117 -73 -179.5t-191 -62.5q-118 0 -190 62.5t-74 179.5h86q33 -126 178 -126q144 0 176 126h88z" />
    <glyph glyph-name="gbreve" unicode="&#x11f;" horiz-adv-x="980" 
d="M302 320q-79 32 -129.5 105t-50.5 159q0 162 113 254t249 92q38 0 71 -6t64 -18l61 -26q71 0 266 26l12 -20q-35 -81 -80 -110l-104 8q48 -74 48 -166q0 -147 -106 -237.5t-250 -90.5l-62 4q-11 0 -49.5 -31.5t-38.5 -60.5q0 -68 116 -68l214 4q136 0 215 -62.5
t79 -183.5q0 -172 -150 -287t-360 -115q-164 0 -263 79.5t-99 184.5q0 82 73 144.5l131 109.5q-158 59 -158 184q122 54 188 128zM652 598q0 113 -48.5 177.5t-131.5 64.5q-75 0 -120.5 -54.5t-45.5 -157.5q0 -113 51.5 -179.5t136.5 -66.5q70 0 114 56t44 160zM798 -170
q0 86 -65 128t-227 42q-132 0 -198 -65.5t-66 -132.5q0 -90 74.5 -145t195.5 -55q127 0 206.5 67t79.5 161zM738 1358q0 -280 -248 -280t-248 280h94q19 -156 154 -156q62 0 102.5 40t49.5 116h96z" />
    <glyph glyph-name="Scedilla" unicode="&#x15e;" horiz-adv-x="974" 
d="M90 360l84 14q97 -306 318 -306q103 0 162.5 59.5t59.5 164.5q0 88 -49 154.5t-193 137.5q-192 94 -259 184t-67 190q0 152 110.5 254t289.5 102q115 0 252 -48l38 -282l-86 -12q-35 139 -92 192.5t-148 53.5t-143.5 -53.5t-52.5 -140.5q0 -93 58 -152.5t180 -115.5
q199 -91 266.5 -186t67.5 -210q0 -141 -89 -244.5t-243 -131.5q-46 -63 -50 -69t-4 -16q0 -15 26 -43q76 -82 76 -148q0 -137 -232 -218l-38 74q126 66 126 128q0 24 -44 68q-44 48 -44 78q0 13 6.5 29.5t71.5 106.5q-134 0 -300 68q-14 46 -58 318z" />
    <glyph glyph-name="scedilla" unicode="&#x15f;" horiz-adv-x="818" 
d="M694 662l-80 -18q-74 192 -198 192q-56 0 -91 -34.5t-35 -87.5q0 -97 172 -166q264 -103 264 -290q0 -94 -60 -163.5t-168 -102.5l-55 -79t-4 -15q0 -15 25 -42q76 -82 76 -148q0 -137 -232 -218l-40 76q126 61 126 126q0 22 -42 68q-45 49 -45 78q0 18 8.5 33.5
t72.5 104.5q-75 0 -146 22q-110 33 -120 70q-24 86 -24 238l76 14q27 -109 94 -179.5t146 -70.5q59 0 99.5 35t40.5 93q0 120 -158 186q-140 57 -200 123t-60 149q0 117 91 195.5t233 78.5q96 0 180 -38q31 -61 54 -230z" />
    <glyph glyph-name="Cacute" unicode="&#x106;" horiz-adv-x="1208" 
d="M1114 950l-86 -12q-53 280 -296 280q-198 0 -313 -150.5t-115 -399.5q0 -273 118.5 -436.5t305.5 -163.5q119 0 193.5 68t144.5 236l86 -20q-68 -268 -94 -328q-169 -50 -320 -50q-300 0 -470 185.5t-170 466.5q0 304 191.5 496t486.5 192q149 0 304 -44q20 -143 34 -320
zM528 1478l226 140q104 65 111.5 68t15.5 3q27 0 62.5 -47.5t35.5 -62.5q0 -14 -11.5 -22t-130.5 -50l-271 -95z" />
    <glyph glyph-name="cacute" unicode="&#x107;" horiz-adv-x="880" 
d="M838 170q-72 -88 -163.5 -141t-172.5 -53q-179 0 -293.5 127t-114.5 307q0 143 74.5 264t201.5 188.5t240 67.5q57 0 131.5 -26.5t74.5 -89.5q0 -31 -28 -66.5t-50 -35.5q-20 0 -34 16q-84 84 -204 84q-94 0 -161 -82.5t-67 -235.5q0 -120 37.5 -203.5t104.5 -126
t144 -42.5q69 0 119 26.5t105 83.5zM400 1074l155 221q62 89 74.5 97.5t26.5 8.5q15 0 65 -29t50 -53q0 -13 -7.5 -24.5t-96.5 -91.5l-203 -181z" />
    <glyph glyph-name="Ccaron" unicode="&#x10c;" horiz-adv-x="1208" 
d="M1114 950l-86 -12q-53 280 -296 280q-198 0 -313 -150.5t-115 -399.5q0 -273 118.5 -436.5t305.5 -163.5q119 0 193.5 68t144.5 236l86 -20q-68 -268 -94 -328q-169 -50 -320 -50q-300 0 -470 185.5t-170 466.5q0 304 191.5 496t486.5 192q149 0 304 -44q20 -143 34 -320
zM736 1420h-66q-92 95 -250 204l42 68q134 -55 242 -132q126 84 240 132l44 -68q-138 -89 -252 -204z" />
    <glyph glyph-name="ccaron" unicode="&#x10d;" horiz-adv-x="880" 
d="M838 170q-72 -88 -163.5 -141t-172.5 -53q-179 0 -293.5 127t-114.5 307q0 143 74.5 264t201.5 188.5t240 67.5q57 0 131.5 -26.5t74.5 -89.5q0 -31 -28 -66.5t-50 -35.5q-20 0 -34 16q-84 84 -204 84q-94 0 -161 -82.5t-67 -235.5q0 -120 37.5 -203.5t104.5 -126
t144 -42.5q69 0 119 26.5t105 83.5zM556 1038h-76q-73 141 -202 322l80 52q124 -154 160 -206q28 40 162 206l80 -52q-137 -191 -204 -322z" />
    <glyph glyph-name="hyphen" unicode="-" horiz-adv-x="692" 
d="M108 522h476v-138h-476v138z" />
    <glyph glyph-name="uni02C9" unicode="&#x2c9;" horiz-adv-x="1000" 
d="M0 1536h1000v-100h-1000v100z" />
    <glyph glyph-name="Amacron" unicode="&#x100;" horiz-adv-x="1318" 
d="M822 430h-384q-84 -252 -84 -295q0 -31 29.5 -41t104.5 -16v-78h-438v78q85 7 119.5 30.5t84.5 159.5l372 1022l84 24l212 -642q112 -334 152.5 -438t73.5 -127t120 -29v-78h-468v78q63 6 93 15t30 35q0 17 -34 121.5t-67 180.5zM472 538h316l-152 488h-4zM911 1476h-504
v126h504v-126z" />
    <glyph glyph-name="amacron" unicode="&#x101;" horiz-adv-x="954" 
d="M760 670v-436q0 -116 60 -116q26 0 76 24l28 -72l-194 -94q-30 0 -69.5 29.5t-60.5 92.5q-180 -122 -248 -122q-106 0 -180 77.5t-74 184.5q0 69 30.5 119t77.5 76.5t173 74.5q195 75 215 98v36q0 88 -43 136t-117 48q-40 0 -82 -29t-78 -143q-16 -50 -62 -50
q-33 0 -65.5 27.5t-32.5 60.5q0 23 11.5 41.5t35.5 39.5t55 41t76 43.5t110.5 48t89.5 24.5q114 0 191 -65t77 -195zM594 198v304q-209 -94 -238 -110t-51.5 -47.5t-22.5 -82.5q0 -68 44 -110t96 -42q79 0 172 88zM228 1242h500v-130h-500v130z" />
    <glyph glyph-name="Abreve" unicode="&#x102;" horiz-adv-x="1318" 
d="M822 430h-384q-84 -252 -84 -295q0 -31 29.5 -41t104.5 -16v-78h-438v78q85 7 119.5 30.5t84.5 159.5l372 1022l84 24l212 -642q112 -334 152.5 -438t73.5 -127t120 -29v-78h-468v78q63 6 93 15t30 35q0 17 -34 121.5t-67 180.5zM472 538h316l-152 488h-4zM924 1674
q-2 -117 -73 -179.5t-191 -62.5q-118 0 -190 62.5t-74 179.5h86q33 -126 178 -126q144 0 176 126h88z" />
    <glyph glyph-name="abreve" unicode="&#x103;" horiz-adv-x="954" 
d="M760 670v-436q0 -116 60 -116q26 0 76 24l28 -72l-194 -94q-30 0 -69.5 29.5t-60.5 92.5q-180 -122 -248 -122q-106 0 -180 77.5t-74 184.5q0 69 30.5 119t77.5 76.5t173 74.5q195 75 215 98v36q0 88 -43 136t-117 48q-40 0 -82 -29t-78 -143q-16 -50 -62 -50
q-33 0 -65.5 27.5t-32.5 60.5q0 23 11.5 41.5t35.5 39.5t55 41t76 43.5t110.5 48t89.5 24.5q114 0 191 -65t77 -195zM594 198v304q-209 -94 -238 -110t-51.5 -47.5t-22.5 -82.5q0 -68 44 -110t96 -42q79 0 172 88zM726 1358q0 -280 -248 -280t-248 280h94q19 -156 154 -156
q62 0 102.5 40t49.5 116h96z" />
    <glyph glyph-name="Aogonek" unicode="&#x104;" horiz-adv-x="1318" 
d="M822 430h-384q-84 -252 -84 -295q0 -31 29.5 -41t104.5 -16v-78h-438v78q85 7 119.5 30.5t84.5 159.5l372 1022l84 24l212 -642q112 -334 152.5 -438t73.5 -127t120 -29v-78h-52q-140 -137 -140 -240q0 -50 30 -79t72 -29q37 0 90 20l26 -64q-112 -59 -132.5 -66.5
t-45.5 -7.5q-84 0 -130 48t-46 116q0 132 170 302h-310v78q63 6 93 15t30 35q0 17 -34 121.5t-67 180.5zM472 538h316l-152 488h-4z" />
    <glyph glyph-name="aogonek" unicode="&#x105;" horiz-adv-x="954" 
d="M760 670v-436q0 -116 60 -116q26 0 76 24l28 -72q-204 -177 -204 -300q0 -49 29.5 -78.5t72.5 -29.5q37 0 90 20l26 -64q-112 -59 -132.5 -66.5t-45.5 -7.5q-84 0 -130 48t-46 116q0 120 138 268q-90 21 -122 122q-180 -122 -248 -122q-106 0 -180 77.5t-74 184.5
q0 69 30.5 119t77.5 76.5t173 74.5q195 75 215 98v36q0 88 -43 136t-117 48q-40 0 -82 -29t-78 -143q-16 -50 -62 -50q-33 0 -65.5 27.5t-32.5 60.5q0 23 11.5 41.5t35.5 39.5t55 41t76 43.5t110.5 48t89.5 24.5q114 0 191 -65t77 -195zM594 198v304q-209 -94 -238 -110
t-51.5 -47.5t-22.5 -82.5q0 -68 44 -110t96 -42q79 0 172 88z" />
    <glyph glyph-name="Dcaron" unicode="&#x10e;" horiz-adv-x="1368" 
d="M256 256v774q0 119 -25 145.5t-137 34.5v78h486q367 0 528.5 -170t161.5 -426q0 -330 -202.5 -511t-577.5 -181h-410v76q123 9 149.5 35t26.5 145zM432 1124v-854q0 -110 34 -140t128 -30q227 0 350.5 146.5t123.5 407.5q0 544 -502 544q-103 0 -118.5 -13.5t-15.5 -60.5
zM686 1420h-66q-92 95 -250 204l42 68q134 -55 242 -132q126 84 240 132l44 -68q-138 -89 -252 -204z" />
    <glyph glyph-name="dcaron" unicode="&#x10f;" horiz-adv-x="1268" 
d="M910 1438v-1186q0 -65 9 -87t28.5 -26t116.5 -9v-76q-213 -38 -322 -78v120q-171 -96 -200.5 -108t-65.5 -12q-146 0 -268 124t-122 320q0 210 153 360t375 150q74 0 128 -20v242q0 82 -9.5 100t-30.5 25.5t-114 10.5v78q169 24 322 72zM742 194v554q-56 80 -200 80
q-104 0 -185 -89t-81 -265q0 -168 80 -264t194 -96q90 0 192 80zM1000 1042q132 58 132 150q0 43 -28 75t-74 45q-24 6 -24 44q0 34 26 58t60 24q62 0 115 -57.5t53 -144.5q0 -184 -234 -262z" />
    <glyph glyph-name="Dcroat" unicode="&#x110;" horiz-adv-x="1396" 
d="M284 294v326h-194v102h194v270q0 105 -10 145.5t-40.5 54t-111.5 18.5v78h486q367 0 528.5 -170t161.5 -426q0 -335 -205.5 -513.5t-572.5 -178.5h-412v76q89 7 122 20t43.5 53t10.5 145zM460 1124v-402h290v-102h-290v-336q0 -111 31 -147.5t133 -36.5q226 0 349 146
t123 404q0 265 -123.5 406.5t-378.5 141.5q-114 0 -124 -17t-10 -57z" />
    <glyph glyph-name="dcroat" unicode="&#x111;" horiz-adv-x="1098" 
d="M910 1082v-830q0 -65 9 -87t28.5 -26t116.5 -9v-76q-213 -38 -322 -78v120q-171 -96 -200.5 -108t-65.5 -12q-146 0 -268 124t-122 320q0 210 153 360t375 150q74 0 128 -20v172h-322v96h320q0 77 -23.5 92t-128.5 18v78q169 24 322 72v-260h184v-96h-184zM742 194v554
q-56 80 -200 80q-104 0 -185 -89t-81 -265q0 -168 80 -264t194 -96q90 0 192 80z" />
    <glyph glyph-name="Emacron" unicode="&#x112;" horiz-adv-x="1124" 
d="M258 258v774q0 85 -10 118t-41 44t-113 18v76h864q19 -264 22 -296l-86 -10q-27 128 -67 170t-181 42h-152q-50 0 -55 -12t-5 -50v-412h174q87 0 120 8t44 33t22 97h86v-388h-86q-13 78 -25.5 105.5t-44.5 36t-116 8.5h-174v-348q0 -84 18 -123t62.5 -48t153.5 -9
q80 0 127 7t74.5 26.5t61.5 77.5t57 133l84 -14q-39 -228 -66 -322h-928v78q92 7 125.5 17.5t44 43.5t10.5 119zM813 1476h-504v126h504v-126z" />
    <glyph glyph-name="emacron" unicode="&#x113;" horiz-adv-x="906" 
d="M820 156q-78 -90 -166.5 -135t-153.5 -45q-181 0 -293.5 126.5t-112.5 317.5q0 215 132 362.5t294 147.5q128 0 222 -98.5t94 -229.5q0 -47 -9 -65t-37.5 -24t-194.5 -17.5t-335 -17.5q7 -170 94 -261t208 -91q113 0 204 96zM482 834q-73 0 -133 -66t-75 -184l330 6
q33 0 42.5 11.5t9.5 42.5q0 80 -50 135t-124 55zM244 1242h500v-130h-500v130z" />
    <glyph glyph-name="Edotaccent" unicode="&#x116;" horiz-adv-x="1124" 
d="M258 258v774q0 85 -10 118t-41 44t-113 18v76h864q19 -264 22 -296l-86 -10q-27 128 -67 170t-181 42h-152q-50 0 -55 -12t-5 -50v-412h174q87 0 120 8t44 33t22 97h86v-388h-86q-13 78 -25.5 105.5t-44.5 36t-116 8.5h-174v-348q0 -84 18 -123t62.5 -48t153.5 -9
q80 0 127 7t74.5 26.5t61.5 77.5t57 133l84 -14q-39 -228 -66 -322h-928v78q92 7 125.5 17.5t44 43.5t10.5 119zM686 1532q0 -49 -32 -80.5t-80 -31.5q-52 0 -84 31t-32 81t33 85t83 35q47 0 79.5 -35.5t32.5 -84.5z" />
    <glyph glyph-name="edotaccent" unicode="&#x117;" horiz-adv-x="906" 
d="M820 156q-78 -90 -166.5 -135t-153.5 -45q-181 0 -293.5 126.5t-112.5 317.5q0 215 132 362.5t294 147.5q128 0 222 -98.5t94 -229.5q0 -47 -9 -65t-37.5 -24t-194.5 -17.5t-335 -17.5q7 -170 94 -261t208 -91q113 0 204 96zM482 834q-73 0 -133 -66t-75 -184l330 6
q33 0 42.5 11.5t9.5 42.5q0 80 -50 135t-124 55zM612 1192q0 -51 -33 -83.5t-83 -32.5q-53 0 -85.5 32t-32.5 84q0 50 33 85t85 35q49 0 82.5 -35t33.5 -85z" />
    <glyph glyph-name="Eogonek" unicode="&#x118;" horiz-adv-x="1124" 
d="M258 258v774q0 85 -10 118t-41 44t-113 18v76h864q19 -264 22 -296l-86 -10q-27 128 -67 170t-181 42h-152q-50 0 -55 -12t-5 -50v-412h174q87 0 120 8t44 33t22 97h86v-388h-86q-13 78 -25.5 105.5t-44.5 36t-116 8.5h-174v-348q0 -84 18 -123t62.5 -48t153.5 -9
q80 0 127 7t74.5 26.5t61.5 77.5t57 133l84 -14q-39 -228 -66 -322h-2q-154 -140 -154 -246q0 -48 32 -77t76 -29q42 0 98 20l22 -56q-116 -61 -137 -68.5t-43 -7.5q-89 0 -136.5 47.5t-47.5 116.5q0 129 188 300h-824v78q92 7 125.5 17.5t44 43.5t10.5 119z" />
    <glyph glyph-name="eogonek" unicode="&#x119;" horiz-adv-x="906" 
d="M766 222l54 -66q-48 -57 -104 -96q-196 -180 -196 -300q0 -49 29.5 -78.5t72.5 -29.5q37 0 90 20l26 -64q-112 -59 -132.5 -66.5t-45.5 -7.5q-84 0 -130 48t-46 116q0 123 146 282q-12 -4 -30 -4q-181 0 -293.5 126.5t-112.5 317.5q0 214 131 362t297 148
q127 0 220.5 -98.5t93.5 -229.5q0 -47 -9 -65t-37.5 -24t-194.5 -17.5t-335 -17.5q7 -170 94 -261t208 -91q113 0 204 96zM482 834q-73 0 -133 -66t-75 -184l330 6q33 0 42.5 11.5t9.5 42.5q0 80 -50 135t-124 55z" />
    <glyph glyph-name="Ecaron" unicode="&#x11a;" horiz-adv-x="1124" 
d="M258 258v774q0 85 -10 118t-41 44t-113 18v76h864q19 -264 22 -296l-86 -10q-27 128 -67 170t-181 42h-152q-50 0 -55 -12t-5 -50v-412h174q87 0 120 8t44 33t22 97h86v-388h-86q-13 78 -25.5 105.5t-44.5 36t-116 8.5h-174v-348q0 -84 18 -123t62.5 -48t153.5 -9
q80 0 127 7t74.5 26.5t61.5 77.5t57 133l84 -14q-39 -228 -66 -322h-928v78q92 7 125.5 17.5t44 43.5t10.5 119zM594 1390h-66q-92 95 -250 204l42 68q134 -55 242 -132q126 84 240 132l44 -68q-138 -89 -252 -204z" />
    <glyph glyph-name="ecaron" unicode="&#x11b;" horiz-adv-x="906" 
d="M820 156q-78 -90 -166.5 -135t-153.5 -45q-181 0 -293.5 126.5t-112.5 317.5q0 215 132 362.5t294 147.5q128 0 222 -98.5t94 -229.5q0 -47 -9 -65t-37.5 -24t-194.5 -17.5t-335 -17.5q7 -170 94 -261t208 -91q113 0 204 96zM482 834q-73 0 -133 -66t-75 -184l330 6
q33 0 42.5 11.5t9.5 42.5q0 80 -50 135t-124 55zM542 1038h-76q-73 141 -202 322l80 52q124 -154 160 -206q28 40 162 206l80 -52q-137 -191 -204 -322z" />
    <glyph glyph-name="Gcommaaccent" unicode="&#x122;" horiz-adv-x="1294" 
d="M1128 400v-168q0 -122 10 -188q-228 -70 -374 -70q-298 0 -481 180t-183 476q0 206 87.5 361t246 239t346.5 84q166 0 322 -44q17 -206 32 -318l-86 -8q-21 131 -90 203.5t-214 72.5q-196 0 -317 -148t-121 -410q0 -266 123.5 -430t346.5 -164q73 0 113.5 11t51.5 34.5
t11 84.5v178q0 70 -10.5 96t-49.5 36.5t-146 19.5v78h494v-78q-80 -12 -96 -29.5t-16 -98.5zM590 -488q132 58 132 150q0 43 -28 75t-74 45q-24 6 -24 44q0 34 26 58t60 24q62 0 115 -57.5t53 -144.5q0 -184 -234 -262z" />
    <glyph glyph-name="gcommaaccent" unicode="&#x123;" horiz-adv-x="980" 
d="M302 320q-79 32 -129.5 105t-50.5 159q0 162 113 254t249 92q38 0 71 -6t64 -18l61 -26q71 0 266 26l12 -20q-35 -81 -80 -110l-104 8q48 -74 48 -166q0 -147 -106 -237.5t-250 -90.5l-62 4q-11 0 -49.5 -31.5t-38.5 -60.5q0 -68 116 -68l214 4q136 0 215 -62.5
t79 -183.5q0 -172 -150 -287t-360 -115q-164 0 -263 79.5t-99 184.5q0 82 73 144.5l131 109.5q-158 59 -158 184q122 54 188 128zM652 598q0 113 -48.5 177.5t-131.5 64.5q-75 0 -120.5 -54.5t-45.5 -157.5q0 -113 51.5 -179.5t136.5 -66.5q70 0 114 56t44 160zM798 -170
q0 86 -65 128t-227 42q-132 0 -198 -65.5t-66 -132.5q0 -90 74.5 -145t195.5 -55q127 0 206.5 67t79.5 161zM634 1436q-132 -58 -132 -150q0 -43 28 -75t74 -45q24 -6 24 -44q0 -34 -26 -58t-60 -24q-62 0 -115 57.5t-53 144.5q0 184 234 262z" />
    <glyph glyph-name="Imacron" unicode="&#x12a;" horiz-adv-x="692" 
d="M258 258v772q0 119 -26 145.5t-144 34.5v78h516v-78q-118 -8 -144 -34.5t-26 -145.5v-772q0 -86 10 -119t42.5 -44.5t117.5 -16.5v-78h-516v78q85 5 117.5 16.5t42.5 44.5t10 119zM598 1476h-504v126h504v-126z" />
    <glyph glyph-name="imacron" unicode="&#x12b;" horiz-adv-x="576" 
d="M220 228v390q0 77 -7 105t-30 37.5t-93 19.5v68q152 27 298 82v-702q0 -99 21 -120t121 -30v-78h-450v78q98 9 119 30.5t21 119.5zM39 1242h500v-130h-500v130z" />
    <glyph glyph-name="Iogonek" unicode="&#x12e;" horiz-adv-x="692" 
d="M258 258v772q0 119 -26 145.5t-144 34.5v78h516v-78q-118 -8 -144 -34.5t-26 -145.5v-772q0 -86 10 -119t42.5 -44.5t117.5 -16.5v-78h-68q-140 -137 -140 -240q0 -49 29.5 -78.5t72.5 -29.5q37 0 90 20l26 -64q-112 -59 -132.5 -66.5t-45.5 -7.5q-84 0 -130 48t-46 116
q0 132 170 302h-342v78q85 5 117.5 16.5t42.5 44.5t10 119z" />
    <glyph glyph-name="iogonek" unicode="&#x12f;" horiz-adv-x="576" 
d="M186 1266q0 50 34 85t82 35q50 0 84 -34.5t34 -85.5q0 -50 -34 -85t-84 -35q-48 0 -82 35.5t-34 84.5zM220 228v390q0 77 -7 105t-30 37.5t-93 19.5v68q152 27 298 82v-702q0 -99 21 -120t121 -30v-78h-54q-140 -137 -140 -240q0 -49 29.5 -78.5t72.5 -29.5q37 0 90 20
l26 -64q-112 -59 -132.5 -66.5t-45.5 -7.5q-84 0 -130 48t-46 116q0 132 170 302h-290v78q98 9 119 30.5t21 119.5z" />
    <glyph glyph-name="Idotaccent" unicode="&#x130;" horiz-adv-x="692" 
d="M258 258v772q0 119 -26 145.5t-144 34.5v78h516v-78q-118 -8 -144 -34.5t-26 -145.5v-772q0 -86 10 -119t42.5 -44.5t117.5 -16.5v-78h-516v78q85 5 117.5 16.5t42.5 44.5t10 119zM461 1532q0 -49 -32 -80.5t-80 -31.5q-52 0 -84 31t-32 81t33 85t83 35q47 0 79.5 -35.5
t32.5 -84.5z" />
    <glyph glyph-name="Kcommaaccent" unicode="&#x136;" horiz-adv-x="1316" 
d="M258 254v778q0 84 -10.5 117.5t-43 44.5t-118.5 16v78h510v-78q-114 -8 -139 -34t-25 -144v-324q43 6 89 40.5t141 147t148 185.5t53 92q0 11 -11.5 20t-87.5 17v78h480v-78q-91 -6 -146 -30.5t-94.5 -61t-170 -175.5t-185.5 -205q93 -138 240.5 -327t194 -238.5
t86.5 -70t99 -24.5v-78h-298q-58 67 -253 338q-156 217 -187.5 254.5t-97.5 37.5v-376q0 -117 26 -142.5t148 -33.5v-78h-508v78q111 8 135.5 33.5t24.5 142.5zM602 -458q132 58 132 150q0 43 -28 75t-74 45q-24 6 -24 44q0 34 26 58t60 24q62 0 115 -57.5t53 -144.5
q0 -184 -234 -262z" />
    <glyph glyph-name="kcommaaccent" unicode="&#x137;" horiz-adv-x="1060" 
d="M188 226v916q0 73 -8 100t-33.5 34.5t-98.5 11.5v78q158 20 308 72v-922q71 14 109.5 48t99.5 122t61 104q0 26 -58 28v78l412 20v-76q-103 -15 -170.5 -52.5t-241.5 -251.5q38 -60 176.5 -221t189 -197.5t114.5 -39.5v-78h-264l-226 279q-113 138 -131.5 149.5
t-38.5 11.5q-5 0 -32 -6v-208q0 -97 22 -118t122 -30v-78h-468v78q109 9 132.5 30t23.5 118zM394 -488q132 58 132 150q0 43 -28 75t-74 45q-24 6 -24 44q0 34 26 58t60 24q62 0 115 -57.5t53 -144.5q0 -184 -234 -262z" />
    <glyph glyph-name="Lacute" unicode="&#x139;" horiz-adv-x="1072" 
d="M258 256v774q0 119 -26.5 145.5t-147.5 34.5v78h526v-78q-123 -8 -149.5 -34.5t-26.5 -145.5v-760q0 -127 42 -152.5t180 -25.5q82 0 131 14t86.5 70t68.5 162l86 -12q-35 -219 -66 -326h-878v76q122 9 148 35t26 145zM360 1478l226 140q104 65 111.5 68t15.5 3
q27 0 62.5 -47.5t35.5 -62.5q0 -14 -11.5 -22t-130.5 -50l-271 -95z" />
    <glyph glyph-name="lacute" unicode="&#x13a;" horiz-adv-x="546" 
d="M188 226v918q0 74 -7.5 100t-33 34t-99.5 12v76q97 10 308 72v-1212q0 -98 21 -118.5t123 -29.5v-78h-456v78q100 9 122 30t22 118zM145 1578l226 140q104 65 111.5 68t15.5 3q27 0 62.5 -47.5t35.5 -62.5q0 -14 -11.5 -22t-130.5 -50l-271 -95z" />
    <glyph glyph-name="Lcommaaccent" unicode="&#x13b;" horiz-adv-x="1072" 
d="M258 256v774q0 119 -26.5 145.5t-147.5 34.5v78h526v-78q-123 -8 -149.5 -34.5t-26.5 -145.5v-760q0 -127 42 -152.5t180 -25.5q82 0 131 14t86.5 70t68.5 162l86 -12q-35 -219 -66 -326h-878v76q122 9 148 35t26 145zM400 -488q132 58 132 150q0 43 -28 75t-74 45
q-24 6 -24 44q0 34 26 58t60 24q62 0 115 -57.5t53 -144.5q0 -184 -234 -262z" />
    <glyph glyph-name="lcommaaccent" unicode="&#x13c;" horiz-adv-x="546" 
d="M188 226v918q0 74 -7.5 100t-33 34t-99.5 12v76q97 10 308 72v-1212q0 -98 21 -118.5t123 -29.5v-78h-456v78q100 9 122 30t22 118zM136 -488q132 58 132 150q0 43 -28 75t-74 45q-24 6 -24 44q0 34 26 58t60 24q62 0 115 -57.5t53 -144.5q0 -184 -234 -262z" />
    <glyph glyph-name="Lcaron" unicode="&#x13d;" horiz-adv-x="1072" 
d="M258 256v774q0 119 -26.5 145.5t-147.5 34.5v78h526v-78q-123 -8 -149.5 -34.5t-26.5 -145.5v-760q0 -127 42 -152.5t180 -25.5q82 0 131 14t86.5 70t68.5 162l86 -12q-35 -219 -66 -326h-878v76q122 9 148 35t26 145zM720 1052q132 58 132 150q0 43 -28 75t-74 45
q-24 6 -24 44q0 34 26 58t60 24q62 0 115 -57.5t53 -144.5q0 -184 -234 -262z" />
    <glyph glyph-name="lcaron" unicode="&#x13e;" horiz-adv-x="716" 
d="M188 226v918q0 74 -7.5 100t-33 34t-99.5 12v76q97 10 308 72v-1212q0 -98 21 -118.5t123 -29.5v-78h-456v78q100 9 122 30t22 118zM446 1042q132 58 132 150q0 43 -28 75t-74 45q-24 6 -24 44q0 34 26 58t60 24q62 0 115 -57.5t53 -144.5q0 -184 -234 -262z" />
    <glyph glyph-name="Nacute" unicode="&#x143;" horiz-adv-x="1390" 
d="M254 510v422q0 138 -10 180.5t-54.5 67.5t-135.5 30v78h300l684 -964h6v448q0 341 -34 386.5t-164 51.5v78h488v-78q-135 -3 -156.5 -71t-21.5 -367v-786h-98l-686 986h-6v-462q0 -296 22 -362.5t178 -69.5v-78h-484v78q130 2 151 70.5t21 361.5zM520 1478l226 140
q104 65 111.5 68t15.5 3q27 0 62.5 -47.5t35.5 -62.5q0 -14 -11.5 -22t-130.5 -50l-271 -95z" />
    <glyph glyph-name="nacute" unicode="&#x144;" horiz-adv-x="1128" 
d="M220 224v410q0 98 -17 117.5t-105 30.5v68q171 32 290 82v-144q178 142 290 142q122 0 192 -75.5t70 -202.5v-426q0 -96 20 -117.5t106 -30.5v-78h-414v78q83 9 101.5 29t18.5 109v356q0 118 -39.5 172t-124.5 54q-103 0 -220 -116v-456q0 -97 19 -118t105 -30v-78h-436
v78q85 6 114.5 24t29.5 122zM434 1074l155 221q62 89 74.5 97.5t26.5 8.5q15 0 65 -29t50 -53q0 -13 -7.5 -24.5t-96.5 -91.5l-203 -181z" />
    <glyph glyph-name="Ncommaaccent" unicode="&#x145;" horiz-adv-x="1390" 
d="M254 510v422q0 138 -10 180.5t-54.5 67.5t-135.5 30v78h300l684 -964h6v448q0 341 -34 386.5t-164 51.5v78h488v-78q-135 -3 -156.5 -71t-21.5 -367v-786h-98l-686 986h-6v-462q0 -296 22 -362.5t178 -69.5v-78h-484v78q130 2 151 70.5t21 361.5zM598 -458
q132 58 132 150q0 43 -28 75t-74 45q-24 6 -24 44q0 34 26 58t60 24q62 0 115 -57.5t53 -144.5q0 -184 -234 -262z" />
    <glyph glyph-name="ncommaaccent" unicode="&#x146;" horiz-adv-x="1128" 
d="M220 224v410q0 98 -17 117.5t-105 30.5v68q171 32 290 82v-144q178 142 290 142q122 0 192 -75.5t70 -202.5v-426q0 -96 20 -117.5t106 -30.5v-78h-414v78q83 9 101.5 29t18.5 109v356q0 118 -39.5 172t-124.5 54q-103 0 -220 -116v-456q0 -97 19 -118t105 -30v-78h-436
v78q85 6 114.5 24t29.5 122zM428 -488q132 58 132 150q0 43 -28 75t-74 45q-24 6 -24 44q0 34 26 58t60 24q62 0 115 -57.5t53 -144.5q0 -184 -234 -262z" />
    <glyph glyph-name="Ncaron" unicode="&#x147;" horiz-adv-x="1390" 
d="M254 510v422q0 138 -10 180.5t-54.5 67.5t-135.5 30v78h300l684 -964h6v448q0 341 -34 386.5t-164 51.5v78h488v-78q-135 -3 -156.5 -71t-21.5 -367v-786h-98l-686 986h-6v-462q0 -296 22 -362.5t178 -69.5v-78h-484v78q130 2 151 70.5t21 361.5zM728 1410h-66
q-92 95 -250 204l42 68q134 -55 242 -132q126 84 240 132l44 -68q-138 -89 -252 -204z" />
    <glyph glyph-name="ncaron" unicode="&#x148;" horiz-adv-x="1128" 
d="M220 224v410q0 98 -17 117.5t-105 30.5v68q171 32 290 82v-144q178 142 290 142q122 0 192 -75.5t70 -202.5v-426q0 -96 20 -117.5t106 -30.5v-78h-414v78q83 9 101.5 29t18.5 109v356q0 118 -39.5 172t-124.5 54q-103 0 -220 -116v-456q0 -97 19 -118t105 -30v-78h-436
v78q85 6 114.5 24t29.5 122zM600 1038h-76q-73 141 -202 322l80 52q124 -154 160 -206q28 40 162 206l80 -52q-137 -191 -204 -322z" />
    <glyph glyph-name="Omacron" unicode="&#x14c;" horiz-adv-x="1354" 
d="M100 632q0 281 163.5 481.5t430.5 200.5q234 0 397 -184t163 -468q0 -310 -164.5 -499t-419.5 -189q-247 0 -408.5 186.5t-161.5 471.5zM1048 592q0 310 -102.5 469t-291.5 159q-159 0 -251.5 -139.5t-92.5 -394.5q0 -282 105.5 -450t290.5 -168q165 0 253.5 134
t88.5 390zM929 1476h-504v126h504v-126z" />
    <glyph glyph-name="omacron" unicode="&#x14d;" horiz-adv-x="1058" 
d="M92 426q0 152 59 266t162.5 176t216.5 62q188 0 310 -132.5t122 -331.5q0 -221 -128 -355.5t-304 -134.5q-194 0 -316 133.5t-122 316.5zM770 418q0 198 -67.5 307t-194.5 109q-103 0 -161.5 -85t-58.5 -241q0 -202 72 -319t196 -117q115 0 164.5 85t49.5 261zM280 1242
h500v-130h-500v130z" />
    <glyph glyph-name="Ohungarumlaut" unicode="&#x150;" horiz-adv-x="1354" 
d="M100 632q0 281 163.5 481.5t430.5 200.5q234 0 397 -184t163 -468q0 -310 -164.5 -499t-419.5 -189q-247 0 -408.5 186.5t-161.5 471.5zM1048 592q0 310 -102.5 469t-291.5 159q-159 0 -251.5 -139.5t-92.5 -394.5q0 -282 105.5 -450t290.5 -168q165 0 253.5 134
t88.5 390zM390 1520l173 141q80 64 86 67.5t14 3.5q23 0 56.5 -48t33.5 -63q0 -13 -10 -20.5t-102 -49.5l-209 -97zM724 1480l252.5 206.5t17.5 4.5q23 0 56.5 -48t33.5 -64q0 -13 -10 -21t-101 -50l-209 -96z" />
    <glyph glyph-name="ohungarumlaut" unicode="&#x151;" horiz-adv-x="1058" 
d="M92 426q0 152 59 266t162.5 176t216.5 62q188 0 310 -132.5t122 -331.5q0 -221 -128 -355.5t-304 -134.5q-194 0 -316 133.5t-122 316.5zM770 418q0 198 -67.5 307t-194.5 109q-103 0 -161.5 -85t-58.5 -241q0 -202 72 -319t196 -117q115 0 164.5 85t49.5 261zM264 1132
l155 225q60 88 72.5 96t26.5 8q17 0 65 -29.5t48 -52.5q0 -12 -7.5 -23t-96.5 -91l-201 -181zM586 1090l155 225q60 88 72.5 96t26.5 8q16 0 64.5 -29.5t48.5 -51.5q0 -12 -7.5 -23.5t-96.5 -91.5l-203 -181z" />
    <glyph glyph-name="Racute" unicode="&#x154;" horiz-adv-x="1256" 
d="M258 256v774q0 85 -10 118t-41 44t-113 18v78h482q432 0 432 -328q0 -233 -232 -346q205 -351 295.5 -449.5t160.5 -112.5l-8 -68q-149 0 -228 35t-150.5 133.5t-201.5 337.5q-34 66 -132 66h-80v-300q0 -84 10.5 -117.5t42.5 -44.5t117 -16v-78h-518v78q122 8 148 33.5
t26 144.5zM432 1128v-482h94q105 0 165 30.5t94.5 99t34.5 152.5q0 130 -76 200t-200 70q-37 0 -64 -4.5t-37.5 -13.5t-10.5 -52zM452 1478l226 140q104 65 111.5 68t15.5 3q27 0 62.5 -47.5t35.5 -62.5q0 -14 -11.5 -22t-130.5 -50l-271 -95z" />
    <glyph glyph-name="racute" unicode="&#x155;" horiz-adv-x="790" 
d="M220 226v402q0 103 -17 123.5t-109 32.5v68q168 32 294 80v-212h4q51 96 117.5 153t128.5 57q48 0 83 -34t35 -74q0 -50 -31 -83t-64 -33q-19 0 -29 12q-38 38 -80 38q-29 0 -62.5 -26.5t-67.5 -88t-34 -81.5v-336q0 -96 24 -116.5t144 -29.5v-78h-476v78q98 9 119 30
t21 118zM326 1074l155 221q62 89 74.5 97.5t26.5 8.5q15 0 65 -29t50 -53q0 -13 -7.5 -24.5t-96.5 -91.5l-203 -181z" />
    <glyph glyph-name="Rcommaaccent" unicode="&#x156;" horiz-adv-x="1256" 
d="M258 256v774q0 85 -10 118t-41 44t-113 18v78h482q432 0 432 -328q0 -233 -232 -346q205 -351 295.5 -449.5t160.5 -112.5l-8 -68q-149 0 -228 35t-150.5 133.5t-201.5 337.5q-34 66 -132 66h-80v-300q0 -84 10.5 -117.5t42.5 -44.5t117 -16v-78h-518v78q122 8 148 33.5
t26 144.5zM432 1128v-482h94q105 0 165 30.5t94.5 99t34.5 152.5q0 130 -76 200t-200 70q-37 0 -64 -4.5t-37.5 -13.5t-10.5 -52zM602 -458q132 58 132 150q0 43 -28 75t-74 45q-24 6 -24 44q0 34 26 58t60 24q62 0 115 -57.5t53 -144.5q0 -184 -234 -262z" />
    <glyph glyph-name="rcommaaccent" unicode="&#x157;" horiz-adv-x="790" 
d="M220 226v402q0 103 -17 123.5t-109 32.5v68q168 32 294 80v-212h4q51 96 117.5 153t128.5 57q48 0 83 -34t35 -74q0 -50 -31 -83t-64 -33q-19 0 -29 12q-38 38 -80 38q-29 0 -62.5 -26.5t-67.5 -88t-34 -81.5v-336q0 -96 24 -116.5t144 -29.5v-78h-476v78q98 9 119 30
t21 118zM218 -488q132 58 132 150q0 43 -28 75t-74 45q-24 6 -24 44q0 34 26 58t60 24q62 0 115 -57.5t53 -144.5q0 -184 -234 -262z" />
    <glyph glyph-name="Rcaron" unicode="&#x158;" horiz-adv-x="1256" 
d="M258 256v774q0 85 -10 118t-41 44t-113 18v78h482q432 0 432 -328q0 -233 -232 -346q205 -351 295.5 -449.5t160.5 -112.5l-8 -68q-149 0 -228 35t-150.5 133.5t-201.5 337.5q-34 66 -132 66h-80v-300q0 -84 10.5 -117.5t42.5 -44.5t117 -16v-78h-518v78q122 8 148 33.5
t26 144.5zM432 1128v-482h94q105 0 165 30.5t94.5 99t34.5 152.5q0 130 -76 200t-200 70q-37 0 -64 -4.5t-37.5 -13.5t-10.5 -52zM620 1420h-66q-92 95 -250 204l42 68q134 -55 242 -132q126 84 240 132l44 -68q-138 -89 -252 -204z" />
    <glyph glyph-name="rcaron" unicode="&#x159;" horiz-adv-x="790" 
d="M220 226v402q0 103 -17 123.5t-109 32.5v68q168 32 294 80v-212h4q51 96 117.5 153t128.5 57q48 0 83 -34t35 -74q0 -50 -31 -83t-64 -33q-19 0 -29 12q-38 38 -80 38q-29 0 -62.5 -26.5t-67.5 -88t-34 -81.5v-336q0 -96 24 -116.5t144 -29.5v-78h-476v78q98 9 119 30
t21 118zM433 1038h-76q-73 141 -202 322l80 52q124 -154 160 -206q28 40 162 206l80 -52q-137 -191 -204 -322z" />
    <glyph glyph-name="Sacute" unicode="&#x15a;" horiz-adv-x="974" 
d="M90 360l84 14q97 -306 318 -306q103 0 162.5 59.5t59.5 164.5q0 88 -49 154.5t-193 137.5q-192 94 -259 184t-67 190q0 152 110.5 254t289.5 102q115 0 252 -48l38 -282l-86 -12q-35 139 -92 192.5t-148 53.5t-143.5 -53.5t-52.5 -140.5q0 -93 58 -152.5t180 -115.5
q199 -91 266.5 -186t67.5 -210q0 -169 -122 -277.5t-310 -108.5q-141 0 -306 68q-14 46 -58 318zM372 1478l226 140q104 65 111.5 68t15.5 3q27 0 62.5 -47.5t35.5 -62.5q0 -14 -11.5 -22t-130.5 -50l-271 -95z" />
    <glyph glyph-name="sacute" unicode="&#x15b;" horiz-adv-x="818" 
d="M694 662l-80 -18q-74 192 -198 192q-56 0 -91 -34.5t-35 -87.5q0 -97 172 -166q264 -103 264 -290q0 -127 -104 -204.5t-244 -77.5q-49 0 -97 11t-86.5 28.5t-62.5 35.5q-14 11 -26 105q-8 68 -8 150l76 14q27 -109 94 -179.5t146 -70.5q59 0 99.5 35t40.5 93
q0 120 -158 186q-140 57 -200 123t-60 149q0 117 91 195.5t233 78.5q96 0 180 -38q31 -61 54 -230zM320 1074l155 221q62 89 74.5 97.5t26.5 8.5q15 0 65 -29t50 -53q0 -13 -7.5 -24.5t-96.5 -91.5l-203 -181z" />
    <glyph glyph-name="Scommaaccent" unicode="&#x218;" horiz-adv-x="974" 
d="M90 360l84 14q97 -306 318 -306q103 0 162.5 59.5t59.5 164.5q0 88 -49 154.5t-193 137.5q-192 94 -259 184t-67 190q0 152 110.5 254t289.5 102q115 0 252 -48l38 -282l-86 -12q-35 139 -92 192.5t-148 53.5t-143.5 -53.5t-52.5 -140.5q0 -93 58 -152.5t180 -115.5
q199 -91 266.5 -186t67.5 -210q0 -169 -122 -277.5t-310 -108.5q-141 0 -306 68q-14 46 -58 318zM360 -488q132 58 132 150q0 43 -28 75t-74 45q-24 6 -24 44q0 34 26 58t60 24q62 0 115 -57.5t53 -144.5q0 -184 -234 -262z" />
    <glyph glyph-name="scommaaccent" unicode="&#x219;" horiz-adv-x="818" 
d="M694 662l-80 -18q-74 192 -198 192q-56 0 -91 -34.5t-35 -87.5q0 -97 172 -166q264 -103 264 -290q0 -127 -104 -204.5t-244 -77.5q-49 0 -97 11t-86.5 28.5t-62.5 35.5q-14 11 -26 105q-8 68 -8 150l76 14q27 -109 94 -179.5t146 -70.5q59 0 99.5 35t40.5 93
q0 120 -158 186q-140 57 -200 123t-60 149q0 117 91 195.5t233 78.5q96 0 180 -38q31 -61 54 -230zM282 -488q132 58 132 150q0 43 -28 75t-74 45q-24 6 -24 44q0 34 26 58t60 24q62 0 115 -57.5t53 -144.5q0 -184 -234 -262z" />
    <glyph glyph-name="Tcommaaccent" unicode="&#x162;" horiz-adv-x="1192" 
d="M506 276v918h-92q-136 0 -179 -38.5t-75 -179.5h-84l22 362h52q29 -50 100 -50h700q34 0 50.5 8.5t41.5 41.5h52q2 -109 20 -356l-86 -6q-26 144 -69.5 181t-172.5 37h-104v-918q0 -95 11.5 -131.5t49.5 -49t139 -17.5v-78h-568v78q97 5 133.5 17.5t47.5 49t11 131.5z
M460 -488q132 58 132 150q0 43 -28 75t-74 45q-24 6 -24 44q0 34 26 58t60 24q62 0 115 -57.5t53 -144.5q0 -184 -234 -262z" />
    <glyph glyph-name="tcommaaccent" unicode="&#x163;" horiz-adv-x="650" 
d="M202 226v584h-136l-14 30l58 66h92v132l130 134l38 -2v-264h216q10 -13 10 -36q0 -40 -24 -60h-202v-524q0 -186 108 -186q50 0 114 28l26 -74q-140 -60 -167.5 -69t-58.5 -9q-91 0 -140.5 64.5t-49.5 185.5zM268 -488q132 58 132 150q0 43 -28 75t-74 45q-24 6 -24 44
q0 34 26 58t60 24q62 0 115 -57.5t53 -144.5q0 -184 -234 -262z" />
    <glyph glyph-name="Tcaron" unicode="&#x164;" horiz-adv-x="1192" 
d="M506 276v918h-92q-136 0 -179 -38.5t-75 -179.5h-84l22 362h52q29 -50 100 -50h700q34 0 50.5 8.5t41.5 41.5h52q2 -109 20 -356l-86 -6q-26 144 -69.5 181t-172.5 37h-104v-918q0 -95 11.5 -131.5t49.5 -49t139 -17.5v-78h-568v78q97 5 133.5 17.5t47.5 49t11 131.5z
M628 1420h-66q-92 95 -250 204l42 68q134 -55 242 -132q126 84 240 132l44 -68q-138 -89 -252 -204z" />
    <glyph glyph-name="tcaron" unicode="&#x165;" horiz-adv-x="750" 
d="M202 226v584h-136l-14 30l58 66h92v132l130 134l38 -2v-264h216q10 -13 10 -36q0 -40 -24 -60h-202v-524q0 -186 108 -186q50 0 114 28l26 -74q-140 -60 -167.5 -69t-58.5 -9q-91 0 -140.5 64.5t-49.5 185.5zM468 1052q132 58 132 150q0 43 -28 75t-74 45q-24 6 -24 44
q0 34 26 58t60 24q62 0 115 -57.5t53 -144.5q0 -184 -234 -262z" />
    <glyph glyph-name="Umacron" unicode="&#x16a;" horiz-adv-x="1398" 
d="M242 506v528q0 116 -26.5 143t-147.5 33v78h516v-78q-115 -8 -140.5 -34t-25.5 -142v-458q0 -158 31.5 -263t99.5 -159t191 -54q171 0 247.5 136.5t76.5 409.5v118q0 334 -25 388t-175 58v78h490v-78q-137 0 -157.5 -71t-20.5 -375v-152q0 -366 -140 -502t-336 -136
q-226 0 -342 124t-116 408zM981 1476h-504v126h504v-126z" />
    <glyph glyph-name="umacron" unicode="&#x16b;" horiz-adv-x="1110" 
d="M752 214v468q0 58 -10.5 82t-32.5 30t-113 16v72q221 12 324 36v-688q0 -69 15.5 -87.5t66.5 -18.5h64v-76q-92 -10 -298 -72l-16 12v124q-170 -136 -300 -136q-118 0 -184 76.5t-66 221.5v406q0 57 -9 81t-26.5 30t-88.5 17v72q97 4 298 38q-6 -91 -6 -294v-294
q0 -110 40 -165t130 -55q94 0 212 104zM306 1252h500v-130h-500v130z" />
    <glyph glyph-name="Uring" unicode="&#x16e;" horiz-adv-x="1398" 
d="M242 506v528q0 116 -26.5 143t-147.5 33v78h516v-78q-115 -8 -140.5 -34t-25.5 -142v-458q0 -158 31.5 -263t99.5 -159t191 -54q171 0 247.5 136.5t76.5 409.5v118q0 334 -25 388t-175 58v78h490v-78q-137 0 -157.5 -71t-20.5 -375v-152q0 -366 -140 -502t-336 -136
q-226 0 -342 124t-116 408zM516 1582q0 88 63 144t151 56t151 -56t63 -144q0 -90 -63.5 -148t-150.5 -58t-150.5 58t-63.5 148zM838 1580q0 53 -29 84.5t-77 31.5t-77 -31.5t-29 -82.5q0 -52 29.5 -86t76.5 -34q46 0 76 33.5t30 84.5z" />
    <glyph glyph-name="uring" unicode="&#x16f;" horiz-adv-x="1110" 
d="M752 214v468q0 58 -10.5 82t-32.5 30t-113 16v72q221 12 324 36v-688q0 -69 15.5 -87.5t66.5 -18.5h64v-76q-92 -10 -298 -72l-16 12v124q-170 -136 -300 -136q-118 0 -184 76.5t-66 221.5v406q0 57 -9 81t-26.5 30t-88.5 17v72q97 4 298 38q-6 -91 -6 -294v-294
q0 -110 40 -165t130 -55q94 0 212 104zM342 1242q0 90 64 145t150 55q88 0 151 -56t63 -144q0 -90 -63.5 -148t-150.5 -58t-150.5 58t-63.5 148zM664 1240q0 52 -29 84t-77 32t-77 -31.5t-29 -82.5q0 -52 29.5 -86t76.5 -34q46 0 76 33.5t30 84.5z" />
    <glyph glyph-name="Uhungarumlaut" unicode="&#x170;" horiz-adv-x="1398" 
d="M242 506v528q0 116 -26.5 143t-147.5 33v78h516v-78q-115 -8 -140.5 -34t-25.5 -142v-458q0 -158 31.5 -263t99.5 -159t191 -54q171 0 247.5 136.5t76.5 409.5v118q0 334 -25 388t-175 58v78h490v-78q-137 0 -157.5 -71t-20.5 -375v-152q0 -366 -140 -502t-336 -136
q-226 0 -342 124t-116 408zM412 1520l173 141q80 64 86 67.5t14 3.5q23 0 56.5 -48t33.5 -63q0 -13 -10 -20.5t-102 -49.5l-209 -97zM746 1480l252.5 206.5t17.5 4.5q23 0 56.5 -48t33.5 -64q0 -13 -10 -21t-101 -50l-209 -96z" />
    <glyph glyph-name="uhungarumlaut" unicode="&#x171;" horiz-adv-x="1110" 
d="M752 214v468q0 58 -10.5 82t-32.5 30t-113 16v72q221 12 324 36v-688q0 -69 15.5 -87.5t66.5 -18.5h64v-76q-92 -10 -298 -72l-16 12v124q-170 -136 -300 -136q-118 0 -184 76.5t-66 221.5v406q0 57 -9 81t-26.5 30t-88.5 17v72q97 4 298 38q-6 -91 -6 -294v-294
q0 -110 40 -165t130 -55q94 0 212 104zM270 1112l155 225q60 88 72.5 96t26.5 8q17 0 65 -29.5t48 -52.5q0 -12 -7.5 -23t-96.5 -91l-201 -181zM592 1070l155 225q60 88 72.5 96t26.5 8q16 0 64.5 -29.5t48.5 -51.5q0 -12 -7.5 -23.5t-96.5 -91.5l-203 -181z" />
    <glyph glyph-name="Uogonek" unicode="&#x172;" horiz-adv-x="1398" 
d="M242 506v528q0 116 -26.5 143t-147.5 33v78h516v-78q-115 -8 -140.5 -34t-25.5 -142v-458q0 -158 31.5 -263t99.5 -159t191 -54q171 0 247.5 136.5t76.5 409.5v118q0 334 -25 388t-175 58v78h490v-78q-137 0 -157.5 -71t-20.5 -375v-152q0 -256 -63.5 -386t-154.5 -178
q-113 -98 -161.5 -165.5t-48.5 -128.5q0 -47 31.5 -76.5t76.5 -29.5q42 0 98 20l22 -56q-116 -61 -137 -68.5t-43 -7.5q-89 0 -136.5 47.5t-47.5 116.5q0 121 168 282q-37 -8 -80 -8q-226 0 -342 124t-116 408z" />
    <glyph glyph-name="uogonek" unicode="&#x173;" horiz-adv-x="1110" 
d="M752 214v468q0 58 -10.5 82t-32.5 30t-113 16v72q221 12 324 36v-688q0 -69 15.5 -87.5t66.5 -18.5h64v-76q-190 -170 -190 -288q0 -49 29.5 -78.5t72.5 -29.5q37 0 90 20l26 -64q-112 -59 -132.5 -66.5t-45.5 -7.5q-84 0 -130 48t-46 116q0 143 190 324
q-55 -14 -162 -46l-16 12v124q-170 -136 -300 -136q-118 0 -184 76.5t-66 221.5v406q0 57 -9 81t-26.5 30t-88.5 17v72q97 4 298 38q-6 -91 -6 -294v-294q0 -110 40 -165t130 -55q94 0 212 104z" />
    <glyph glyph-name="Zacute" unicode="&#x179;" horiz-adv-x="1144" 
d="M336 1288h694l18 -32l-732 -1152q113 -12 286 -12q114 0 193 16t122 62.5t93 181.5l86 -16q-52 -283 -68 -336h-940l-20 38l740 1156h-256q-170 0 -220.5 -39.5t-83.5 -190.5l-86 2q18 273 22 372h54q18 -33 35 -41.5t63 -8.5zM456 1478l226 140q104 65 111.5 68t15.5 3
q27 0 62.5 -47.5t35.5 -62.5q0 -14 -11.5 -22t-130.5 -50l-271 -95z" />
    <glyph glyph-name="zacute" unicode="&#x17a;" horiz-adv-x="884" 
d="M314 906h470l20 -30l-490 -782h186q96 0 151 24.5t121 163.5l82 -30q-41 -134 -88 -252h-670l-18 30l165 258l327 524h-168q-63 0 -99.5 -16.5t-58 -49t-62.5 -126.5l-82 26q37 140 66 304h46q13 -44 102 -44zM392 1074l155 221q62 89 74.5 97.5t26.5 8.5q15 0 65 -29
t50 -53q0 -13 -7.5 -24.5t-96.5 -91.5l-203 -181z" />
    <glyph glyph-name="Zdotaccent" unicode="&#x17b;" horiz-adv-x="1144" 
d="M336 1288h694l18 -32l-732 -1152q113 -12 286 -12q114 0 193 16t122 62.5t93 181.5l86 -16q-52 -283 -68 -336h-940l-20 38l740 1156h-256q-170 0 -220.5 -39.5t-83.5 -190.5l-86 2q18 273 22 372h54q18 -33 35 -41.5t63 -8.5zM740 1532q0 -49 -32 -80.5t-80 -31.5
q-52 0 -84 31t-32 81t33 85t83 35q47 0 79.5 -35.5t32.5 -84.5z" />
    <glyph glyph-name="zdotaccent" unicode="&#x17c;" horiz-adv-x="884" 
d="M314 906h470l20 -30l-490 -782h186q96 0 151 24.5t121 163.5l82 -30q-41 -134 -88 -252h-670l-18 30l165 258l327 524h-168q-63 0 -99.5 -16.5t-58 -49t-62.5 -126.5l-82 26q37 140 66 304h46q13 -44 102 -44zM620 1192q0 -51 -33 -83.5t-83 -32.5q-53 0 -85.5 32
t-32.5 84q0 50 33 85t85 35q49 0 82.5 -35t33.5 -85z" />
    <glyph glyph-name="commaaccent" unicode="&#xf6c3;" horiz-adv-x="470" 
d="M98 -488q132 58 132 150q0 43 -28 75t-74 45q-24 6 -24 44q0 34 26 58t60 24q62 0 115 -57.5t53 -144.5q0 -184 -234 -262z" />
    <glyph glyph-name="four.superior" unicode="&#xf003;" horiz-adv-x="676" 
d="M452 1272v-482h122v-84h-122v-40q0 -69 19.5 -85.5t92.5 -22.5v-66h-394v66q94 6 118 22.5t24 85.5v40h-342v58q158 229 374 508h108zM312 790v306h-4q-92 -116 -206 -306h210z" />
    <glyph glyph-name="acute.cap" unicode="&#xf100;" 
d="M174 1448l226 140q104 65 111.5 68t15.5 3q27 0 62.5 -47.5t35.5 -62.5q0 -14 -11.5 -22t-130.5 -50l-271 -95z" />
    <glyph glyph-name="dieresis.cap" unicode="&#xf101;" 
d="M720 1538q0 -51 -33 -83.5t-83 -32.5q-52 0 -85 32.5t-33 83.5t34 87.5t84 36.5q48 0 82 -37t34 -87zM316 1538q0 -50 -33 -83t-83 -33q-53 0 -86.5 32.5t-33.5 83.5t34 87.5t86 36.5q48 0 82 -37t34 -87z" />
    <glyph glyph-name="circumflex.cap" unicode="&#xf102;" 
d="M370 1674h64q91 -94 250 -204l-42 -68q-146 63 -242 132q-111 -76 -240 -132l-44 68q139 91 254 204z" />
    <glyph glyph-name="tilde.cap" unicode="&#xf103;" 
d="M100 1474q87 150 184 150q41 0 132 -38q72 -30 112 -30q48 0 96 84l76 -44q-72 -158 -190 -158q-37 0 -152 46q-59 22 -86 22q-49 0 -98 -86z" />
    <glyph glyph-name="macron.cap" unicode="&#xf104;" 
d="M652 1476h-504v126h504v-126z" />
    <glyph glyph-name="breve.cap" unicode="&#xf105;" 
d="M664 1674q-2 -117 -73 -179.5t-191 -62.5q-118 0 -190 62.5t-74 179.5h86q33 -126 178 -126q144 0 176 126h88z" />
    <glyph glyph-name="dotaccent.cap" unicode="&#xf106;" 
d="M514 1532q0 -49 -32 -80.5t-80 -31.5q-52 0 -84 31t-32 81t33 85t83 35q47 0 79.5 -35.5t32.5 -84.5z" />
    <glyph glyph-name="ring.cap" unicode="&#xf107;" 
d="M186 1582q0 88 63 144t151 56t151 -56t63 -144q0 -90 -63.5 -148t-150.5 -58t-150.5 58t-63.5 148zM508 1580q0 53 -29 84.5t-77 31.5t-77 -31.5t-29 -82.5q0 -52 29.5 -86t76.5 -34q46 0 76 33.5t30 84.5z" />
    <glyph glyph-name="cedilla.cap" unicode="&#xf108;" 
d="M398 -2h100q-56 -79 -59.5 -84.5t-3.5 -15.5q0 -15 25 -42q76 -82 76 -148q0 -137 -232 -218l-40 76q126 61 126 126q0 22 -42 68q-44 48 -44 78q0 26 24 60z" />
    <glyph glyph-name="hungarumlaut.cap" unicode="&#xf109;" 
d="M52 1520l173 141q80 64 86 67.5t14 3.5q23 0 56.5 -48t33.5 -63q0 -13 -10 -20.5t-102 -49.5l-209 -97zM386 1480l252.5 206.5t17.5 4.5q23 0 56.5 -48t33.5 -64q0 -13 -10 -21t-101 -50l-209 -96z" />
    <glyph glyph-name="ogonek.cap" unicode="&#xf110;" 
d="M454 54h108q-204 -179 -204 -300q0 -49 29.5 -78.5t72.5 -29.5q37 0 90 20l28 -64q-115 -61 -133.5 -67.5t-44.5 -6.5q-85 0 -131.5 48.5t-46.5 115.5q0 157 232 362z" />
    <glyph glyph-name="caron.cap" unicode="&#xf111;" 
d="M432 1390h-66q-92 95 -250 204l42 68q134 -55 242 -132q126 84 240 132l44 -68q-138 -89 -252 -204z" />
    <glyph glyph-name="grave.cap" unicode="&#xf112;" 
d="M590 1442l-279 98q-113 40 -123.5 48t-10.5 21q0 14 36.5 62.5t63.5 48.5q9 0 16.5 -2.5t109.5 -67.5l227 -142z" />
    <glyph glyph-name="periodcentered" unicode="&#xb7;" horiz-adv-x="470" 
d="M366 492q0 -61 -37.5 -100.5t-94.5 -39.5q-56 0 -93 39t-37 101q0 60 37 100t93 40t94 -40.5t38 -99.5z" />
    <glyph glyph-name="Euro" unicode="&#x20ac;" horiz-adv-x="944" 
d="M900 259q-6 -28 -16 -60t-21.5 -63l-23 -59.5l-20.5 -50.5q-14 -7 -39.5 -16t-57.5 -16.5t-68.5 -12.5t-72.5 -5q-111 0 -191.5 41t-135.5 110t-86 160.5t-43 193.5h-122l31 95h84q-1 29 0 61.5t6 64.5h-84l31 95h67q19 113 63.5 201t109 148.5t144.5 92t169 31.5
q39 0 74 -5.5t63.5 -13t51 -15l37.5 -12.5q5 -26 9 -52.5t8 -56t8 -63t8 -74.5l-84 -17q-14 60 -31 101.5t-40 67.5t-54 38t-73 12q-48 0 -93 -23t-82 -70t-65 -119t-43 -171h518l-31 -95h-496q-3 -34 -3.5 -64.5t1.5 -61.5h475l-30 -95h-436q21 -198 94 -304t186 -106
q35 0 62.5 11t53 36t50 66.5t52.5 101.5z" />
    <glyph glyph-name="pi" unicode="&#x3c0;" horiz-adv-x="1099" 
d="M1056 935q-5 -28 -12.5 -54.5t-15.5 -49t-16 -41t-15 -30.5q-11 -4 -29.5 -6t-38.5 -2.5t-41 -0.5h-35q-9 -112 -10.5 -221.5t-1.5 -217.5q0 -55 5.5 -90.5t15.5 -56t22.5 -28t27.5 -7.5q17 0 43.5 6t45.5 17l31 -68q-15 -19 -36 -38.5t-45.5 -35t-51.5 -25.5t-54 -10
q-26 0 -53.5 8t-50.5 35t-38 79t-15 140q0 146 5.5 272.5t11.5 246.5q-84 2 -144.5 2.5t-116.5 1.5v-57q0 -178 -14.5 -304.5t-33 -209t-36.5 -125t-25 -52.5q-40 -18 -74.5 -26.5t-64.5 -10.5l-22 54q47 65 77.5 156t48 191.5t24.5 201t7 183.5q-39 0 -71.5 -4t-62 -14
t-56.5 -26t-54 -40l-45 78q18 20 45 46.5t69 49.5t103.5 38.5t148.5 13.5q44 -1 102 -2.5l121 -3t125.5 -2.5t115.5 -1q22 0 36 2t24.5 8.5t18.5 19t18 33.5z" />
    <glyph glyph-name="litre" unicode="&#x2113;" horiz-adv-x="847" 
d="M797 185q-63 -102 -150 -155.5t-186 -53.5q-66 0 -118.5 21.5t-85.5 60.5q-32 38 -52.5 107t-20.5 176v137l-99 -66l-39 78l138 106v123q0 95 4.5 167.5t13 128t21 96t28 71.5t34.5 55t40 46q44 47 93.5 69t104.5 22q40 0 76.5 -15t64.5 -46t44.5 -78.5t16.5 -112.5
q0 -66 -20.5 -127t-53 -115t-73 -100.5t-81.5 -84t-78 -66l-62 -46.5v-188q0 -142 44.5 -207t123.5 -65q33 0 62.5 10.5t55.5 28t49 40.5t45 48zM357 703q115 99 172 203.5t57 214.5q0 69 -28 108t-78 39q-35 0 -58.5 -21.5t-38 -67.5t-20.5 -117.5t-6 -171.5v-187z" />
    <glyph glyph-name="estimated" unicode="&#x212e;" horiz-adv-x="1582" 
d="M346 606q-11 0 -11 -8v-353q0 -12 4.5 -22.5t12.5 -18.5q85 -89 198.5 -140t244.5 -51q141 0 260 57.5t205 156.5h105q-49 -57 -112 -104t-136 -80t-155 -51t-169 -18q-100 0 -192 23t-172.5 65.5t-146.5 101.5t-112.5 131.5t-72.5 155.5t-26 173t26 173t72.5 155
t112.5 131.5t146.5 102t172.5 65.5t192 23t192 -23t172.5 -65.5t146.5 -102t112.5 -131.5t72.5 -155t26 -173v-18h-1169zM1251 1008q0 24 -19 43q-85 85 -196.5 134.5t-240.5 49.5q-130 0 -243 -51t-198 -139q-19 -19 -19 -44v-349q0 -10 11 -10h896q9 0 9 10v356z" />
    <glyph glyph-name="uni021A" horiz-adv-x="1192" 
d="M506 276v918h-92q-136 0 -179 -38.5t-75 -179.5h-84l22 362h52q29 -50 100 -50h700q34 0 50.5 8.5t41.5 41.5h52q2 -109 20 -356l-86 -6q-26 144 -69.5 181t-172.5 37h-104v-918q0 -95 11.5 -131.5t49.5 -49t139 -17.5v-78h-568v78q97 5 133.5 17.5t47.5 49t11 131.5z
M460 -488q132 58 132 150q0 43 -28 75t-74 45q-24 6 -24 44q0 34 26 58t60 24q62 0 115 -57.5t53 -144.5q0 -184 -234 -262z" />
    <glyph glyph-name="uni2215" unicode="&#x2215;" horiz-adv-x="906" 
d="M800 1310l86 -50l-782 -1312l-84 56z" />
    </font>
</defs>
</svg>
